<?xml version="1.0" encoding="utf-8"?>
<!-- Generator: Adobe Illustrator 25.4.1, SVG Export Plug-In . SVG Version: 6.00 Build 0)  -->
<svg version="1.1" id="Layer_1" xmlns="http://www.w3.org/2000/svg" xmlns:xlink="http://www.w3.org/1999/xlink" x="0px" y="0px"
	 width="483.2px" height="59px" viewBox="0 0 483.2 59" style="enable-background:new 0 0 483.2 59;" xml:space="preserve">
<style type="text/css">
	.st0{enable-background:new    ;}
	.st1{fill:#0066B2;}
	.st2{fill:#008848;}
	.st3{fill:none;stroke:#EC1C24;stroke-width:0.85;stroke-linecap:round;stroke-linejoin:round;}
	.st4{fill:#00803E;}
	.st5{fill:url(#SVGID_1_);}
	.st6{fill:url(#SVGID_00000175317861138562672970000012156882317627696571_);}
	.st7{fill:url(#SVGID_00000151528294715286497460000009105782767150677135_);}
	.st8{fill:url(#SVGID_00000023995819380531652880000012176365064379126459_);}
	.st9{fill:#EC1C24;}
	.st10{fill:#FFD300;}
	.st11{fill:#E49F24;}
	.st12{fill:#00A551;}
</style>
<g>
	<g id="Layer_2_00000075140275784660648300000002842160294251878828_">
		<g class="st0">
			<path class="st1" d="M81.5,16.3v12.3l-0.9-1.5c-1-2.8-2.8-4.3-5.3-4.5l-1.5-2.4c1.1-0.9,2.1-1.5,2.8-1.9c1.4-0.7,2.6-1.3,3.6-1.7
				v-0.4h-6.7l-1.5-1.6h11l1.5,1.6H81.5z M80,19c-1.1,0.4-2.2,1.1-3.4,1.9c1.4,0.7,2.6,1.8,3.4,3V19z"/>
			<path class="st1" d="M84.4,15.9c-0.1-1.1-0.1-2.2-0.1-3.5l0.8,0.7c0,0.2,0.1,0.6,0.3,1.2c0.1,0.1,0.1,0.2,0.2,0.3h1.6l1.5,1.6
				h-2.9v12.4L84.3,27v-8.7c0-0.5-0.1-0.8-0.3-1.1c-0.4-0.6-0.9-1-1.5-1c-0.1,0-0.2,0-0.3,0l-1.5-1.6c0.9-0.1,1.7-0.1,2.1,0
				C83.5,14.8,84,15.2,84.4,15.9z"/>
			<path class="st1" d="M91.3,20.8c-0.3,0.2-0.6,0.3-1.1,0.3c-0.7,0-1.3-0.3-1.9-0.9s-0.8-1.3-0.8-2c0-0.7,0.3-1.4,0.8-2
				c0.5-0.6,1.1-0.9,1.7-0.9c0.7,0,1.3,0.3,1.8,0.9c0.5,0.6,0.8,1.3,0.8,2c0,0.5-0.1,1-0.4,1.4C92,20.2,91.7,20.5,91.3,20.8z
				 M92.9,27.8c-0.8-0.8-2.3-2.1-4.6-3.8v-3.2c0.8,0.7,1.7,1.6,2.7,2.7c0.6,0.6,1.8,2.1,3.5,4.5v1.6L92.9,27.8z M90.7,16.9
				c-0.3,0-0.7,0.2-1.1,0.7c-0.3,0.3-0.5,0.7-0.5,1.3c0,0.4,0.1,0.6,0.4,0.6c0.2,0,0.5-0.1,0.9-0.4c0.4-0.3,0.6-0.5,0.7-0.7
				c0-0.1,0.1-0.3,0.1-0.7C91.2,17.1,91,16.9,90.7,16.9z"/>
			<path class="st1" d="M102.9,16.2v12.1l-1.5-1.6v-6.4c0-0.3-0.1-0.6-0.4-0.8c-0.3-0.3-0.5-0.4-0.8-0.4c-0.2,0-0.4,0.1-0.5,0.4
				c-0.1,0.2-0.1,0.7,0,1.4l-1.1,0.4c0.1-0.3,0.1-0.6,0-0.8c-0.3-0.5-0.5-0.7-0.6-0.8c-0.3-0.4-0.8-0.6-1.3-0.6
				c-0.4,0-0.8,0.2-1.2,0.5c-0.3,0.3-0.5,0.8-0.5,1.2c0,0.6,0.2,1,0.7,1.3c-0.1-0.2-0.1-0.3-0.1-0.5c0-0.4,0.1-0.8,0.4-1
				c0.3-0.3,0.6-0.4,1-0.4c0.6,0,1,0.4,1.3,1.1c0.2,0.6,0.3,1.1,0.2,1.3c-0.3,0.8-0.9,1.2-1.8,1.2c-0.8,0-1.4-0.2-2-0.7
				s-0.9-1.1-1.1-1.9c-0.1-0.3-0.1-0.6-0.1-0.9c0-0.8,0.2-1.6,0.7-2.2c0.5-0.7,1.1-1.1,1.8-1.1c0.8,0,1.5,0.3,2.1,1l0.1,0.2
				c0.1-0.3,0.3-0.5,0.6-0.8c0.3-0.2,0.5-0.3,0.8-0.3c0.4,0,0.8,0.2,1.1,0.5c0.1,0.2,0.2,0.4,0.4,0.5c0.1,0.1,0.1,0.1,0.2,0.2v-1.9
				h-8l-1.5-1.6h12.4l1.5,1.6H102.9z"/>
			<path class="st1" d="M105.9,15.9c-0.1-1.1-0.1-2.2-0.1-3.5l0.8,0.7c0,0.2,0.1,0.6,0.3,1.2c0.1,0.1,0.1,0.2,0.2,0.3h1.6l1.5,1.6
				h-2.9v12.4l-1.4-1.7v-8.7c0-0.5-0.1-0.8-0.3-1.1c-0.4-0.6-0.9-1-1.5-1c-0.1,0-0.2,0-0.3,0l-1.5-1.6c0.9-0.1,1.7-0.1,2.1,0
				C105,14.8,105.5,15.2,105.9,15.9z"/>
			<path class="st1" d="M114.2,16.7c-1.6,0.7-2.6,1.9-3.1,3.5c-0.2,0.9-0.3,1.8-0.3,2.7c0,0.4,0,0.8,0.1,1.1c0.1,0.5,0.3,1,0.6,1.5
				c0.4,0.6,0.8,0.9,1.2,0.9c0.1,0,0.1,0,0.1,0c0.1,0.1-0.1,0.2-0.4,0.4c0.2,0,0.3,0,0.3-0.1c0,0-0.1-0.1-0.2-0.4
				c-0.2-0.3-0.3-0.5-0.3-0.7c-0.1-0.7,0.2-1.2,0.8-1.6c0.2-0.1,0.5-0.2,0.7-0.2c0.3,0,0.5,0.1,0.7,0.3c0.5,0.3,0.8,0.8,0.8,1.4
				c0,0.6-0.2,1.1-0.6,1.5c-0.4,0.4-0.9,0.6-1.5,0.6c-0.7,0-1.3-0.2-1.7-0.6c-1.3-1.2-2-3-2-5.2c0-1.9,0.6-3.8,1.9-5.5h-2.8
				l-1.5-1.6h8l1.4,1.6C115.5,16.3,114.8,16.4,114.2,16.7z"/>
			<path class="st1" d="M117.2,16.3v4.1c0.3-0.3,0.8-0.8,1.5-1.4c0.7-0.6,1.8-1.2,3-1.8l2.1,1.7c-1,2.1-1.5,3.9-1.5,5.5
				c0,0.3,0,0.7,0.1,1c0,0.2,0.1,1.1,0.4,2.9l-1.2-0.6c-0.4-2.1-0.6-3.8-0.6-4.9c0-0.9,0.1-1.8,0.2-2.6c-1.8,0.8-3.1,2.3-3.9,4.5
				l-1.7-1.9v-6.4h-0.9l-1.5-1.6h11.4l1.5,1.6H117.2z"/>
			<path class="st1" d="M134.1,16.3v12l-1.5-1.6l0.1-7.2c0-0.3-0.2-0.8-0.7-1.5c-0.5-0.7-0.8-1-1.1-1c-0.5,0.1-0.8,0.3-0.9,0.6
				c0.5,0.4,0.8,0.7,0.9,0.8c0.3,0.3,0.5,0.7,0.6,1.1c0.1,0.4,0,0.9-0.1,1.3c-0.2,0.6-0.7,0.9-1.4,0.9c-0.6,0-1.1-0.3-1.6-1
				c-0.2,0.3-0.4,0.6-0.7,0.8c-0.3,0.2-0.7,0.3-1,0.3c-0.4,0-0.8-0.2-1.1-0.6c-0.3-0.4-0.4-0.8-0.4-1.3c0-0.5,0.2-1,0.6-1.5
				c0.3-0.5,0.7-0.8,1.2-1.1c-0.1-0.2-0.2-0.4-0.4-0.7c-0.3-0.2-0.6-0.3-1-0.4c0.4,0,0,0-1.2,0l-1.5-1.6h2.7c0.5,0,1,0.2,1.4,0.5
				c0.4,0.4,0.6,0.6,0.6,0.6c0.2,0.2,0.3,0.5,0.4,0.7c0.4-0.8,1.1-1.4,2-1.7c0.3-0.1,0.4-0.1,0.5-0.1c0.5,0,1.3,0.9,2.3,2.6l0.2,0.4
				l-0.2-2.6l-0.1-2.7c0.4,0.4,0.8,0.8,1,1.1c0.1,0.2,0.2,0.4,0.2,0.6c0,0.1,0,0.2,0,0.3c0.1,0.2,0.3,0.3,0.5,0.4h1l1.5,1.6H134.1z"
				/>
			<path class="st1" d="M150.4,16.3v12.1l-1.5-1.8v-5.3c-0.1-0.2-0.2-0.5-0.5-0.7c-0.3-0.3-0.5-0.4-0.8-0.4c-0.3,0-0.6,0.2-0.9,0.7
				c-1.2,1.9-1.9,2.9-2.3,3c-0.1,0-0.2,0-0.4,0c-0.5,0-0.8-0.1-1-0.2c-0.4-0.1-1-1-1.7-2.5l1.1-1.2c0,0.4,0.1,0.8,0.3,1.1
				c0.2,0.5,0.4,0.7,0.6,0.7s0.7-0.7,1.7-2.1c-0.1-1.5-0.7-2.2-1.7-2.2c-0.7,0-1.1-0.1-1.3-0.1c-0.3-0.1-0.6-0.4-0.9-0.9l-0.3-0.2
				l-1.3-1.4h12.3l1.5,1.6H150.4z M149,16.3h-4c0.6,0.6,1,1.3,1,2.3v0c0.6-0.5,1-0.7,1.2-0.7c0.5,0,1.1,0.5,1.8,1.6V16.3z"/>
			<path class="st1" d="M153.3,15.9c-0.1-1.1-0.1-2.2-0.1-3.5l0.8,0.7c0,0.2,0.1,0.6,0.3,1.2c0.1,0.1,0.1,0.2,0.2,0.3h1.6l1.5,1.6
				h-2.9v12.4l-1.4-1.7v-8.7c0-0.5-0.1-0.8-0.3-1.1c-0.4-0.6-0.9-1-1.5-1c-0.1,0-0.2,0-0.3,0l-1.5-1.6c0.9-0.1,1.7-0.1,2.1,0
				C152.4,14.8,153,15.2,153.3,15.9z"/>
			<path class="st1" d="M164,16.3v12.3l-0.9-1.5c-1-2.8-2.8-4.3-5.3-4.5l-1.5-2.4c1.1-0.9,2.1-1.5,2.8-1.9c1.4-0.7,2.6-1.3,3.6-1.7
				v-0.4h-6.7l-1.5-1.6h11l1.5,1.6H164z M162.6,19c-1.1,0.4-2.2,1.1-3.4,1.9c1.4,0.7,2.6,1.8,3.4,3V19z"/>
			<path class="st1" d="M171,16.7c-1.6,0.7-2.6,1.9-3.1,3.5c-0.2,0.9-0.3,1.8-0.3,2.7c0,0.4,0,0.8,0.1,1.1c0.1,0.5,0.3,1,0.6,1.5
				c0.4,0.6,0.8,0.9,1.2,0.9c0.1,0,0.1,0,0.1,0c0.1,0.1-0.1,0.2-0.4,0.4c0.2,0,0.3,0,0.3-0.1c0,0-0.1-0.1-0.2-0.4
				c-0.2-0.3-0.3-0.5-0.3-0.7c-0.1-0.7,0.2-1.2,0.8-1.6c0.2-0.1,0.5-0.2,0.7-0.2c0.3,0,0.5,0.1,0.7,0.3c0.5,0.3,0.8,0.8,0.8,1.4
				c0,0.6-0.2,1.1-0.6,1.5c-0.4,0.4-0.9,0.6-1.5,0.6c-0.7,0-1.3-0.2-1.7-0.6c-1.3-1.2-2-3-2-5.2c0-1.9,0.6-3.8,1.9-5.5h-2.8
				l-1.5-1.6h8l1.4,1.6C172.3,16.3,171.6,16.4,171,16.7z"/>
			<path class="st1" d="M172.2,17.3L172.2,17.3c-0.1-0.1-0.4-0.3-0.6-0.7l-0.2-0.5l-1.4-1.5h11.7l1.5,1.6h-3.1v12.1l-0.8-1
				c-0.3-1.4-0.7-2.3-1.2-2.8c-0.6-0.6-1.1-1-1.4-1.2c-0.5,0.7-1.1,1-1.9,1c-0.8,0-1.4-0.4-1.8-1.1c0-0.1,0-0.3-0.1-0.5
				s-0.1-0.4-0.1-0.5c0-0.7,0.2-1.3,0.7-1.7c0.4-0.4,1-0.5,1.6-0.5c0.2,0,0.4,0,0.5,0.1c-0.1-0.8-0.4-1.4-1-1.8
				c-0.1-0.1-0.6-0.3-1.3-0.5C172.8,17.7,172.4,17.5,172.2,17.3z M178.6,16.3h-4.1c0.7,0.7,1.2,1.1,1.5,1.4c0.5,0.6,0.8,1.2,1,1.8
				c0.2,1,0.3,1.7,0.3,2.2c0.4,0.4,0.8,1,1.4,1.7V16.3z"/>
			<path class="st1" d="M190.6,12.4c-1-0.9-2.2-1.3-3.6-1.3c-0.7,0-1.5,0.3-2.4,0.9c-0.2,0.2-0.4,0.5-0.7,0.9
				c-0.3,0.5-0.5,0.8-0.4,0.9l0.4,0.8h1.9l1.5,1.6h-2.9v11.9l-1.5-1.6V16.3h-1.4l-1.5-1.6h2.7c-0.2-0.2-0.4-0.4-0.5-0.6
				s-0.3-0.5-0.3-0.7c0-0.5,0.1-0.8,0.3-1.1c0.4-0.7,0.6-1.1,0.8-1.3c0.9-1.1,2-1.6,3.2-1.6c1.4,0,2.9,0.5,4.4,1.6
				c0.5,0.3,1.2,0.9,2,1.8l0.5,1.5L190.6,12.4z"/>
			<path class="st1" d="M193.3,16.3v11.9l-0.8-0.8c-0.7-1.4-1.1-2.1-1.1-2.2c-0.4-0.7-1-1.3-1.7-1.7c-0.8-0.5-1.7-0.8-2.7-0.9
				l-1.6-2.3c2.2-1.7,4.3-2.9,6.3-3.6v-0.4h-6.3l-1.5-1.6h10.6l1.5,1.6H193.3z M189.1,26.9c-0.4,0-0.7-0.1-1-0.4
				c-0.3-0.3-0.4-0.6-0.4-1c0-0.4,0.1-0.7,0.4-1c0.2-0.3,0.5-0.4,0.9-0.4c0.3,0,0.6,0.1,0.8,0.3c0.3,0.2,0.4,0.5,0.5,0.8
				c0.1,0.4,0,0.8-0.2,1.2C189.8,26.8,189.5,26.9,189.1,26.9z M191.8,18.8c-1.2,0.4-2.3,1.1-3.5,2c1.5,0.7,2.7,1.8,3.5,3.2V18.8z"/>
			<path class="st1" d="M198.3,20.2c0.3,0.4,0.4,0.8,0.5,1.1c0,0.2,0,0.3,0,0.5c0,0.5-0.1,0.9-0.4,1.2s-0.7,0.5-1.2,0.5
				c-1.5,0-2.2-0.8-2.2-2.4c0-0.8,0.3-1.5,0.8-2c0.5-0.5,1.2-0.8,1.9-0.8c1.4,0,2.5,0.9,3.5,2.7l0.1,0.3v-4.9h-7.1l-1.5-1.6h11.5
				l1.5,1.6h-3v12.4l-0.8-1.2c0.1-0.6,0-1.4-0.4-2.5c-0.3-1-0.5-1.8-0.7-2.2c-0.3-0.8-0.8-1.4-1.3-1.9
				C199.1,20.5,198.7,20.3,198.3,20.2z"/>
			<path class="st1" d="M220,21.1c-0.1-0.5-0.3-1-0.7-1.5c-0.6-0.6-1.2-0.9-2-0.9v9.5l-0.8-0.8c-0.2-0.7-0.4-1.2-0.4-1.4
				c-0.2-0.3-0.4-0.7-0.8-1.2c-0.5-0.6-0.9-1-1.2-1.3c-0.8-0.5-1.6-0.8-2.6-0.9l-1.6-2.2c1.8-1.6,3.8-2.8,6-3.6v-0.5h-6.3l-1.5-1.6
				h13.7l1.5,1.6h-5.9v0.4c0.9,0,1.7,0.4,2.5,1.2c0.7,0.8,1.2,1.6,1.4,2.6c0.1,0.4,0.1,0.7,0.1,1c0,0.6-0.2,1.2-0.5,1.7
				c-0.4,0.5-0.8,0.8-1.4,0.8c-0.4,0-0.8-0.2-1.1-0.5c-0.3-0.3-0.5-0.7-0.5-1.1c0-0.5,0.2-1,0.7-1.4c0.3-0.1,0.5-0.1,0.7-0.1
				C219.4,20.8,219.7,20.9,220,21.1z M215.8,18.8c-0.8,0.4-1.5,0.7-2.1,1.1c0,0-0.4,0.3-1,0.8c1.3,0.7,2.4,1.7,3.1,2.9V18.8z"/>
			<path class="st1" d="M226.5,16.2c-0.4,0-0.8,0.1-1.1,0.4c-0.3,0.2-0.5,0.6-0.6,1c-0.1,0.7,0,1.8,0.2,3.4c0.3,1.8,0.4,2.9,0.4,3.3
				c0,1.3-0.6,2.4-1.9,3.3c-0.6,0.4-1.1,0.6-1.4,0.6c-0.4,0-0.6-0.2-0.7-0.6c0-0.1,0-0.1,0-0.2c0-0.2,0.2-0.4,0.5-0.5
				c0.4-0.1,0.6-0.2,0.7-0.2c0.4-0.4,0.7-0.6,0.8-0.7c0.2-0.3,0.3-0.8,0.3-1.4c0-0.3-0.1-1-0.4-2.1c-0.3-1.2-0.4-2.1-0.4-2.7
				c0-0.8,0.2-1.6,0.6-2.4c0.3-0.4,0.5-0.8,0.8-1.1h-2.6l-1.5-1.6h6.9l1.6,1.6C228,16.2,227.3,16.2,226.5,16.2z"/>
			<path class="st1" d="M228.4,15.9c-0.1-1.1-0.1-2.2-0.1-3.5l0.8,0.7c0,0.2,0.1,0.6,0.3,1.2c0.1,0.1,0.1,0.2,0.2,0.3h1.6l1.5,1.6
				h-2.9v12.4l-1.4-1.7v-8.7c0-0.5-0.1-0.8-0.3-1.1c-0.4-0.6-0.9-1-1.5-1c-0.1,0-0.2,0-0.3,0l-1.5-1.6c0.9-0.1,1.7-0.1,2.1,0
				C227.5,14.8,228,15.2,228.4,15.9z"/>
			<path class="st1" d="M239.1,16.3v12.3l-0.9-1.5c-1-2.8-2.8-4.3-5.3-4.5l-1.5-2.4c1.1-0.9,2.1-1.5,2.8-1.9
				c1.4-0.7,2.6-1.3,3.6-1.7v-0.4h-6.7l-1.5-1.6h11l1.5,1.6H239.1z M237.6,19c-1.1,0.4-2.2,1.1-3.4,1.9c1.4,0.7,2.6,1.8,3.4,3V19z"
				/>
			<path class="st1" d="M249.8,16.2v12.1l-1.5-1.6v-6.4c0-0.3-0.1-0.6-0.4-0.8c-0.3-0.3-0.5-0.4-0.8-0.4c-0.2,0-0.4,0.1-0.5,0.4
				c-0.1,0.2-0.1,0.7,0,1.4l-1.1,0.4c0.1-0.3,0.1-0.6,0-0.8c-0.3-0.5-0.5-0.7-0.6-0.8c-0.3-0.4-0.8-0.6-1.3-0.6
				c-0.4,0-0.8,0.2-1.2,0.5c-0.3,0.3-0.5,0.8-0.5,1.2c0,0.6,0.2,1,0.7,1.3c-0.1-0.2-0.1-0.3-0.1-0.5c0-0.4,0.1-0.8,0.4-1
				c0.3-0.3,0.6-0.4,1-0.4c0.6,0,1,0.4,1.3,1.1c0.2,0.6,0.3,1.1,0.2,1.3c-0.3,0.8-0.9,1.2-1.8,1.2c-0.8,0-1.4-0.2-2-0.7
				s-0.9-1.1-1.1-1.9c-0.1-0.3-0.1-0.6-0.1-0.9c0-0.8,0.2-1.6,0.7-2.2c0.5-0.7,1.1-1.1,1.8-1.1c0.8,0,1.5,0.3,2.1,1l0.1,0.2
				c0.1-0.3,0.3-0.5,0.6-0.8c0.3-0.2,0.5-0.3,0.8-0.3c0.4,0,0.8,0.2,1.1,0.5c0.1,0.2,0.2,0.4,0.4,0.5c0.1,0.1,0.1,0.1,0.2,0.2v-1.9
				h-8l-1.5-1.6h12.4l1.5,1.6H249.8z"/>
			<path class="st1" d="M260.8,26.1c-0.1-0.2-0.2-0.4-0.2-0.7c0-0.6,0.2-1,0.5-1.4c0.2-0.1,0.5-0.2,1.1-0.3c0.3,0,0.6,0.1,0.9,0.5
				c0.3,0.3,0.4,0.7,0.4,1.1c0,0.6-0.2,1.1-0.6,1.6c-0.4,0.4-0.9,0.6-1.4,0.6c-0.7,0-1.3-0.2-1.7-0.6c-1.4-1.2-2.1-3-2.1-5.2
				c0-0.4,0-0.8,0.1-1.2c0.2-1.8,0.9-3.4,2.1-4.7c0.8-0.8,1.6-1.2,2.5-1.2l1.4,1.6c-1.2,0.1-2.3,0.6-3.1,1.5
				c-1.1,1.2-1.6,2.8-1.6,4.7c0,0.4,0.1,0.9,0.2,1.6C259.6,25.2,260.1,25.9,260.8,26.1z"/>
			<path class="st1" d="M273.5,21.1c-0.1-0.5-0.3-1-0.7-1.5c-0.6-0.6-1.2-0.9-2-0.9v9.5l-0.8-0.8c-0.2-0.7-0.4-1.2-0.4-1.4
				c-0.2-0.3-0.4-0.7-0.8-1.2c-0.5-0.6-0.9-1-1.2-1.3c-0.8-0.5-1.6-0.8-2.6-0.9l-1.6-2.2c1.8-1.6,3.8-2.8,6-3.6v-0.5H263l-1.5-1.6
				h13.7l1.5,1.6h-5.9v0.4c0.9,0,1.7,0.4,2.5,1.2c0.7,0.8,1.2,1.6,1.4,2.6c0.1,0.4,0.1,0.7,0.1,1c0,0.6-0.2,1.2-0.5,1.7
				c-0.4,0.5-0.8,0.8-1.4,0.8c-0.4,0-0.8-0.2-1.1-0.5c-0.3-0.3-0.5-0.7-0.5-1.1c0-0.5,0.2-1,0.7-1.4c0.3-0.1,0.5-0.1,0.7-0.1
				C273,20.8,273.3,20.9,273.5,21.1z M269.3,18.8c-0.8,0.4-1.5,0.7-2.1,1.1c0,0-0.4,0.3-1,0.8c1.3,0.7,2.4,1.7,3.1,2.9V18.8z"/>
			<path class="st1" d="M276.8,15.9c-0.1-1.1-0.1-2.2-0.1-3.5l0.8,0.7c0,0.2,0.1,0.6,0.3,1.2c0.1,0.1,0.1,0.2,0.2,0.3h1.6l1.5,1.6
				h-2.9v12.4l-1.4-1.7v-8.7c0-0.5-0.1-0.8-0.3-1.1c-0.4-0.6-0.9-1-1.5-1c-0.1,0-0.2,0-0.3,0l-1.5-1.6c0.9-0.1,1.7-0.1,2.1,0
				C275.9,14.8,276.4,15.2,276.8,15.9z"/>
			<path class="st1" d="M287.6,16.3c0.3,0.5,0.5,1.1,0.5,1.8c0,0.9-0.3,1.8-0.8,2.5c-0.3,0.4-0.6,0.7-0.8,0.8l-0.7,0.1
				c-0.9-0.1-1.6-0.5-2.2-1.1l-0.5-0.5c-0.1,0.4-0.2,0.6-0.5,0.9c-0.3,0.2-0.6,0.3-0.9,0.3c-0.1,0-0.1,0-0.2,0c-0.4,0-0.7-0.2-1-0.5
				c-0.2-0.3-0.3-0.7-0.3-1.2c0-0.7,0.4-1.2,1.2-1.5c0.2,0,0.3,0,0.3,0l-0.2-1.4c-0.1-0.3-0.2-0.4-0.4-0.4h-1.6l-1.5-1.6h11.1
				l1.5,1.6H287.6z M286,16.3h-3.3l0.4,0.9c0,0.2,0,0.4,0.1,0.6c0.2,0.2,0.6,0.6,1.2,1.1c0.5,0.3,0.9,0.5,1.2,0.5
				c0.5,0,0.8-0.1,0.9-0.4c0.1-0.1,0.1-0.5,0.1-1C286.6,16.9,286.4,16.3,286,16.3z"/>
			<path class="st1" d="M295.3,18l-0.1-1.2l-0.2-4.1l1,0.8c0,0.1,0.1,0.1,0.1,0.2c0,0.4,0.1,0.6,0.2,0.8l0.3,0.2
				c0.5-0.1,0.9-0.1,1.2,0l1.4,1.6h-2.7v11.9c-0.4-0.4-0.9-1-1.6-1.7l0.1-6c-0.2-0.5-0.4-1-0.7-1.6c0-0.1-0.1-0.2-0.3-0.3l-3.5,3.9
				l-2-0.8l1.1-1.3c0.1-0.1,0.1-0.3,0.1-0.5c0-0.6-0.2-0.9-0.5-0.9c0,0,0,0-0.2-0.1c-0.1,0.2-0.4,0.3-1.1,0.5
				c-0.3,0.1-0.5,0-0.8-0.3c-0.2-0.3-0.4-0.5-0.4-0.8c0-0.2,0.1-0.5,0.2-0.7c1-1.8,2.3-2.7,4-2.7c0.9,0,1.7,0.3,2.4,0.9
				C294.4,16.3,294.9,17.1,295.3,18z M291,19.2l2-2.1c-0.4-0.4-0.9-0.6-1.3-0.6c-0.9,0-1.6,0.3-2,1C290.4,17.7,290.8,18.2,291,19.2z
				"/>
			<path class="st1" d="M299.2,15.9c-0.1-1.1-0.1-2.2-0.1-3.5l0.8,0.7c0,0.2,0.1,0.6,0.3,1.2c0.1,0.1,0.1,0.2,0.2,0.3h1.6l1.5,1.6
				h-2.9v12.4l-1.4-1.7v-8.7c0-0.5-0.1-0.8-0.3-1.1c-0.4-0.6-0.9-1-1.5-1c-0.1,0-0.2,0-0.3,0l-1.5-1.6c0.9-0.1,1.7-0.1,2.1,0
				C298.3,14.8,298.9,15.2,299.2,15.9z"/>
			<path class="st1" d="M311,12.4c-1-0.9-2.2-1.3-3.6-1.3c-0.7,0-1.5,0.3-2.4,0.9c-0.2,0.2-0.4,0.5-0.7,0.9
				c-0.3,0.5-0.5,0.8-0.4,0.9l0.4,0.8h1.9l1.5,1.6h-2.9v11.9l-1.5-1.6V16.3h-1.4l-1.5-1.6h2.7c-0.2-0.2-0.4-0.4-0.5-0.6
				s-0.3-0.5-0.3-0.7c0-0.5,0.1-0.8,0.3-1.1c0.4-0.7,0.6-1.1,0.8-1.3c0.9-1.1,2-1.6,3.2-1.6c1.4,0,2.9,0.5,4.4,1.6
				c0.5,0.3,1.2,0.9,2,1.8l0.5,1.5L311,12.4z"/>
			<path class="st1" d="M309.6,20.2c0.3,0.4,0.4,0.8,0.5,1.1c0,0.2,0,0.3,0,0.5c0,0.5-0.1,0.9-0.4,1.2s-0.7,0.5-1.2,0.5
				c-1.5,0-2.2-0.8-2.2-2.4c0-0.8,0.3-1.5,0.8-2c0.5-0.5,1.2-0.8,1.9-0.8c1.4,0,2.5,0.9,3.5,2.7l0.1,0.3v-4.9h-7.1l-1.5-1.6h11.5
				l1.5,1.6h-3v12.4l-0.8-1.2c0.1-0.6,0-1.4-0.4-2.5c-0.3-1-0.5-1.8-0.7-2.2c-0.3-0.8-0.8-1.4-1.3-1.9
				C310.5,20.5,310,20.3,309.6,20.2z"/>
			<path class="st1" d="M330.1,12.4c-1-0.9-2.2-1.3-3.6-1.3c-0.7,0-1.5,0.3-2.4,0.9c-0.2,0.2-0.4,0.5-0.7,0.9
				c-0.3,0.5-0.5,0.8-0.4,0.9l0.4,0.8h1.9l1.5,1.6h-2.9v11.9l-1.5-1.6V16.3h-1.4l-1.5-1.6h2.7c-0.2-0.2-0.4-0.4-0.5-0.6
				s-0.3-0.5-0.3-0.7c0-0.5,0.1-0.8,0.3-1.1c0.4-0.7,0.6-1.1,0.8-1.3c0.9-1.1,2-1.6,3.2-1.6c1.4,0,2.9,0.5,4.4,1.6
				c0.5,0.3,1.2,0.9,2,1.8l0.5,1.5L330.1,12.4z"/>
			<path class="st1" d="M334.5,16.2v12.1l-1.5-1.6v-6.4c0-0.3-0.1-0.6-0.4-0.8c-0.3-0.3-0.5-0.4-0.8-0.4c-0.2,0-0.4,0.1-0.5,0.4
				c-0.1,0.2-0.1,0.7,0,1.4l-1.1,0.4c0.1-0.3,0.1-0.6,0-0.8c-0.3-0.5-0.5-0.7-0.6-0.8c-0.3-0.4-0.8-0.6-1.3-0.6
				c-0.4,0-0.8,0.2-1.2,0.5c-0.3,0.3-0.5,0.8-0.5,1.2c0,0.6,0.2,1,0.7,1.3c-0.1-0.2-0.1-0.3-0.1-0.5c0-0.4,0.1-0.8,0.4-1
				c0.3-0.3,0.6-0.4,1-0.4c0.6,0,1,0.4,1.3,1.1c0.2,0.6,0.3,1.1,0.2,1.3c-0.3,0.8-0.9,1.2-1.8,1.2c-0.8,0-1.4-0.2-2-0.7
				s-0.9-1.1-1.1-1.9c-0.1-0.3-0.1-0.6-0.1-0.9c0-0.8,0.2-1.6,0.7-2.2c0.5-0.7,1.1-1.1,1.8-1.1c0.8,0,1.5,0.3,2.1,1l0.1,0.2
				c0.1-0.3,0.3-0.5,0.6-0.8c0.3-0.2,0.5-0.3,0.8-0.3c0.4,0,0.8,0.2,1.1,0.5c0.1,0.2,0.2,0.4,0.4,0.5c0.1,0.1,0.1,0.1,0.2,0.2v-1.9
				h-8l-1.5-1.6h12.4l1.5,1.6H334.5z"/>
			<path class="st1" d="M344.9,12.4c-1-0.9-2.2-1.3-3.6-1.3c-0.7,0-1.5,0.3-2.4,0.9c-0.2,0.2-0.4,0.5-0.7,0.9
				c-0.3,0.5-0.5,0.8-0.4,0.9l0.4,0.8h1.9l1.5,1.6h-2.9v11.9l-1.5-1.6V16.3h-1.4l-1.5-1.6h2.7c-0.2-0.2-0.4-0.4-0.5-0.6
				s-0.3-0.5-0.3-0.7c0-0.5,0.1-0.8,0.3-1.1c0.4-0.7,0.6-1.1,0.8-1.3c0.9-1.1,2-1.6,3.2-1.6c1.4,0,2.9,0.5,4.4,1.6
				c0.5,0.3,1.2,0.9,2,1.8l0.5,1.5L344.9,12.4z"/>
			<path class="st1" d="M340.5,17.3L340.5,17.3c-0.1-0.1-0.4-0.3-0.6-0.7l-0.2-0.5l-1.4-1.5H350l1.5,1.6h-3.1v12.1l-0.8-1
				c-0.3-1.4-0.7-2.3-1.2-2.8c-0.6-0.6-1.1-1-1.4-1.2c-0.5,0.7-1.1,1-1.9,1c-0.8,0-1.4-0.4-1.8-1.1c0-0.1,0-0.3-0.1-0.5
				s-0.1-0.4-0.1-0.5c0-0.7,0.2-1.3,0.7-1.7c0.4-0.4,1-0.5,1.6-0.5c0.2,0,0.4,0,0.5,0.1c-0.1-0.8-0.4-1.4-1-1.8
				c-0.1-0.1-0.6-0.3-1.3-0.5C341.1,17.7,340.7,17.5,340.5,17.3z M346.9,16.3h-4.1c0.7,0.7,1.2,1.1,1.5,1.4c0.5,0.6,0.8,1.2,1,1.8
				c0.2,1,0.3,1.7,0.3,2.2c0.4,0.4,0.8,1,1.4,1.7V16.3z"/>
			<path class="st1" d="M355.5,16.7c-1.6,0.7-2.6,1.9-3.1,3.5c-0.2,0.9-0.3,1.8-0.3,2.7c0,0.4,0,0.8,0.1,1.1c0.1,0.5,0.3,1,0.6,1.5
				c0.4,0.6,0.8,0.9,1.2,0.9c0.1,0,0.1,0,0.1,0c0.1,0.1-0.1,0.2-0.4,0.4c0.2,0,0.3,0,0.3-0.1c0,0-0.1-0.1-0.2-0.4
				c-0.2-0.3-0.3-0.5-0.3-0.7c-0.1-0.7,0.2-1.2,0.8-1.6c0.2-0.1,0.5-0.2,0.7-0.2c0.3,0,0.5,0.1,0.7,0.3c0.5,0.3,0.8,0.8,0.8,1.4
				c0,0.6-0.2,1.1-0.6,1.5c-0.4,0.4-0.9,0.6-1.5,0.6c-0.7,0-1.3-0.2-1.7-0.6c-1.3-1.2-2-3-2-5.2c0-1.9,0.6-3.8,1.9-5.5h-2.8
				l-1.5-1.6h8l1.4,1.6C356.8,16.3,356.1,16.4,355.5,16.7z"/>
			<path class="st1" d="M358.5,11.5L358.5,11.5c0.6-0.1,1.4-0.2,2.2-0.1c0.8,0,1.4,0.2,1.8,0.5c1,0.7,1.5,1.5,1.4,2.7h1.1l1.4,1.7
				h-7.9v7.4c0,0.4,0.2,0.6,0.6,0.6c0.5,0,1-0.3,1.7-1c0.6-0.7,1-1.3,1.2-1.9h-0.1c-0.4,0-0.8-0.1-1.1-0.4c-0.3-0.3-0.5-0.7-0.5-1.1
				c0-0.2,0-0.3,0-0.5c0.2-0.9,0.8-1.3,1.6-1.3c0.6,0,1.1,0.3,1.5,0.8c0.4,0.5,0.5,1.1,0.5,1.8c-0.1,1.4-0.4,2.5-1.2,3.3
				c-1.3,1.5-2.4,2.3-3.2,2.3c-1.2,0-2-0.7-2.4-2.2c-0.1-0.2-0.1-0.8-0.1-1.7v-6.1h-1.6l-1.2-1.6h8.2c0-0.2,0-0.3,0-0.4
				c-0.1-0.6-0.5-0.9-1.3-0.8c-0.5,0-1.2,0-2.1,0.1c-0.4,0-0.6,0-0.8,0c-1.1,0-2-0.3-2.7-1c-0.5-0.5-0.8-1.1-0.8-1.8
				c0-0.4,0.1-0.8,0.4-1.2c0.1-0.2,0.3-0.3,0.6-0.3c0.1,0,0.2,0,0.3,0.1c0,0.2,0.1,0.4,0.1,0.6c-0.2,0.2-0.3,0.4-0.3,0.5
				c0,0.5,0.3,0.8,0.8,0.9C356.9,11.6,357.5,11.6,358.5,11.5z"/>
			<path class="st1" d="M370.4,16.3v4c0.3-0.1,0.7-0.3,1-0.7c0.4-0.4,0.7-0.7,0.8-1c0.1-0.2,0.3-0.5,0.6-0.8
				c0.6,0.3,1.2,0.9,1.6,1.7c0.4,0.8,0.6,1.6,0.6,2.4c0,0.6-0.1,1.3-0.3,2c-0.3,1-0.8,1.7-1.6,2.1c-0.7,0.4-1.6,0.6-2.5,0.5
				c-1-0.1-1.8-0.5-2.4-1.2c-0.4-0.5-0.9-1.3-1.5-2.5c-0.6-1.5-0.9-2.9-1.1-4.3c0,0-0.1-0.8-0.2-2.2l1.1,0.6
				c0.1,1.1,0.3,2.3,0.7,3.5c0.5,1.4,1.1,2.4,1.7,2.9c0.5,0.5,1.1,0.7,2,0.7c1.1,0,2-0.5,2.5-1.4c0.3-0.4,0.4-0.9,0.4-1.3
				c0-0.4-0.1-0.7-0.3-1c-0.4,0.6-0.9,1.2-1.7,1.7c-0.4,0.3-0.9,0.4-1.3,0.4c-0.8,0-1.3-0.6-1.7-1.7c0-0.2,0-1.7,0-4.5h-4l-1.5-1.6
				H376l1.5,1.6H370.4z"/>
		</g>
		<g class="st0">
			<path class="st1" d="M387.9,30.5c-3.6-2.6-5.4-6.1-5.4-10.3c0-4.1,1.8-7.4,5.5-9.8l0.4,0.8c-2.4,1.8-3.6,4.8-3.6,8.9
				c0,2.3,0.2,4.1,0.7,5.4c0.5,1.7,1.6,3.1,3,4.4L387.9,30.5z"/>
		</g>
		<g class="st0">
			<path class="st1" d="M397.8,12.4c-1-0.9-2.2-1.3-3.6-1.3c-0.7,0-1.5,0.3-2.4,0.9c-0.2,0.2-0.4,0.5-0.7,0.9
				c-0.3,0.5-0.5,0.8-0.4,0.9l0.4,0.8h1.9l1.5,1.6h-2.9v11.9l-1.5-1.6V16.3h-1.4l-1.5-1.6h2.7c-0.2-0.2-0.4-0.4-0.5-0.6
				s-0.3-0.5-0.3-0.7c0-0.5,0.1-0.8,0.3-1.1c0.4-0.7,0.6-1.1,0.8-1.3c0.9-1.1,2-1.6,3.2-1.6c1.4,0,2.9,0.5,4.4,1.6
				c0.5,0.3,1.2,0.9,2,1.8l0.5,1.5L397.8,12.4z"/>
			<path class="st1" d="M400.8,16.3v12.3l-0.9-1.5c-1-2.8-2.8-4.3-5.3-4.5l-1.5-2.4c1.1-0.9,2.1-1.5,2.8-1.9
				c1.4-0.7,2.6-1.3,3.6-1.7v-0.4h-6.7l-1.5-1.6h11l1.5,1.6H400.8z M399.3,19c-1.1,0.4-2.2,1.1-3.4,1.9c1.4,0.7,2.6,1.8,3.4,3V19z"
				/>
			<path class="st1" d="M411.9,27.3c-0.1-0.5-0.3-1-0.6-1.7c-0.3-0.4-0.7-0.5-1.3-0.5c-0.3,0-0.9,0.1-1.8,0.2
				c-0.8,0.1-1.4,0.2-1.8,0.1c-1.4-0.1-2.5-0.8-3-2c-0.3-0.7-0.5-1.5-0.5-2.4c0-0.9,0.2-1.8,0.5-2.7c0.1-0.3,0.2-0.4,0.3-0.5
				c0.2-0.2,0.4-0.1,0.5,0.1l0.5,0.6c-0.3,0.5-0.5,0.8-0.5,1.1c0,0.2-0.1,0.6-0.1,1.2c0,0.7,0.2,1.4,0.7,1.9
				c0.2,0.2,0.6,0.4,1.1,0.5c0.5,0.1,0.9,0.2,1.2,0.1c0.6-0.1,1.2-0.1,1.6-0.1c1,0,1.9,0.2,2.5,0.7c0.1,0.1,0.2,0.2,0.3,0.3v-7.8
				c0,0,0,0-0.1,0c-0.5,0-1.2,0.4-2,1.2c-0.4,0.4-0.7,0.9-0.9,1.5c0.1,0,0.2,0,0.3,0c0.4,0,0.6,0.2,0.8,0.5c0.2,0.3,0.3,0.6,0.3,1
				c0,0.4-0.1,0.7-0.3,1c-0.2,0.3-0.5,0.5-0.8,0.6c-0.2,0-0.4,0-0.5,0c-0.8,0-1.4-0.4-1.7-1.1c-0.2-0.5-0.3-0.9-0.2-1.3
				c0.3-1.7,1.1-3.1,2.4-4.1c0.8-0.6,1.6-0.9,2.3-0.9c0.4,0,0.9,0.3,1.4,0.9c0.4,0.4,0.5,0.8,0.5,1.1v11.7L411.9,27.3z"/>
			<path class="st1" d="M423.7,16.3v12.1l-1.5-1.8v-5.3c-0.1-0.2-0.2-0.5-0.5-0.7c-0.3-0.3-0.5-0.4-0.8-0.4c-0.3,0-0.6,0.2-0.9,0.7
				c-1.2,1.9-1.9,2.9-2.3,3c-0.1,0-0.2,0-0.4,0c-0.5,0-0.8-0.1-1-0.2c-0.4-0.1-1-1-1.7-2.5l1.1-1.2c0,0.4,0.1,0.8,0.3,1.1
				c0.2,0.5,0.4,0.7,0.6,0.7s0.7-0.7,1.7-2.1c-0.1-1.5-0.7-2.2-1.7-2.2c-0.7,0-1.1-0.1-1.3-0.1c-0.3-0.1-0.6-0.4-0.9-0.9l-0.3-0.2
				l-1.3-1.4h12.3l1.5,1.6H423.7z M422.3,16.3h-4c0.6,0.6,1,1.3,1,2.3v0c0.6-0.5,1-0.7,1.2-0.7c0.5,0,1.1,0.5,1.8,1.6V16.3z"/>
			<path class="st1" d="M434.1,12.4c-1-0.9-2.2-1.3-3.6-1.3c-0.7,0-1.5,0.3-2.4,0.9c-0.2,0.2-0.4,0.5-0.7,0.9
				c-0.3,0.5-0.5,0.8-0.4,0.9l0.4,0.8h1.9l1.5,1.6h-2.9v11.9l-1.5-1.6V16.3h-1.4l-1.5-1.6h2.7c-0.2-0.2-0.4-0.4-0.5-0.6
				s-0.3-0.5-0.3-0.7c0-0.5,0.1-0.8,0.3-1.1c0.4-0.7,0.6-1.1,0.8-1.3c0.9-1.1,2-1.6,3.2-1.6c1.4,0,2.9,0.5,4.4,1.6
				c0.5,0.3,1.2,0.9,2,1.8l0.5,1.5L434.1,12.4z"/>
			<path class="st1" d="M438.4,16.3v12.1l-1.5-1.8v-5.3c-0.1-0.2-0.2-0.5-0.5-0.7c-0.3-0.3-0.5-0.4-0.8-0.4c-0.3,0-0.6,0.2-0.9,0.7
				c-1.2,1.9-1.9,2.9-2.3,3c-0.1,0-0.2,0-0.4,0c-0.5,0-0.8-0.1-1-0.2c-0.4-0.1-1-1-1.7-2.5l1.1-1.2c0,0.4,0.1,0.8,0.3,1.1
				c0.2,0.5,0.4,0.7,0.6,0.7s0.7-0.7,1.7-2.1c-0.1-1.5-0.7-2.2-1.7-2.2c-0.7,0-1.1-0.1-1.3-0.1c-0.3-0.1-0.6-0.4-0.9-0.9l-0.3-0.2
				l-1.3-1.4h12.3l1.5,1.6H438.4z M437,16.3h-4c0.6,0.6,1,1.3,1,2.3v0c0.6-0.5,1-0.7,1.2-0.7c0.5,0,1.1,0.5,1.8,1.6V16.3z"/>
			<path class="st1" d="M448.8,12.4c-1-0.9-2.2-1.3-3.6-1.3c-0.7,0-1.5,0.3-2.4,0.9c-0.2,0.2-0.4,0.5-0.7,0.9
				c-0.3,0.5-0.5,0.8-0.4,0.9l0.4,0.8h1.9l1.5,1.6h-2.9v11.9l-1.5-1.6V16.3h-1.4l-1.5-1.6h2.7c-0.2-0.2-0.4-0.4-0.5-0.6
				s-0.3-0.5-0.3-0.7c0-0.5,0.1-0.8,0.3-1.1c0.4-0.7,0.6-1.1,0.8-1.3c0.9-1.1,2-1.6,3.2-1.6c1.4,0,2.9,0.5,4.4,1.6
				c0.5,0.3,1.2,0.9,2,1.8l0.5,1.5L448.8,12.4z"/>
			<path class="st1" d="M453.2,16.3v12.1l-1.5-1.8v-5.3c-0.1-0.2-0.2-0.5-0.5-0.7c-0.3-0.3-0.5-0.4-0.8-0.4c-0.3,0-0.6,0.2-0.9,0.7
				c-1.2,1.9-1.9,2.9-2.3,3c-0.1,0-0.2,0-0.4,0c-0.5,0-0.8-0.1-1-0.2c-0.4-0.1-1-1-1.7-2.5l1.1-1.2c0,0.4,0.1,0.8,0.3,1.1
				c0.2,0.5,0.4,0.7,0.6,0.7s0.7-0.7,1.7-2.1c-0.1-1.5-0.7-2.2-1.7-2.2c-0.7,0-1.1-0.1-1.3-0.1c-0.3-0.1-0.6-0.4-0.9-0.9l-0.3-0.2
				l-1.3-1.4h12.3l1.5,1.6H453.2z M451.7,16.3h-4c0.6,0.6,1,1.3,1,2.3v0c0.6-0.5,1-0.7,1.2-0.7c0.5,0,1.1,0.5,1.8,1.6V16.3z"/>
			<path class="st1" d="M464.2,27.3c-0.1-0.5-0.3-1-0.6-1.7c-0.3-0.4-0.7-0.5-1.3-0.5c-0.3,0-0.9,0.1-1.8,0.2
				c-0.8,0.1-1.4,0.2-1.8,0.1c-1.4-0.1-2.5-0.8-3-2c-0.3-0.7-0.5-1.5-0.5-2.4c0-0.9,0.2-1.8,0.5-2.7c0.1-0.3,0.2-0.4,0.3-0.5
				c0.2-0.2,0.4-0.1,0.5,0.1l0.5,0.6c-0.3,0.5-0.5,0.8-0.5,1.1c0,0.2-0.1,0.6-0.1,1.2c0,0.7,0.2,1.4,0.7,1.9
				c0.2,0.2,0.6,0.4,1.1,0.5c0.5,0.1,0.9,0.2,1.2,0.1c0.6-0.1,1.2-0.1,1.6-0.1c1,0,1.9,0.2,2.5,0.7c0.1,0.1,0.2,0.2,0.3,0.3v-7.8
				c0,0,0,0-0.1,0c-0.5,0-1.2,0.4-2,1.2c-0.4,0.4-0.7,0.9-0.9,1.5c0.1,0,0.2,0,0.3,0c0.4,0,0.6,0.2,0.8,0.5c0.2,0.3,0.3,0.6,0.3,1
				c0,0.4-0.1,0.7-0.3,1c-0.2,0.3-0.5,0.5-0.8,0.6c-0.2,0-0.4,0-0.5,0c-0.8,0-1.4-0.4-1.7-1.1c-0.2-0.5-0.3-0.9-0.2-1.3
				c0.3-1.7,1.1-3.1,2.4-4.1c0.8-0.6,1.6-0.9,2.3-0.9c0.4,0,0.9,0.3,1.4,0.9c0.4,0.4,0.5,0.8,0.5,1.1v11.7L464.2,27.3z"/>
			<path class="st1" d="M476.2,16.2v12.1l-1.5-1.6v-6.4c0-0.3-0.1-0.6-0.4-0.8c-0.3-0.3-0.5-0.4-0.8-0.4c-0.2,0-0.4,0.1-0.5,0.4
				c-0.1,0.2-0.1,0.7,0,1.4l-1.1,0.4c0.1-0.3,0.1-0.6,0-0.8c-0.3-0.5-0.5-0.7-0.6-0.8c-0.3-0.4-0.8-0.6-1.3-0.6
				c-0.4,0-0.8,0.2-1.2,0.5c-0.3,0.3-0.5,0.8-0.5,1.2c0,0.6,0.2,1,0.7,1.3c-0.1-0.2-0.1-0.3-0.1-0.5c0-0.4,0.1-0.8,0.4-1
				c0.3-0.3,0.6-0.4,1-0.4c0.6,0,1,0.4,1.3,1.1c0.2,0.6,0.3,1.1,0.2,1.3c-0.3,0.8-0.9,1.2-1.8,1.2c-0.8,0-1.4-0.2-2-0.7
				s-0.9-1.1-1.1-1.9c-0.1-0.3-0.1-0.6-0.1-0.9c0-0.8,0.2-1.6,0.7-2.2c0.5-0.7,1.1-1.1,1.8-1.1c0.8,0,1.5,0.3,2.1,1l0.1,0.2
				c0.1-0.3,0.3-0.5,0.6-0.8c0.3-0.2,0.5-0.3,0.8-0.3c0.4,0,0.8,0.2,1.1,0.5c0.1,0.2,0.2,0.4,0.4,0.5c0.1,0.1,0.1,0.1,0.2,0.2v-1.9
				h-8l-1.5-1.6h12.4l1.5,1.6H476.2z"/>
		</g>
		<g class="st0">
			<path class="st1" d="M482.4,26.3c-0.9,1.6-2.3,3-4,4.1l-0.4-0.8c2.4-1.8,3.6-4.8,3.6-8.9c0-2.3-0.2-4.1-0.6-5.5
				c-0.5-1.8-1.6-3.2-3-4.4l0.5-0.7c1.3,0.7,2.4,1.8,3.4,3.4c1.3,2.2,2,4.5,2,7C483.8,22.8,483.4,24.6,482.4,26.3z"/>
		</g>
		<g class="st0">
			<path class="st2" d="M81.2,45.1c0.3,0.5,0.5,1,0.5,1.7c0,0.9-0.3,1.6-0.9,2.1c-0.6,0.5-1.4,0.8-2.4,0.8h-4.6V38.9h4.4
				c1,0,1.8,0.3,2.3,0.8c0.6,0.5,0.8,1.2,0.8,2c0,0.6-0.2,1.2-0.5,1.6c-0.3,0.4-0.7,0.7-1.2,0.9C80.4,44.3,80.8,44.6,81.2,45.1z
				 M76.3,43.3h1.6c0.4,0,0.7-0.1,0.9-0.3c0.2-0.2,0.3-0.5,0.3-0.8s-0.1-0.7-0.3-0.8c-0.2-0.2-0.5-0.3-0.9-0.3h-1.6V43.3z
				 M78.9,47.3c0.2-0.2,0.3-0.5,0.3-0.9c0-0.4-0.1-0.7-0.3-0.9s-0.5-0.3-0.9-0.3h-1.7v2.4H78C78.4,47.6,78.7,47.5,78.9,47.3z"/>
			<path class="st2" d="M83.1,43.1c0.3-0.7,0.7-1.2,1.2-1.5c0.5-0.4,1.1-0.5,1.8-0.5c0.6,0,1,0.1,1.4,0.4s0.7,0.6,1,1v-1.2h2.4v8.6
				h-2.4v-1.2c-0.2,0.4-0.6,0.7-1,1s-0.9,0.4-1.4,0.4c-0.6,0-1.2-0.2-1.7-0.5c-0.5-0.4-0.9-0.9-1.2-1.6c-0.3-0.7-0.5-1.4-0.5-2.3
				S82.8,43.8,83.1,43.1z M88,43.9c-0.3-0.4-0.7-0.6-1.2-0.6c-0.5,0-0.9,0.2-1.2,0.6S85,44.8,85,45.4s0.2,1.2,0.5,1.6
				s0.7,0.6,1.2,0.6c0.5,0,0.9-0.2,1.2-0.6s0.5-0.9,0.5-1.6S88.3,44.3,88,43.9z"/>
			<path class="st2" d="M99.5,42c0.5,0.7,0.8,1.5,0.8,2.7v5H98v-4.7c0-0.6-0.1-1-0.4-1.3c-0.3-0.3-0.6-0.5-1.1-0.5s-0.8,0.2-1.1,0.5
				C95.1,44,95,44.5,95,45.1v4.7h-2.4v-8.6H95v1.1c0.2-0.4,0.6-0.7,1-0.9c0.4-0.2,0.9-0.3,1.4-0.3C98.3,41,99,41.4,99.5,42z"/>
			<path class="st2" d="M106.4,41.4c0.4,0.2,0.7,0.6,1,1v-1.2h2.4v8.6c0,0.8-0.1,1.5-0.4,2.1c-0.3,0.6-0.7,1.2-1.3,1.5
				c-0.6,0.4-1.3,0.6-2.2,0.6c-1.2,0-2.1-0.3-2.8-0.9c-0.7-0.6-1.1-1.4-1.2-2.4h2.4c0.1,0.3,0.3,0.6,0.5,0.8s0.6,0.3,1,0.3
				c0.5,0,0.9-0.2,1.2-0.5c0.3-0.3,0.4-0.8,0.4-1.5v-1.2c-0.2,0.4-0.6,0.7-1,1c-0.4,0.3-0.9,0.4-1.4,0.4c-0.6,0-1.2-0.2-1.8-0.5
				c-0.5-0.4-0.9-0.9-1.2-1.6c-0.3-0.7-0.5-1.4-0.5-2.3s0.2-1.7,0.5-2.3c0.3-0.7,0.7-1.2,1.2-1.5c0.5-0.4,1.1-0.5,1.8-0.5
				C105.5,41,106,41.1,106.4,41.4z M106.9,43.9c-0.3-0.4-0.7-0.6-1.2-0.6c-0.5,0-0.9,0.2-1.2,0.6s-0.5,0.9-0.5,1.5s0.2,1.2,0.5,1.6
				s0.7,0.6,1.2,0.6c0.5,0,0.9-0.2,1.2-0.6s0.5-0.9,0.5-1.6S107.2,44.3,106.9,43.9z"/>
			<path class="st2" d="M113.9,38.3v11.4h-2.4V38.3H113.9z"/>
			<path class="st2" d="M115.6,43.1c0.3-0.7,0.7-1.2,1.2-1.5c0.5-0.4,1.1-0.5,1.8-0.5c0.6,0,1,0.1,1.4,0.4s0.7,0.6,1,1v-1.2h2.4v8.6
				H121v-1.2c-0.2,0.4-0.6,0.7-1,1s-0.9,0.4-1.4,0.4c-0.6,0-1.2-0.2-1.7-0.5c-0.5-0.4-0.9-0.9-1.2-1.6c-0.3-0.7-0.5-1.4-0.5-2.3
				S115.3,43.8,115.6,43.1z M120.5,43.9c-0.3-0.4-0.7-0.6-1.2-0.6c-0.5,0-0.9,0.2-1.2,0.6s-0.5,0.9-0.5,1.5s0.2,1.2,0.5,1.6
				s0.7,0.6,1.2,0.6c0.5,0,0.9-0.2,1.2-0.6s0.5-0.9,0.5-1.6S120.9,44.3,120.5,43.9z"/>
			<path class="st2" d="M125.1,43.1c0.3-0.7,0.7-1.2,1.2-1.5c0.5-0.4,1.1-0.5,1.8-0.5c0.5,0,1,0.1,1.4,0.4s0.8,0.6,1,1v-4h2.4v11.4
				h-2.4v-1.2c-0.2,0.4-0.5,0.7-1,1s-0.9,0.4-1.4,0.4c-0.6,0-1.2-0.2-1.8-0.5c-0.5-0.4-0.9-0.9-1.2-1.6c-0.3-0.7-0.5-1.4-0.5-2.3
				S124.8,43.8,125.1,43.1z M130,43.9c-0.3-0.4-0.7-0.6-1.2-0.6c-0.5,0-0.9,0.2-1.2,0.6s-0.5,0.9-0.5,1.5s0.2,1.2,0.5,1.6
				s0.7,0.6,1.2,0.6c0.5,0,0.9-0.2,1.2-0.6s0.5-0.9,0.5-1.6S130.4,44.3,130,43.9z"/>
			<path class="st2" d="M142,46.1h-5.4c0,0.5,0.2,0.9,0.5,1.2c0.3,0.3,0.6,0.4,1,0.4c0.6,0,1-0.3,1.2-0.8h2.5
				c-0.1,0.6-0.4,1.1-0.7,1.5s-0.8,0.8-1.3,1.1c-0.5,0.3-1.1,0.4-1.7,0.4c-0.8,0-1.4-0.2-2-0.5c-0.6-0.4-1.1-0.9-1.4-1.5
				c-0.3-0.7-0.5-1.4-0.5-2.3c0-0.9,0.2-1.7,0.5-2.3c0.3-0.7,0.8-1.2,1.4-1.5c0.6-0.4,1.3-0.5,2.1-0.5c0.8,0,1.4,0.2,2,0.5
				s1,0.8,1.4,1.5c0.3,0.6,0.5,1.4,0.5,2.3C142,45.5,142,45.8,142,46.1z M139.6,44.6c0-0.5-0.1-0.8-0.4-1.1c-0.3-0.3-0.6-0.4-1-0.4
				c-0.4,0-0.7,0.1-1,0.4s-0.4,0.6-0.5,1.1H139.6z"/>
			<path class="st2" d="M144.6,49.5c-0.5-0.3-1-0.6-1.3-1.1s-0.5-0.9-0.5-1.5h2.4c0,0.3,0.2,0.5,0.4,0.7c0.2,0.2,0.5,0.3,0.8,0.3
				c0.3,0,0.5-0.1,0.7-0.2c0.2-0.1,0.2-0.3,0.2-0.5c0-0.2-0.1-0.4-0.3-0.5c-0.2-0.1-0.6-0.2-1.1-0.4c-0.6-0.1-1-0.3-1.4-0.5
				s-0.7-0.4-1-0.8s-0.4-0.8-0.4-1.4c0-0.5,0.1-0.9,0.4-1.3c0.2-0.4,0.6-0.7,1.1-1s1.1-0.4,1.7-0.4c1,0,1.8,0.3,2.3,0.8
				s0.9,1.2,1,2.1h-2.2c0-0.3-0.2-0.5-0.4-0.7c-0.2-0.2-0.5-0.3-0.8-0.3c-0.3,0-0.5,0.1-0.6,0.2s-0.2,0.3-0.2,0.5
				c0,0.2,0.1,0.4,0.4,0.6s0.6,0.2,1.1,0.4c0.6,0.2,1,0.3,1.4,0.5s0.7,0.4,1,0.8c0.3,0.4,0.4,0.8,0.4,1.4c0,0.5-0.1,1-0.4,1.3
				c-0.3,0.4-0.6,0.7-1.1,0.9s-1,0.3-1.7,0.3C145.8,49.8,145.2,49.7,144.6,49.5z"/>
			<path class="st2" d="M158,42c0.5,0.7,0.8,1.5,0.8,2.7v5h-2.4v-4.7c0-0.6-0.1-1-0.4-1.3c-0.3-0.3-0.6-0.5-1.1-0.5
				s-0.8,0.2-1.1,0.5c-0.3,0.3-0.4,0.8-0.4,1.3v4.7h-2.4V38.3h2.4v4c0.2-0.4,0.6-0.7,1-0.9c0.4-0.2,0.9-0.3,1.4-0.3
				C156.8,41,157.5,41.4,158,42z"/>
			<path class="st2" d="M165.1,49.4c-0.6-0.3-1-0.6-1.4-1.1c-0.3-0.5-0.5-1.1-0.5-1.8h2.5c0,0.4,0.2,0.7,0.4,0.9
				c0.2,0.2,0.5,0.3,0.8,0.3c0.4,0,0.6-0.1,0.8-0.3c0.2-0.2,0.3-0.4,0.3-0.7c0-0.3-0.1-0.5-0.2-0.7c-0.2-0.2-0.4-0.3-0.6-0.4
				c-0.2-0.1-0.6-0.2-1-0.4c-0.6-0.2-1.2-0.4-1.6-0.6c-0.4-0.2-0.7-0.5-1-1s-0.4-1-0.4-1.6c0-1,0.3-1.8,1-2.4
				c0.7-0.6,1.5-0.9,2.6-0.9c1.1,0,2,0.3,2.6,0.9c0.7,0.6,1,1.4,1.1,2.4h-2.6c0-0.3-0.1-0.6-0.3-0.8s-0.5-0.3-0.8-0.3
				c-0.3,0-0.5,0.1-0.7,0.3c-0.2,0.2-0.3,0.4-0.3,0.7c0,0.3,0.1,0.6,0.4,0.8c0.3,0.2,0.8,0.4,1.4,0.6c0.6,0.2,1.2,0.5,1.5,0.7
				s0.7,0.5,1,0.9s0.4,0.9,0.4,1.6c0,0.6-0.1,1.2-0.4,1.7c-0.3,0.5-0.7,0.9-1.2,1.2s-1.2,0.4-1.9,0.4
				C166.3,49.8,165.7,49.7,165.1,49.4z"/>
			<path class="st2" d="M179.8,41.1v8.6h-2.4v-1.2c-0.2,0.4-0.6,0.7-1,0.9s-0.9,0.3-1.4,0.3c-0.6,0-1.1-0.1-1.6-0.4
				s-0.8-0.7-1.1-1.3s-0.4-1.2-0.4-2v-5h2.4v4.7c0,0.6,0.1,1,0.4,1.3c0.3,0.3,0.6,0.5,1.1,0.5c0.5,0,0.8-0.2,1.1-0.5
				c0.3-0.3,0.4-0.8,0.4-1.3v-4.7H179.8z"/>
			<path class="st2" d="M184.9,41.4c0.4-0.2,0.9-0.4,1.4-0.4c0.6,0,1.2,0.2,1.8,0.5c0.5,0.4,0.9,0.9,1.2,1.5
				c0.3,0.7,0.5,1.4,0.5,2.3s-0.2,1.7-0.5,2.3c-0.3,0.7-0.7,1.2-1.2,1.6c-0.5,0.4-1.1,0.5-1.8,0.5c-0.6,0-1-0.1-1.4-0.4
				c-0.4-0.2-0.7-0.6-1-1v1.2h-2.4V38.3h2.4v4C184.1,42,184.5,41.6,184.9,41.4z M186.8,43.9c-0.3-0.4-0.7-0.6-1.2-0.6
				c-0.5,0-0.9,0.2-1.2,0.6c-0.3,0.4-0.5,0.9-0.5,1.6s0.2,1.2,0.5,1.6c0.3,0.4,0.7,0.6,1.2,0.6c0.5,0,0.9-0.2,1.2-0.6
				s0.5-0.9,0.5-1.6S187.2,44.2,186.8,43.9z"/>
			<path class="st2" d="M203.3,42c0.6,0.6,0.9,1.5,0.9,2.7v5h-2.4v-4.7c0-0.6-0.1-1-0.4-1.3c-0.3-0.3-0.6-0.5-1.1-0.5
				s-0.8,0.2-1.1,0.5c-0.3,0.3-0.4,0.7-0.4,1.3v4.7h-2.4v-4.7c0-0.6-0.1-1-0.4-1.3c-0.3-0.3-0.6-0.5-1.1-0.5c-0.5,0-0.8,0.2-1.1,0.5
				c-0.3,0.3-0.4,0.7-0.4,1.3v4.7H191v-8.6h2.4v1.1c0.2-0.4,0.6-0.6,1-0.9s0.8-0.3,1.3-0.3c0.6,0,1.1,0.1,1.6,0.4s0.8,0.7,1.1,1.2
				c0.3-0.5,0.6-0.9,1.1-1.2c0.5-0.3,1-0.4,1.5-0.4C202,41,202.7,41.4,203.3,42z"/>
			<path class="st2" d="M205.8,43.1c0.3-0.7,0.7-1.2,1.2-1.5c0.5-0.4,1.1-0.5,1.8-0.5c0.6,0,1,0.1,1.4,0.4s0.7,0.6,1,1v-1.2h2.4v8.6
				h-2.4v-1.2c-0.2,0.4-0.6,0.7-1,1s-0.9,0.4-1.4,0.4c-0.6,0-1.2-0.2-1.7-0.5c-0.5-0.4-0.9-0.9-1.2-1.6c-0.3-0.7-0.5-1.4-0.5-2.3
				S205.5,43.8,205.8,43.1z M210.7,43.9c-0.3-0.4-0.7-0.6-1.2-0.6c-0.5,0-0.9,0.2-1.2,0.6s-0.5,0.9-0.5,1.5s0.2,1.2,0.5,1.6
				s0.7,0.6,1.2,0.6c0.5,0,0.9-0.2,1.2-0.6s0.5-0.9,0.5-1.6S211.1,44.3,210.7,43.9z"/>
			<path class="st2" d="M218.8,41.5c0.4-0.3,0.9-0.4,1.4-0.4v2.8h-0.7c-0.6,0-1,0.1-1.3,0.4c-0.3,0.3-0.4,0.8-0.4,1.5v4h-2.4v-8.6
				h2.4v1.4C218,42.1,218.4,41.7,218.8,41.5z"/>
			<path class="st2" d="M221.5,39.8c-0.3-0.3-0.4-0.6-0.4-1c0-0.4,0.1-0.8,0.4-1c0.3-0.3,0.6-0.4,1-0.4c0.4,0,0.7,0.1,1,0.4
				s0.4,0.6,0.4,1c0,0.4-0.1,0.7-0.4,1c-0.3,0.3-0.6,0.4-1,0.4C222.1,40.2,221.8,40.1,221.5,39.8z M223.7,41.1v8.6h-2.4v-8.6H223.7z
				"/>
			<path class="st2" d="M232.4,42c0.5,0.7,0.8,1.5,0.8,2.7v5h-2.4v-4.7c0-0.6-0.1-1-0.4-1.3c-0.3-0.3-0.6-0.5-1.1-0.5
				s-0.8,0.2-1.1,0.5c-0.3,0.3-0.4,0.8-0.4,1.3v4.7h-2.4v-8.6h2.4v1.1c0.2-0.4,0.6-0.7,1-0.9c0.4-0.2,0.9-0.3,1.4-0.3
				C231.1,41,231.9,41.4,232.4,42z"/>
			<path class="st2" d="M242.2,46.1h-5.4c0,0.5,0.2,0.9,0.5,1.2c0.3,0.3,0.6,0.4,1,0.4c0.6,0,1-0.3,1.2-0.8h2.5
				c-0.1,0.6-0.4,1.1-0.7,1.5s-0.8,0.8-1.3,1.1c-0.5,0.3-1.1,0.4-1.7,0.4c-0.8,0-1.4-0.2-2-0.5c-0.6-0.4-1.1-0.9-1.4-1.5
				c-0.3-0.7-0.5-1.4-0.5-2.3c0-0.9,0.2-1.7,0.5-2.3c0.3-0.7,0.8-1.2,1.4-1.5c0.6-0.4,1.3-0.5,2.1-0.5c0.8,0,1.4,0.2,2,0.5
				s1,0.8,1.4,1.5c0.3,0.6,0.5,1.4,0.5,2.3C242.3,45.5,242.3,45.8,242.2,46.1z M239.8,44.6c0-0.5-0.1-0.8-0.4-1.1
				c-0.3-0.3-0.6-0.4-1-0.4c-0.4,0-0.7,0.1-1,0.4s-0.4,0.6-0.5,1.1H239.8z"/>
			<path class="st2" d="M246.7,41.5c0.4-0.8,1-1.5,1.8-2c0.8-0.5,1.6-0.7,2.6-0.7c1.2,0,2.2,0.3,3,1s1.4,1.6,1.7,2.8h-2.6
				c-0.2-0.5-0.5-0.8-0.8-1c-0.4-0.2-0.8-0.4-1.2-0.4c-0.7,0-1.3,0.3-1.8,0.8c-0.5,0.6-0.7,1.3-0.7,2.3s0.2,1.7,0.7,2.3
				s1.1,0.8,1.8,0.8c0.5,0,0.9-0.1,1.2-0.4s0.6-0.6,0.8-1h2.6c-0.3,1.2-0.8,2.1-1.7,2.8c-0.8,0.7-1.8,1-3,1c-1,0-1.8-0.2-2.6-0.7
				c-0.8-0.5-1.3-1.1-1.8-1.9c-0.4-0.8-0.6-1.8-0.6-2.8S246.3,42.3,246.7,41.5z"/>
			<path class="st2" d="M257.1,43.1c0.3-0.7,0.7-1.2,1.2-1.5c0.5-0.4,1.1-0.5,1.8-0.5c0.6,0,1,0.1,1.4,0.4s0.7,0.6,1,1v-1.2h2.4v8.6
				h-2.4v-1.2c-0.2,0.4-0.6,0.7-1,1s-0.9,0.4-1.4,0.4c-0.6,0-1.2-0.2-1.7-0.5c-0.5-0.4-0.9-0.9-1.2-1.6c-0.3-0.7-0.5-1.4-0.5-2.3
				S256.8,43.8,257.1,43.1z M262,43.9c-0.3-0.4-0.7-0.6-1.2-0.6c-0.5,0-0.9,0.2-1.2,0.6s-0.5,0.9-0.5,1.5s0.2,1.2,0.5,1.6
				s0.7,0.6,1.2,0.6c0.5,0,0.9-0.2,1.2-0.6s0.5-0.9,0.5-1.6S262.4,44.3,262,43.9z"/>
			<path class="st2" d="M270,41.4c0.4-0.2,0.9-0.4,1.4-0.4c0.6,0,1.2,0.2,1.8,0.5c0.5,0.4,0.9,0.9,1.2,1.5c0.3,0.7,0.5,1.4,0.5,2.3
				s-0.2,1.7-0.5,2.3c-0.3,0.7-0.7,1.2-1.2,1.6c-0.5,0.4-1.1,0.5-1.8,0.5c-0.6,0-1-0.1-1.4-0.4c-0.4-0.2-0.7-0.6-1-1v1.2h-2.4V38.3
				h2.4v4C269.3,42,269.6,41.6,270,41.4z M272,43.9c-0.3-0.4-0.7-0.6-1.2-0.6c-0.5,0-0.9,0.2-1.2,0.6c-0.3,0.4-0.5,0.9-0.5,1.6
				s0.2,1.2,0.5,1.6c0.3,0.4,0.7,0.6,1.2,0.6c0.5,0,0.9-0.2,1.2-0.6s0.5-0.9,0.5-1.6S272.3,44.2,272,43.9z"/>
			<path class="st2" d="M278.6,38.3v11.4h-2.4V38.3H278.6z"/>
			<path class="st2" d="M287.6,46.1h-5.4c0,0.5,0.2,0.9,0.5,1.2c0.3,0.3,0.6,0.4,1,0.4c0.6,0,1-0.3,1.2-0.8h2.5
				c-0.1,0.6-0.4,1.1-0.7,1.5s-0.8,0.8-1.3,1.1c-0.5,0.3-1.1,0.4-1.7,0.4c-0.8,0-1.4-0.2-2-0.5c-0.6-0.4-1.1-0.9-1.4-1.5
				c-0.3-0.7-0.5-1.4-0.5-2.3c0-0.9,0.2-1.7,0.5-2.3c0.3-0.7,0.8-1.2,1.4-1.5c0.6-0.4,1.3-0.5,2.1-0.5c0.8,0,1.4,0.2,2,0.5
				s1,0.8,1.4,1.5c0.3,0.6,0.5,1.4,0.5,2.3C287.7,45.5,287.6,45.8,287.6,46.1z M285.2,44.6c0-0.5-0.1-0.8-0.4-1.1
				c-0.3-0.3-0.6-0.4-1-0.4c-0.4,0-0.7,0.1-1,0.4s-0.4,0.6-0.5,1.1H285.2z"/>
			<path class="st2" d="M292.1,41.5c0.4-0.8,1-1.5,1.8-2c0.8-0.5,1.6-0.7,2.6-0.7c1.2,0,2.2,0.3,3,1s1.4,1.6,1.7,2.8h-2.6
				c-0.2-0.5-0.5-0.8-0.8-1c-0.4-0.2-0.8-0.4-1.2-0.4c-0.7,0-1.3,0.3-1.8,0.8c-0.5,0.6-0.7,1.3-0.7,2.3s0.2,1.7,0.7,2.3
				s1.1,0.8,1.8,0.8c0.5,0,0.9-0.1,1.2-0.4s0.6-0.6,0.8-1h2.6c-0.3,1.2-0.8,2.1-1.7,2.8c-0.8,0.7-1.8,1-3,1c-1,0-1.8-0.2-2.6-0.7
				c-0.8-0.5-1.3-1.1-1.8-1.9c-0.4-0.8-0.6-1.8-0.6-2.8S291.7,42.3,292.1,41.5z"/>
			<path class="st2" d="M304,49.3c-0.6-0.4-1.1-0.9-1.4-1.5c-0.4-0.7-0.5-1.4-0.5-2.3c0-0.9,0.2-1.7,0.5-2.3s0.8-1.2,1.5-1.5
				c0.6-0.4,1.3-0.5,2.1-0.5c0.8,0,1.5,0.2,2.1,0.5c0.6,0.4,1.1,0.9,1.5,1.5s0.5,1.4,0.5,2.3c0,0.9-0.2,1.7-0.5,2.3
				s-0.8,1.2-1.5,1.5c-0.6,0.4-1.3,0.5-2.1,0.5C305.3,49.8,304.6,49.7,304,49.3z M307.3,47c0.3-0.4,0.5-0.9,0.5-1.6
				c0-0.7-0.2-1.2-0.5-1.6s-0.7-0.6-1.2-0.6c-0.5,0-0.9,0.2-1.2,0.5c-0.3,0.4-0.5,0.9-0.5,1.6c0,0.7,0.2,1.2,0.5,1.6
				c0.3,0.4,0.7,0.6,1.1,0.6S306.9,47.4,307.3,47z"/>
			<path class="st2" d="M323.7,42c0.6,0.6,0.9,1.5,0.9,2.7v5h-2.4v-4.7c0-0.6-0.1-1-0.4-1.3c-0.3-0.3-0.6-0.5-1.1-0.5
				s-0.8,0.2-1.1,0.5c-0.3,0.3-0.4,0.7-0.4,1.3v4.7h-2.4v-4.7c0-0.6-0.1-1-0.4-1.3c-0.3-0.3-0.6-0.5-1.1-0.5c-0.5,0-0.8,0.2-1.1,0.5
				c-0.3,0.3-0.4,0.7-0.4,1.3v4.7h-2.4v-8.6h2.4v1.1c0.2-0.4,0.6-0.6,1-0.9s0.8-0.3,1.3-0.3c0.6,0,1.1,0.1,1.6,0.4s0.8,0.7,1.1,1.2
				c0.3-0.5,0.6-0.9,1.1-1.2c0.5-0.3,1-0.4,1.5-0.4C322.4,41,323.2,41.4,323.7,42z"/>
			<path class="st2" d="M329.6,41.4c0.4-0.2,0.9-0.4,1.4-0.4c0.6,0,1.2,0.2,1.8,0.5c0.5,0.4,0.9,0.9,1.2,1.5
				c0.3,0.7,0.5,1.4,0.5,2.3s-0.2,1.7-0.5,2.3c-0.3,0.7-0.7,1.2-1.2,1.6c-0.5,0.4-1.1,0.5-1.8,0.5c-0.5,0-1-0.1-1.4-0.4
				s-0.7-0.6-1-1v5.3h-2.4V41.1h2.4v1.2C328.9,42,329.2,41.6,329.6,41.4z M331.6,43.9c-0.3-0.4-0.7-0.6-1.2-0.6
				c-0.5,0-0.9,0.2-1.2,0.6c-0.3,0.4-0.5,0.9-0.5,1.6s0.2,1.2,0.5,1.6c0.3,0.4,0.7,0.6,1.2,0.6c0.5,0,0.9-0.2,1.2-0.6
				s0.5-0.9,0.5-1.6S331.9,44.2,331.6,43.9z"/>
			<path class="st2" d="M335.8,43.1c0.3-0.7,0.7-1.2,1.2-1.5c0.5-0.4,1.1-0.5,1.8-0.5c0.6,0,1,0.1,1.4,0.4s0.7,0.6,1,1v-1.2h2.4v8.6
				h-2.4v-1.2c-0.2,0.4-0.6,0.7-1,1s-0.9,0.4-1.4,0.4c-0.6,0-1.2-0.2-1.7-0.5c-0.5-0.4-0.9-0.9-1.2-1.6c-0.3-0.7-0.5-1.4-0.5-2.3
				S335.5,43.8,335.8,43.1z M340.7,43.9c-0.3-0.4-0.7-0.6-1.2-0.6c-0.5,0-0.9,0.2-1.2,0.6s-0.5,0.9-0.5,1.5s0.2,1.2,0.5,1.6
				s0.7,0.6,1.2,0.6c0.5,0,0.9-0.2,1.2-0.6s0.5-0.9,0.5-1.6S341,44.3,340.7,43.9z"/>
			<path class="st2" d="M352.2,42c0.5,0.7,0.8,1.5,0.8,2.7v5h-2.4v-4.7c0-0.6-0.1-1-0.4-1.3c-0.3-0.3-0.6-0.5-1.1-0.5
				s-0.8,0.2-1.1,0.5c-0.3,0.3-0.4,0.8-0.4,1.3v4.7h-2.4v-8.6h2.4v1.1c0.2-0.4,0.6-0.7,1-0.9c0.4-0.2,0.9-0.3,1.4-0.3
				C351,41,351.7,41.4,352.2,42z"/>
			<path class="st2" d="M362.7,41.1l-4.9,12.7h-2.6l1.8-4.4l-3.2-8.3h2.7l1.8,5.4l1.8-5.4H362.7z"/>
			<path class="st2" d="M368.9,47.7h3.1v2h-5.5V38.9h2.4V47.7z"/>
			<path class="st2" d="M373.4,39.8c-0.3-0.3-0.4-0.6-0.4-1c0-0.4,0.1-0.8,0.4-1c0.3-0.3,0.6-0.4,1-0.4c0.4,0,0.7,0.1,1,0.4
				s0.4,0.6,0.4,1c0,0.4-0.1,0.7-0.4,1c-0.3,0.3-0.6,0.4-1,0.4C374,40.2,373.7,40.1,373.4,39.8z M375.6,41.1v8.6h-2.4v-8.6H375.6z"
				/>
			<path class="st2" d="M389.6,42c0.6,0.6,0.9,1.5,0.9,2.7v5h-2.4v-4.7c0-0.6-0.1-1-0.4-1.3c-0.3-0.3-0.6-0.5-1.1-0.5
				s-0.8,0.2-1.1,0.5c-0.3,0.3-0.4,0.7-0.4,1.3v4.7h-2.4v-4.7c0-0.6-0.1-1-0.4-1.3c-0.3-0.3-0.6-0.5-1.1-0.5c-0.5,0-0.8,0.2-1.1,0.5
				c-0.3,0.3-0.4,0.7-0.4,1.3v4.7h-2.4v-8.6h2.4v1.1c0.2-0.4,0.6-0.6,1-0.9s0.8-0.3,1.3-0.3c0.6,0,1.1,0.1,1.6,0.4s0.8,0.7,1.1,1.2
				c0.3-0.5,0.6-0.9,1.1-1.2c0.5-0.3,1-0.4,1.5-0.4C388.3,41,389,41.4,389.6,42z"/>
			<path class="st2" d="M392.3,39.8c-0.3-0.3-0.4-0.6-0.4-1c0-0.4,0.1-0.8,0.4-1c0.3-0.3,0.6-0.4,1-0.4c0.4,0,0.7,0.1,1,0.4
				s0.4,0.6,0.4,1c0,0.4-0.1,0.7-0.4,1c-0.3,0.3-0.6,0.4-1,0.4C392.9,40.2,392.6,40.1,392.3,39.8z M394.6,41.1v8.6h-2.4v-8.6H394.6z
				"/>
			<path class="st2" d="M400.6,47.5v2.2h-1.2c-0.9,0-1.5-0.2-2-0.7c-0.5-0.5-0.7-1.2-0.7-2.3v-3.4h-1v-2.2h1V39h2.4v2.1h1.6v2.2
				h-1.6v3.4c0,0.3,0.1,0.4,0.2,0.6c0.1,0.1,0.3,0.2,0.6,0.2H400.6z"/>
			<path class="st2" d="M409.3,46.1h-5.4c0,0.5,0.2,0.9,0.5,1.2c0.3,0.3,0.6,0.4,1,0.4c0.6,0,1-0.3,1.2-0.8h2.5
				c-0.1,0.6-0.4,1.1-0.7,1.5s-0.8,0.8-1.3,1.1c-0.5,0.3-1.1,0.4-1.7,0.4c-0.8,0-1.4-0.2-2-0.5c-0.6-0.4-1.1-0.9-1.4-1.5
				c-0.3-0.7-0.5-1.4-0.5-2.3c0-0.9,0.2-1.7,0.5-2.3c0.3-0.7,0.8-1.2,1.4-1.5c0.6-0.4,1.3-0.5,2.1-0.5c0.8,0,1.4,0.2,2,0.5
				s1,0.8,1.4,1.5c0.3,0.6,0.5,1.4,0.5,2.3C409.3,45.5,409.3,45.8,409.3,46.1z M406.9,44.6c0-0.5-0.1-0.8-0.4-1.1
				c-0.3-0.3-0.6-0.4-1-0.4c-0.4,0-0.7,0.1-1,0.4s-0.4,0.6-0.5,1.1H406.9z"/>
			<path class="st2" d="M410.6,43.1c0.3-0.7,0.7-1.2,1.2-1.5c0.5-0.4,1.1-0.5,1.8-0.5c0.5,0,1,0.1,1.4,0.4s0.8,0.6,1,1v-4h2.4v11.4
				H416v-1.2c-0.2,0.4-0.5,0.7-1,1s-0.9,0.4-1.4,0.4c-0.6,0-1.2-0.2-1.8-0.5c-0.5-0.4-0.9-0.9-1.2-1.6c-0.3-0.7-0.5-1.4-0.5-2.3
				S410.3,43.8,410.6,43.1z M415.5,43.9c-0.3-0.4-0.7-0.6-1.2-0.6c-0.5,0-0.9,0.2-1.2,0.6s-0.5,0.9-0.5,1.5s0.2,1.2,0.5,1.6
				s0.7,0.6,1.2,0.6c0.5,0,0.9-0.2,1.2-0.6s0.5-0.9,0.5-1.6S415.8,44.3,415.5,43.9z"/>
			<path class="st2" d="M424.2,49.2c-0.5-1.5-0.8-3.1-0.8-4.9c0-1.8,0.3-3.4,0.8-4.9c0.5-1.5,1.3-2.8,2.2-3.7h2.4v0.2
				c-1,1.1-1.7,2.3-2.3,3.8c-0.5,1.5-0.8,3-0.8,4.6c0,1.6,0.3,3.1,0.8,4.5c0.5,1.5,1.2,2.7,2.2,3.8v0.2h-2.4
				C425.4,52,424.7,50.8,424.2,49.2z"/>
			<path class="st2" d="M437.1,45.1c0.3,0.5,0.5,1,0.5,1.7c0,0.9-0.3,1.6-0.9,2.1c-0.6,0.5-1.4,0.8-2.4,0.8h-4.6V38.9h4.4
				c1,0,1.8,0.3,2.3,0.8c0.6,0.5,0.8,1.2,0.8,2c0,0.6-0.2,1.2-0.5,1.6c-0.3,0.4-0.7,0.7-1.2,0.9C436.3,44.3,436.7,44.6,437.1,45.1z
				 M432.1,43.3h1.6c0.4,0,0.7-0.1,0.9-0.3c0.2-0.2,0.3-0.5,0.3-0.8s-0.1-0.7-0.3-0.8c-0.2-0.2-0.5-0.3-0.9-0.3h-1.6V43.3z
				 M434.8,47.3c0.2-0.2,0.3-0.5,0.3-0.9c0-0.4-0.1-0.7-0.3-0.9s-0.5-0.3-0.9-0.3h-1.7v2.4h1.8C434.3,47.6,434.6,47.5,434.8,47.3z"
				/>
			<path class="st2" d="M440.6,49.4c-0.6-0.3-1-0.6-1.4-1.1c-0.3-0.5-0.5-1.1-0.5-1.8h2.5c0,0.4,0.2,0.7,0.4,0.9
				c0.2,0.2,0.5,0.3,0.8,0.3c0.4,0,0.6-0.1,0.8-0.3c0.2-0.2,0.3-0.4,0.3-0.7c0-0.3-0.1-0.5-0.2-0.7c-0.2-0.2-0.4-0.3-0.6-0.4
				c-0.2-0.1-0.6-0.2-1-0.4c-0.6-0.2-1.2-0.4-1.6-0.6c-0.4-0.2-0.7-0.5-1-1s-0.4-1-0.4-1.6c0-1,0.3-1.8,1-2.4
				c0.7-0.6,1.5-0.9,2.6-0.9c1.1,0,2,0.3,2.6,0.9c0.7,0.6,1,1.4,1.1,2.4h-2.6c0-0.3-0.1-0.6-0.3-0.8s-0.5-0.3-0.8-0.3
				c-0.3,0-0.5,0.1-0.7,0.3c-0.2,0.2-0.3,0.4-0.3,0.7c0,0.3,0.1,0.6,0.4,0.8c0.3,0.2,0.8,0.4,1.4,0.6c0.6,0.2,1.2,0.5,1.5,0.7
				s0.7,0.5,1,0.9s0.4,0.9,0.4,1.6c0,0.6-0.1,1.2-0.4,1.7c-0.3,0.5-0.7,0.9-1.2,1.2s-1.2,0.4-1.9,0.4
				C441.8,49.8,441.2,49.7,440.6,49.4z"/>
			<path class="st2" d="M447.8,41.5c0.4-0.8,1-1.5,1.8-2c0.8-0.5,1.6-0.7,2.6-0.7c1.2,0,2.2,0.3,3,1s1.4,1.6,1.7,2.8h-2.6
				c-0.2-0.5-0.5-0.8-0.8-1c-0.4-0.2-0.8-0.4-1.2-0.4c-0.7,0-1.3,0.3-1.8,0.8c-0.5,0.6-0.7,1.3-0.7,2.3s0.2,1.7,0.7,2.3
				s1.1,0.8,1.8,0.8c0.5,0,0.9-0.1,1.2-0.4s0.6-0.6,0.8-1h2.6c-0.3,1.2-0.8,2.1-1.7,2.8c-0.8,0.7-1.8,1-3,1c-1,0-1.8-0.2-2.6-0.7
				c-0.8-0.5-1.3-1.1-1.8-1.9c-0.4-0.8-0.6-1.8-0.6-2.8S447.4,42.3,447.8,41.5z"/>
			<path class="st2" d="M458.5,41.5c0.4-0.8,1-1.5,1.8-2c0.8-0.5,1.6-0.7,2.6-0.7c1.2,0,2.2,0.3,3,1s1.4,1.6,1.7,2.8h-2.6
				c-0.2-0.5-0.5-0.8-0.8-1c-0.4-0.2-0.8-0.4-1.2-0.4c-0.7,0-1.3,0.3-1.8,0.8c-0.5,0.6-0.7,1.3-0.7,2.3s0.2,1.7,0.7,2.3
				s1.1,0.8,1.8,0.8c0.5,0,0.9-0.1,1.2-0.4s0.6-0.6,0.8-1h2.6c-0.3,1.2-0.8,2.1-1.7,2.8c-0.8,0.7-1.8,1-3,1c-1,0-1.8-0.2-2.6-0.7
				c-0.8-0.5-1.3-1.1-1.8-1.9c-0.4-0.8-0.6-1.8-0.6-2.8S458,42.3,458.5,41.5z"/>
			<path class="st2" d="M471.3,47.7h3.1v2h-5.5V38.9h2.4V47.7z"/>
			<path class="st2" d="M474.9,52.9v-0.2c0.9-1.1,1.7-2.3,2.2-3.8c0.5-1.5,0.8-3,0.8-4.5c0-1.6-0.3-3.1-0.8-4.6s-1.3-2.8-2.3-3.8
				v-0.2h2.4c1,1,1.7,2.2,2.2,3.7c0.5,1.5,0.8,3.2,0.8,4.9c0,1.7-0.3,3.4-0.8,4.9c-0.5,1.5-1.2,2.7-2.1,3.7H474.9z"/>
		</g>
		<line class="st3" x1="73" y1="32.8" x2="481" y2="32.8"/>
		<path class="st4" d="M54.6,32.2c0,0-0.2,0.4-0.2,0.5C53.8,33.7,53,34.5,52,35c-0.3,0.2-0.6,0.4-0.9,0.6c-0.1-0.1-0.2-0.3-0.3-0.5
			c-0.1-0.3-0.4-0.6-0.7-0.8c-0.2-0.2-0.3-0.3-0.4-0.3s-0.5-0.3-0.9-0.8c-0.2-0.3-0.6-0.4-0.9-0.4v0.4c0.1,0.3,0.1,0.5,0.2,0.8
			c0.1,0.3,0.3,0.6,0.6,0.8c0.4,0.5,0.7,1.1,1,1.7c0.2,0.3,0.8,1,0.8,1c0.1,0,0.2-0.1,0.3-0.1c0.2-0.1,0.4-0.1,0.6-0.2
			c0.1,0,0.5-0.2,0.7-0.3c0.3-0.2,0.7-0.3,1-0.4c0.3-0.1,0.2,0,0.3-0.2s0-0.3,0.1-0.6s0.3-0.3,0.6-0.5s0.3-0.2,0.3-0.4
			c0.1-0.5,0.2-1,0.2-1.5C54.6,33,54.6,32.2,54.6,32.2z"/>
		<path class="st4" d="M48.1,7.3c-5.9-5.8-11.4-6.7-11.8-6.8s-0.5,0.3-0.7,0.4c-0.1,0.1-0.3,0-0.4-0.1c0,0,0,0,0,0
			c-0.1-0.1-0.6,0-0.9,0S33.7,1,33.3,1c-0.3,0-0.6,0-0.9,0.1c-0.6,0.1-0.6,0.3-0.5,0.3s0.4,0.2,0.3,0.3s-0.1,0-0.5,0.2
			S31.2,2.2,30.8,2s-0.7-0.3-0.9-0.1s0,0.2,0.2,0.5s0.4,0.5,0.6,0.5s0.2,0.2,0.3,0.4s-0.2,0.2-0.5,0.3s-0.1-0.3-0.2-0.6
			s-0.2-0.4-0.3-0.6s-0.4-0.2-0.8-0.4s-0.4,0-0.8,0.1s-0.1,0.2-0.1,0.4s0,0.2-0.2,0.2c-0.4,0-0.7,0-1.1,0.1
			c-0.5,0.1-0.3,0.2-0.4,0.2c-0.3,0.1-0.6,0.2-0.9,0.1c-0.6,0-0.7,0.2-1.3,0.2c-0.3,0-0.6,0.1-0.9,0.3c-0.4,0.2-0.3,0.3-0.8,0.3
			S22.6,4,22.5,3.8s-0.1,0.1-0.2,0.3s0,0.2-0.1,0.3c-0.1,0.1-0.3,0.2-0.5,0.2c-0.2,0.1,0.1,0-0.5,0.3s-0.4,0.5-0.5,0.6
			S20.2,5.6,20,5.6s-0.1-0.4,0-0.5s0.5,0,0.7,0s0.2-0.2,0.5-0.4s0.1-0.3,0.1-0.4S21,4.1,20.6,4.1C19.8,4,19,4,18.1,4.1
			c-0.8,0.1-1.6,0.3-2.3,0.7c-0.8,0.4-1.5,1-2.1,1.7c-0.6,0.7-1.1,1.4-1.4,2.3c-0.2,0.7,0.1,0.7,0.2,0.6c0.2-0.2,0.5-0.3,0.8-0.4
			c0.4-0.1,0.3,0.1,0.4,0.2s0,0.3,0.1,0.5S13.7,10.1,14,10c0.3-0.1,0.6-0.4,0.7-0.7c0.1-0.2,0.2-0.4,0.3-0.6
			c0.1-0.2,0.2-0.2,0.3-0.3s0.1-0.4,0.1-0.6s-0.1-0.4-0.1-0.7s0.2-0.2,0.4-0.4c0.1-0.1,0.3-0.2,0.5-0.2c0.2-0.1,0.2-0.1,0.5-0.4
			s0.3-0.1,0.2,0c-0.1,0.3-0.3,0.5-0.4,0.8c-0.2,0.2,0,0.1-0.2,0.3s0,0.5,0.1,0.6s0.2,0.1,0.5,0.1s-0.1,0.4-0.3,0.5
			s-0.2,0.1-0.4,0.3c-0.1,0.2-0.2,0.4-0.3,0.7c-0.1,0.2-0.3,0.4-0.6,0.4c-0.3,0-0.6,0.1-0.9,0.3c-0.3,0-0.7,0-1,0h-0.6
			c-0.3,0-0.3,0.2-0.6,0.6c-0.5,0.6-1.1,1.2-1.7,1.6c-0.8,0.6-0.8,0.8-0.9,0.9s0,0.2,0.1,0.4c0.1,0.2,0.1,0.5,0.3,0.7
			c0.1,0.3-0.2,0.4-0.3,0.7s-0.3,0.1-1,0.2s-0.7,0.6-0.8,1S7.7,17,7.7,17.4s-0.1,0.8,0.6,0.9s0.8-0.4,1-0.5c0.3-0.3,0.4-0.6,0.6-1
			c0.2-0.5,0.4-1,0.8-1.4c0.3-0.3,0.5-0.6,0.7-0.5s0.2,0,0.4-0.1c0.2-0.1,0.3-0.2,0.5-0.3c0.2-0.2,0.5,0.1,0.6,0.4
			c0.1,0.2,0.3,0.4,0.6,0.6c0.3,0.2,0.5,0.5,0.7,0.9c0.1,0.3,0,0.4-0.3,0.4s-0.4,0.1-0.4,0.2c0,0.1-0.1,0.3-0.1,0.4
			c0,0.1,0.2,0.2,0.3,0.3s0.3,0,0.3-0.2s-0.1-0.4-0.1-0.5s0.1-0.1,0.2-0.1s0.2,0,0.3-0.1c0.1-0.3,0.1-0.6,0.1-0.9
			c0-0.3-0.4-0.8-0.8-1.2s-0.3-0.4-0.2-0.7s0.4-0.1,0.6,0.1c0.4,0.3,0.7,0.6,1,0.9c0.3,0.4,0.1,0.4,0.2,0.9s0.4,0.8,0.5,1.3
			s0.3,0.3,0.3,0.1s0-0.6,0-1.1s0.1-0.8,0.3-0.9c0.3-0.1,0.6,0.2,0.7,0.5c0.1,0.5,0.3,0.9,0.5,1.3c0.3,0.4,0.5,0.2,0.8-0.1
			s0.5,0.1,0.6,0.4s0.4-0.1,0.8-0.5s0.5,0.2,0.5,0.5c0,0.4-0.1,0.8-0.2,1.2c-0.1,0.4-0.2,1-0.5,1.2s-0.5,0.1-0.8,0s-0.6,0.2-1,0.2
			c-0.3,0-0.5-0.1-0.8-0.2c-0.4,0-0.7-0.2-1-0.4c-0.4-0.3-0.5-0.2-0.5-0.2c-0.4,0-0.4,0.1-0.4,0.3c0,0.3-0.1,0.5-0.1,0.8
			c0,0.2-0.3,0.3-0.6,0.2S14,20,13.8,20s-0.2-0.1-0.3-0.3c-0.1-0.2-0.2-0.3-0.3-0.5c-0.1-0.2-0.4,0-0.7-0.1c-0.2,0-0.4-0.2-0.4-0.4
			c0-0.2,0.1-0.3,0.2-0.5s0.1-0.4,0.1-0.7s-0.3-0.1-0.5-0.1l-0.9,0.1c-0.4,0-0.7,0.2-0.9,0.5c-0.3,0.3-0.6,0.4-1,0.4
			c-0.3,0-0.8,0-0.9,0.2C8,19,7.9,19.2,7.8,19.5c-0.2,0.2-0.3,0.4-0.4,0.6c-0.1,0.4-0.3,0.8-0.4,1.1c-0.2,0.3-0.3,0.2-0.6,0.3
			s-0.2,0.2-0.2,0.3c-0.1,0.2-0.2,0.4-0.4,0.5c-0.2,0.2-0.4,0.1-0.4,1.6c-0.1,1.4,0,2.8,0.1,4.2c0.1,1,0.6,0.9,0.8,1.3
			s0.5,1,0.9,1.6s1,0.4,1.4,0.4c0.3,0,0.6,0.1,0.8,0.3c0.1,0,0.7-0.4,0.7-0.4c0.7-0.3,0.9,0.1,1.1,0.5c0.3,0.4,0.8,0.6,1.3,0.5
			c0.5,0,0.4,1.2,0.3,1.6c-0.1,0.4,0,0.9,0.3,1.3c0.7,0.7,1.2,1.6,1.4,2.5c0.3,1,0.4,2.1,0.4,3.1c0,0.4,0.7,1.3,0.9,1.8
			c0.2,0.5,0.3,1,0.5,1.5c0,0.3,0.2,0.7,0.5,0.8c0.4,0.3,0.5,1.1,0.8,1.6c0.2,0.3,0.5,0.6,0.9,0.7c0.2,0.1,1.6,0.4,1.8,0.4
			s0.7-0.8,0.9-1.1c0.3-0.5,0.7-0.9,1.1-1.3c0.3-0.3,0.2-1,0.2-1.5c-0.1-0.4,0.1-0.8,0.4-1.1c0.4-0.1,0.7-0.4,1-0.7
			c0.3-0.5,0.4-1.1,0.1-1.7c-0.4-0.7-0.7-1.4-0.9-2.2c0-0.3-0.1-1-0.1-1.1c0.2-0.4,0.4-0.7,0.7-1c0.8-0.9,1.5-1.8,2.2-2.8
			c0.5-0.7,0.9-1.6,1.1-2.5c0-0.8-0.4-0.6-0.6-0.5s-0.3,0.4-0.6,0.3s-1.5-0.2-2-0.3s-0.3-0.3-0.3-0.7s-0.1-0.4-0.7-0.8
			c-0.4-0.3-0.6-0.8-0.7-1.2c0-0.4-0.2-0.5-0.5-0.9c-0.4-0.4-0.6-0.8-0.7-1.3c-0.1-0.6-0.1-0.9-0.4-0.9S20,23.9,20,23.6
			s-0.1-0.6-0.6-1.4s-0.2-1.2-0.1-1.1s0.4,0.3,0.4,0.1s0.2-0.1,0.3,0c0.2,0.4,0.4,0.8,0.5,1.2c0.2,0.5,0.5,1,0.8,1.4
			c0.2,0.3,0.3,0.6,0.2,1c0,0.5,0.9,1.5,1.5,2.1s0.6,1.6,0.9,2.2c0.1,0.3,0.4,0.4,0.6,0.3c0.1,0,0.2-0.1,0.2-0.2
			c0.1-0.1,0.2,0,0.3-0.1c0.3-0.1,0.6-0.3,0.7-0.5c0.3-0.3,0.9-0.2,1-0.3c0.3-0.2,0.5-0.4,0.8-0.6c0.2-0.2,0.5-0.3,0.8-0.4
			c0.3,0,0.3-0.1,0.4-0.4s0.4-0.2,0.5-0.4c0.1-0.2,0.3-0.3,0.5-0.3c0.1,0,0.1-0.6,0.1-0.7s0.1-0.2,0.4-0.6c0.3-0.3,0.3-0.7,0.1-1.1
			c-0.3-0.2-0.5-0.3-0.8-0.4c-0.2-0.1-0.4-0.3-0.6-0.6c-0.2-0.3-0.5,0.1-0.6,0.2s-0.4,0.5-1.2,0.1s-1-1.4-1.2-1.8s-0.8-0.5-1-0.8
			s0.1-0.7,0.6-0.8s0.8,0.6,0.9,0.9c0.3,0.5,0.8,0.8,1.3,1.1c0.5,0.3,0.4,0.3,0.9-0.1s0.6-0.2,0.6-0.1c0.2,0.3,0.3,0.5,0.5,0.7
			c0.2,0.1,0.5,0.1,1.3,0.2c1,0.2,2.1,0.2,3.1,0c0.2,0.1,0.3,0.3,0.4,0.5c0.2,0.3,0.4,0.4,0.7,0.7c0.2,0.2,0.5,0.3,0.8,0.2
			c-0.1,0.1-0.1,0.3-0.1,0.4c0,0.1,0,0.3,0.1,0.4c0,0,0-0.1,0,0c0,0.3,0.3,0.5,0.6,0.5c0,0,0.1,0,0.1,0c0.4-0.1,0.4-0.6,0.4-0.9
			s0.3-0.4,0.3,0c0.1,0.3,0.2,0.6,0.3,0.8c0,0.5,0,1,0.1,1.5c0.2,0.8,0.5,1.5,0.9,2.2c0.3,0.5,0.3,0.9,0.5,1.3
			c0.2,0.4,0.4,0.8,0.4,1.2c0.2,0.6,0.4,0.8,0.4,0.7c0.5-0.1,1.1-1.2,1.3-2.1c0.1-0.7,0.1-1.4,0-2.2c0.2,0,0.4-0.1,0.5-0.2
			c0.5-0.4,0.9-0.9,1.3-1.4c0.5-0.7,0.9-0.7,1-1.1s0.3-0.1,0.5-0.3s0.5,0.1,0.7,0c0.2,0,0.4-0.1,0.4-0.3c0-0.2,0-0.4-0.1-0.6
			c-0.2-0.5,0.5,0.4,0.5,0.4l0.2,0.2c0.1,0.1,0.2,0.5,0.3,0.7s0.5-0.1,1,1c0.1,0.5,0.2,0.9,0.3,1.4c0.1,0.4,0.3,0,0.5-0.3
			c0.1-0.2,0.2-0.3,0.4-0.4c0.2,0.5,0.4,1,0.5,1.6c0.2,0.8,0.2,1.6,0.1,2.4c-0.1,0.6,0.1,0.7,0.2,0.9s0.3,0.5,0.3,0.7
			s0.2,0.7,0.2,0.7c0.1,0.6,0.9,1.1,0.9,1.1c0.2,0,0-0.9,0-1.3c-0.1-0.3-0.2-0.6-0.3-0.8c-0.1-0.3-0.3-0.5-0.6-0.5
			c-0.2-0.1-0.1-0.2-0.1-0.4c0-0.2-0.1-0.4-0.3-0.6c0-0.4,0-0.8,0.1-1.1c0-0.3,0.1-0.6,0.2-0.8c0.1-0.2,0.2-0.1,0.2,0
			s0.1,0.1,0.3,0.3c0.1,0.1,0.2,0.3,0.3,0.5c0.2,0.3,0.4,0.4,0.6,0.5c0.1,0.2,0.2,0.4,0.2,0.6c0,0.2,0.1,0.4,0.1,0.4
			s0.1-0.1,0.2-0.3s0.5-0.6,0.8-1s0.2,0.1,0.3-0.3c0.1-0.3,0.1-0.7,0-1c0-0.3-0.1-0.5-0.2-0.8c-0.2-0.3-0.4-0.6-0.7-0.8
			c-0.3-0.2-0.5-0.6-0.5-0.9c0-0.3,0-0.5,0.2-0.7s0.2-0.7,0.6-0.7c0.2,0,0.4,0.2,0.4,0.5c0,0,0,0,0,0c0,0.2,0.2-0.2,0.2-0.4
			s0.3-0.1,0.5-0.2c0.2-0.1,0.3-0.3,0.4-0.4c0.2-0.3,0.3-0.1,0.5-0.2s0.3,0,0.3-0.2s0.5-0.2,0.5-0.2C55.4,18.1,52.2,11.4,48.1,7.3z
			 M22,14.3c-0.2,0.2-0.2,0.3-0.5,0.3s-1,0.1-1.4,0.1s-0.4,0-0.4,0s0.1-0.5-0.1-0.5s-0.4,0-0.6,0.1s-0.1,0.4-0.3,0.4s-0.7,0.2-0.9,0
			s-0.3-0.1-0.3-0.3c0-0.2,0-0.5,0.1-0.7c0.2-0.2-0.1-0.1,0.2-0.5c0.2-0.2,0.3-0.4,0.5-0.5c0.2-0.1,0.5-0.5,0.7-0.4s0.5,0.3,0.5,0.5
			c0,0.1,0.1,0.2,0.1,0.3l0.2-0.2c0,0,0-0.2,0.3-0.4s0.5-0.5,0.6-0.4c0.1,0.1,0.1,0.3,0.1,0.5c0,0.2,0,0.4-0.2,0.4s-0.1,0.1-0.3,0.1
			l-0.4,0.1c0.1,0,0.2,0,0.4,0c0.1,0.1,0.4,0.2,0.4,0.2c0.2,0,0.4-0.1,0.6-0.1c0.2,0,0.6,0,0.7,0.2S22.1,14.1,22,14.3z M27.3,16.1
			c-0.5,0.2-1,0.2-1.5,0c-0.4-0.2-0.6-0.4-0.6-0.6c0-0.2,0-0.5,0.1-0.7c0.1-0.2,0.1-0.4,0.1-0.5C25.2,14.2,25,14,24.8,14
			c-0.4-0.1-0.4-0.1-0.5-0.5c-0.1-0.2-0.1-0.5-0.1-0.7c-0.1-0.3,0-0.5,0.2-0.7c0.3-0.3,0.2-0.2,0.4-0.4s0.2-0.2,0.5-0.3
			s0.4-0.2,0.7-0.1s0.5,0.2,0.7,0.4s0.4,0.3,0.1,0.3c-0.2,0-0.4,0-0.6,0c-0.2,0-0.5,0.1-0.5,0.4s0,0.5,0.2,0.7l0.4,0.3
			c0.2,0.1,0,0.1,0.2,0.2s0.3-0.1,0.4,0.1c0.1,0.1,0.1,0.3,0.1,0.4c0,0.1,0,0.2-0.2,0.3s0,0.3,0.2,0.6c0.1,0.3,0.3,0.5,0.3,0.8
			C27.4,15.9,27.5,16,27.3,16.1L27.3,16.1z"/>
		<path class="st4" d="M41.5,31.4c-0.2,0-0.2,0.6-0.2,1c0,0.3,0,0.5,0.1,0.8c0.1,0.3,0.3,0.4,0.4,0.4s0.6-0.7,0.5-1.2
			S41.8,31.4,41.5,31.4z"/>
		<path class="st4" d="M26.9,41.8c-0.1,0.1-0.3,0.3-0.5,0.3c-0.2,0.1-0.4,0.2-0.7,0.2c-0.4,0.1-0.4,0.5-0.4,0.8s0.1,0.2,0.2,0.3
			s0.1,0.3-0.1,0.6c-0.1,0.2-0.2,0.4-0.1,0.7c0,0.3,0.2,0.4,0.4,0.6c0.2,0.2,0.4,0.2,0.6,0.1c0.2-0.1,0.4-0.5,0.5-0.8
			c0.1-0.3,0.2-0.5,0.4-0.8c0.1-0.2,0.2-0.4,0.1-0.6c0-0.2,0-0.5,0.1-0.7c0.1-0.1,0.2-0.3,0.3-0.4c0-0.2,0-0.4-0.1-0.6
			C27.4,41.6,27.2,41.7,26.9,41.8z"/>
		
			<radialGradient id="SVGID_1_" cx="20.5483" cy="36.2336" r="34.37" gradientTransform="matrix(0.94 0 0 -0.94 24.77 57.89)" gradientUnits="userSpaceOnUse">
			<stop  offset="0" style="stop-color:#B2D235"/>
			<stop  offset="0.11" style="stop-color:#AAD037"/>
			<stop  offset="0.28" style="stop-color:#95C93B"/>
			<stop  offset="0.48" style="stop-color:#73BF42"/>
			<stop  offset="0.56" style="stop-color:#62BA46"/>
			<stop  offset="0.6" style="stop-color:#4FB648"/>
			<stop  offset="0.66" style="stop-color:#33B04B"/>
			<stop  offset="0.73" style="stop-color:#1CAB4E"/>
			<stop  offset="0.8" style="stop-color:#0CA850"/>
			<stop  offset="0.89" style="stop-color:#03A651"/>
			<stop  offset="1" style="stop-color:#00A551"/>
		</radialGradient>
		<path class="st5" d="M54.6,31.6c0,0-0.2,0.4-0.2,0.5c-0.6,0.9-1.4,1.7-2.3,2.3C51.2,35,51.1,35,51.1,35c-0.1-0.1-0.2-0.3-0.3-0.5
			c-0.1-0.3-0.4-0.6-0.7-0.8c-0.2-0.2-0.3-0.3-0.4-0.3s-0.5-0.3-0.9-0.8c-0.2-0.3-0.6-0.4-0.9-0.4v0.4c0.1,0.3,0.1,0.5,0.2,0.8
			c0.1,0.3,0.3,0.6,0.6,0.8c0.4,0.5,0.7,1.1,1,1.7c0.2,0.3,0.8,1,0.8,1c0.1,0,0.2-0.1,0.3-0.1c0.2-0.1,0.4-0.1,0.6-0.2
			c0.1-0.1,0.5-0.2,0.7-0.3c0.3-0.2,0.7-0.3,1-0.4c0.3-0.1,0.2,0,0.3-0.2s0-0.3,0.1-0.6s0.3-0.3,0.6-0.5s0.3-0.2,0.3-0.4
			c0.1-0.5,0.2-1,0.2-1.5C54.6,32.4,54.6,31.6,54.6,31.6z"/>
		
			<radialGradient id="SVGID_00000150806406454588071010000007621478307531980442_" cx="31.91" cy="38.33" r="34.38" gradientTransform="matrix(1 0 0 -1 0 62)" gradientUnits="userSpaceOnUse">
			<stop  offset="0" style="stop-color:#B2D235"/>
			<stop  offset="0.11" style="stop-color:#AAD037"/>
			<stop  offset="0.28" style="stop-color:#95C93B"/>
			<stop  offset="0.48" style="stop-color:#73BF42"/>
			<stop  offset="0.56" style="stop-color:#62BA46"/>
			<stop  offset="0.6" style="stop-color:#4FB648"/>
			<stop  offset="0.66" style="stop-color:#33B04B"/>
			<stop  offset="0.73" style="stop-color:#1CAB4E"/>
			<stop  offset="0.8" style="stop-color:#0CA850"/>
			<stop  offset="0.89" style="stop-color:#03A651"/>
			<stop  offset="1" style="stop-color:#00A551"/>
		</radialGradient>
		<path style="fill:url(#SVGID_00000150806406454588071010000007621478307531980442_);" d="M48.1,6.8C42.2,1,36.7,0,36.3,0
			s-0.5,0.3-0.7,0.4c-0.1,0.1-0.3,0-0.4-0.1c0,0,0,0,0,0c-0.1-0.1-0.6,0-0.9,0s-0.6,0.2-1,0.2c-0.3,0-0.6,0-0.9,0.1
			c-0.6,0.2-0.6,0.3-0.5,0.3s0.4,0.2,0.3,0.3s-0.1,0-0.5,0.2s-0.4,0.2-0.8,0.1s-0.7-0.3-0.9-0.1s0,0.2,0.2,0.5s0.4,0.5,0.6,0.5
			s0.2,0.2,0.3,0.4S30.9,3,30.6,3.1s-0.1-0.3-0.2-0.6s-0.2-0.4-0.3-0.6s-0.4-0.2-0.8-0.4s-0.4,0-0.8,0.1S28.4,1.8,28.4,2
			s0,0.2-0.2,0.2c-0.4,0-0.7,0-1.1,0.1c-0.5,0.1-0.3,0.2-0.4,0.2c-0.3,0.1-0.6,0.2-0.9,0.1c-0.6,0-0.7,0.2-1.3,0.2
			c-0.3,0-0.6,0.1-0.9,0.3c-0.4,0.2-0.3,0.2-0.8,0.3s-0.2-0.1-0.3-0.3s-0.1,0.1-0.2,0.3s0,0.2-0.1,0.3c-0.1,0.1-0.3,0.2-0.5,0.2
			c-0.2,0.1,0.1,0-0.5,0.3S20.8,4.9,20.7,5S20.2,5,20,5s-0.1-0.4,0-0.5s0.5,0,0.7,0s0.2-0.2,0.5-0.4s0.1-0.3,0.1-0.4
			S21,3.5,20.6,3.5c-0.8-0.1-1.7-0.1-2.5,0c-0.8,0.1-1.6,0.3-2.3,0.7c-0.8,0.4-1.5,1-2.1,1.6c-0.6,0.7-1.1,1.4-1.4,2.3
			c-0.2,0.7,0.1,0.7,0.2,0.6c0.2-0.2,0.5-0.3,0.8-0.4c0.4-0.1,0.3,0.1,0.4,0.2s0,0.3,0.1,0.5S13.7,9.5,14,9.4
			c0.3-0.1,0.6-0.4,0.7-0.7c0.1-0.2,0.2-0.4,0.3-0.6c0.1-0.2,0.2-0.2,0.3-0.3s0.1-0.4,0.1-0.6s-0.1-0.4-0.1-0.7s0.2-0.2,0.4-0.4
			C16,6.1,16.1,6,16.3,6c0.2-0.1,0.2-0.1,0.5-0.4s0.3-0.1,0.2,0c-0.1,0.3-0.3,0.5-0.4,0.8c-0.2,0.2,0,0.1-0.2,0.3s0,0.5,0.1,0.6
			s0.2,0.1,0.5,0.1s-0.1,0.4-0.3,0.4s-0.2,0.1-0.4,0.3c-0.1,0.2-0.2,0.5-0.3,0.7c-0.1,0.2-0.3,0.4-0.6,0.4c-0.3,0-0.6,0.1-0.9,0.3
			c-0.3,0-0.7,0-1,0h-0.6c-0.3,0-0.3,0.2-0.6,0.6c-0.5,0.6-1.1,1.2-1.7,1.6c-0.8,0.6-0.8,0.8-0.9,0.9s0,0.2,0.1,0.4
			c0.1,0.2,0.1,0.5,0.3,0.7c0.1,0.3-0.2,0.4-0.3,0.7s-0.3,0.1-1,0.2s-0.7,0.6-0.8,1s-0.2,0.8-0.2,1.1s-0.1,0.8,0.6,0.9
			s0.8-0.4,1-0.5c0.3-0.3,0.4-0.6,0.6-1c0.2-0.5,0.4-1,0.8-1.4c0.3-0.3,0.5-0.6,0.7-0.5s0.2,0,0.4-0.1c0.2-0.1,0.3-0.2,0.5-0.3
			c0.2-0.2,0.5,0.1,0.6,0.4c0.1,0.2,0.3,0.4,0.6,0.6c0.3,0.2,0.5,0.5,0.7,0.9c0.1,0.3,0,0.4-0.3,0.4s-0.4,0.1-0.4,0.2
			c0,0.1-0.1,0.3-0.1,0.4c0,0.1,0.2,0.2,0.3,0.3s0.3,0,0.3-0.2s-0.1-0.4-0.1-0.5s0.1-0.1,0.2-0.1c0.1,0,0.2-0.1,0.3-0.1
			c0.1-0.3,0.1-0.6,0.1-0.9c0-0.3-0.4-0.8-0.8-1.2s-0.3-0.4-0.2-0.7s0.4-0.1,0.6,0.1c0.4,0.3,0.7,0.6,1,0.9c0.3,0.4,0.1,0.4,0.2,0.9
			s0.4,0.8,0.5,1.3s0.3,0.3,0.3,0.1s0-0.6,0-1.1s0.1-0.8,0.3-0.9c0.3-0.1,0.6,0.2,0.7,0.5c0.1,0.5,0.2,0.9,0.4,1.3
			c0.3,0.4,0.5,0.2,0.8-0.1s0.5,0.1,0.6,0.4s0.4,0,0.8-0.5s0.5,0.2,0.5,0.4c0,0.4,0,0.8-0.1,1.2c-0.1,0.4-0.2,1-0.5,1.2
			s-0.5,0.1-0.8,0s-0.6,0.2-1,0.2c-0.2,0-0.5-0.1-0.7-0.2c-0.4,0-0.7-0.2-1-0.4c-0.4-0.3-0.5-0.2-0.5-0.2c-0.4,0-0.4,0.1-0.4,0.3
			c0,0.3-0.1,0.5-0.1,0.8c0,0.2-0.3,0.3-0.6,0.2s-0.3-0.2-0.5-0.3s-0.2-0.1-0.3-0.3c-0.1-0.2-0.2-0.3-0.3-0.5
			c-0.1-0.2-0.4,0-0.7-0.1c-0.2,0.1-0.4-0.1-0.5-0.3c0,0,0,0,0-0.1c0-0.2,0.1-0.3,0.2-0.5s0.1-0.4,0.1-0.7s-0.3,0-0.5,0l-0.9,0.1
			c-0.4,0-0.7,0.2-0.9,0.5c-0.3,0.3-0.6,0.4-1,0.4c-0.3,0-0.8,0-0.9,0.2C8,18.5,7.9,18.7,7.8,19c-0.2,0.2-0.3,0.4-0.4,0.6
			C7.2,20,7.1,20.3,7,20.7C6.9,21,6.7,21,6.5,21.1s-0.2,0.2-0.2,0.3c-0.1,0.2-0.2,0.4-0.4,0.5c-0.2,0.2-0.4,0.1-0.4,1.6
			c-0.1,1.4,0,2.8,0.1,4.2c0.1,1,0.6,0.9,0.8,1.3s0.5,1,0.9,1.6s1,0.4,1.4,0.4c0.3,0,0.6,0.1,0.8,0.3c0.1,0,0.7-0.4,0.7-0.4
			c0.7-0.3,0.9,0.1,1.1,0.5c0.3,0.4,0.8,0.6,1.3,0.5c0.5,0,0.4,1.2,0.3,1.6c-0.1,0.4,0,0.9,0.3,1.2c0.7,0.7,1.2,1.6,1.4,2.5
			c0.3,1,0.4,2.1,0.4,3.1c0,0.4,0.7,1.3,0.9,1.8c0.2,0.5,0.3,1,0.5,1.5c0,0.3,0.2,0.7,0.5,0.9c0.4,0.3,0.5,1.1,0.8,1.6
			c0.2,0.3,0.5,0.6,0.9,0.7c0.2,0.1,1.6,0.4,1.8,0.4s0.7-0.8,0.9-1.2c0.3-0.5,0.7-0.9,1.1-1.3c0.3-0.3,0.2-1,0.2-1.5
			c-0.1-0.4,0.1-0.8,0.4-1c0.4-0.1,0.7-0.4,1-0.7c0.3-0.5,0.4-1.1,0.1-1.7c-0.4-0.7-0.6-1.4-0.9-2.2c0-0.3-0.1-1-0.1-1.1
			c0.2-0.4,0.4-0.7,0.7-1c0.8-0.9,1.5-1.8,2.2-2.8c0.5-0.7,0.9-1.6,1.1-2.5c0-0.8-0.4-0.6-0.6-0.5S26,30.1,25.6,30s-1.5-0.2-2-0.3
			s-0.3-0.3-0.3-0.7s-0.1-0.4-0.7-0.8C22.3,28,22,27.5,22,27c0-0.4-0.2-0.5-0.5-0.9c-0.4-0.4-0.6-0.8-0.7-1.3
			c-0.1-0.6-0.1-0.9-0.4-0.9s-0.3-0.5-0.2-0.8s-0.1-0.6-0.6-1.4s-0.2-1.2-0.1-1.1s0.4,0.3,0.4,0.1s0.2-0.1,0.3,0
			c0.2,0.4,0.4,0.8,0.5,1.2c0.2,0.5,0.5,1,0.8,1.4c0.2,0.3,0.3,0.6,0.2,1c0,0.5,0.9,1.5,1.5,2.1s0.6,1.6,0.9,2.2
			c0.1,0.3,0.4,0.4,0.7,0.3c0.1,0,0.2-0.1,0.2-0.2c0.1-0.1,0.2,0,0.3-0.1c0.3-0.1,0.6-0.3,0.7-0.5c0.3-0.3,0.9-0.2,1-0.3
			c0.3-0.2,0.5-0.4,0.8-0.6c0.2-0.2,0.5-0.3,0.8-0.4c0.3,0,0.3-0.1,0.4-0.4s0.4-0.2,0.5-0.4c0.1-0.2,0.3-0.3,0.5-0.3
			c0.1,0,0.1-0.6,0.1-0.7s0.1-0.2,0.4-0.6c0.3-0.3,0.3-0.7,0.1-1.1c-0.3-0.2-0.5-0.3-0.8-0.4c-0.2-0.1-0.4-0.3-0.6-0.6
			c-0.2-0.3-0.5,0.1-0.6,0.2s-0.4,0.5-1.2,0.1s-1.1-1.4-1.3-1.8s-0.8-0.5-1-0.8s0.1-0.7,0.6-0.8s0.8,0.6,0.9,0.9
			c0.3,0.5,0.8,0.8,1.3,1.1c0.5,0.3,0.4,0.3,0.9-0.1s0.6-0.2,0.6-0.1c0.2,0.3,0.3,0.5,0.5,0.7c0.2,0.1,0.5,0.1,1.3,0.2
			c1,0.2,2.1,0.2,3.1,0c0.2,0.1,0.3,0.3,0.4,0.5c0.2,0.3,0.4,0.4,0.7,0.7c0.2,0.2,0.5,0.3,0.8,0.2c-0.1,0.1-0.1,0.3-0.1,0.4
			c0,0.1,0,0.3,0.1,0.4c0,0,0-0.1,0,0s0.2,0.6,0.7,0.5s0.4-0.6,0.4-0.8s0.3-0.4,0.3,0c0.1,0.3,0.2,0.6,0.3,0.8c0,0.5,0,1,0.1,1.5
			c0.2,0.8,0.5,1.5,0.9,2.2c0.3,0.5,0.3,0.9,0.5,1.4c0.2,0.4,0.4,0.8,0.4,1.2c0.2,0.6,0.4,0.8,0.4,0.7c0.5-0.1,1.1-1.2,1.3-2.1
			c0.1-0.7,0.1-1.4,0-2.2c0.2,0,0.4-0.1,0.5-0.2c0.5-0.4,0.9-0.9,1.3-1.4c0.5-0.7,0.9-0.7,1-1.1s0.3-0.1,0.5-0.3s0.5,0.1,0.7,0
			s0.3,0,0.4-0.3c0-0.2,0-0.4-0.1-0.6c-0.2-0.5,0.5,0.4,0.5,0.4l0.2,0.2c0.1,0.1,0.2,0.5,0.3,0.7s0.5-0.1,1,1
			c0.1,0.5,0.2,0.9,0.3,1.4c0.1,0.4,0.3,0,0.5-0.3c0.1-0.2,0.2-0.3,0.4-0.4c0.2,0.5,0.4,1.1,0.5,1.6c0.1,0.8,0.2,1.6,0.1,2.4
			c-0.1,0.6,0.1,0.7,0.2,0.9s0.3,0.5,0.3,0.7c0.1,0.2,0.2,0.7,0.2,0.7c0.1,0.6,0.9,1.1,0.9,1.1c0.2,0,0-0.9,0-1.3
			c-0.1-0.3-0.2-0.6-0.3-0.8c-0.1-0.3-0.3-0.4-0.6-0.5C49.8,31.1,50,31,50,30.7c0-0.2-0.1-0.4-0.3-0.6c0-0.4,0-0.7,0-1.1
			c0-0.3,0.1-0.6,0.2-0.8c0.1-0.2,0.2-0.1,0.2,0s0.1,0.1,0.3,0.3c0.1,0.1,0.2,0.3,0.3,0.5c0.2,0.3,0.4,0.4,0.6,0.5
			c0.1,0.2,0.2,0.4,0.2,0.6c0,0.2,0.1,0.4,0.1,0.4s0.1-0.1,0.2-0.3s0.5-0.6,0.8-1s0.2,0.1,0.3-0.3c0.1-0.3,0.1-0.7,0-1
			c0-0.3-0.1-0.5-0.2-0.8c-0.2-0.3-0.4-0.6-0.7-0.8c-0.3-0.2-0.5-0.6-0.5-0.9c0-0.3,0-0.5,0.2-0.7s0.2-0.7,0.6-0.7
			c0.2,0,0.5,0.2,0.5,0.4c0,0,0,0,0,0.1c0,0.2,0.2-0.2,0.2-0.4s0.3-0.1,0.5-0.2c0.2-0.1,0.3-0.3,0.4-0.4c0.2-0.3,0.3-0.1,0.5-0.2
			s0.3,0,0.3-0.2s0.5-0.2,0.5-0.2C55.4,17.5,52.2,10.8,48.1,6.8z M22,13.7c-0.2,0.2-0.2,0.3-0.5,0.3s-1,0.1-1.4,0.1s-0.4,0-0.4,0
			s0.1-0.5-0.1-0.5s-0.4,0-0.6,0.1s-0.1,0.4-0.3,0.4s-0.7,0.2-0.9,0s-0.3-0.1-0.3-0.3c0-0.2,0-0.5,0.1-0.7c0.2-0.2-0.1-0.1,0.2-0.5
			c0.2-0.2,0.3-0.4,0.5-0.5c0.2-0.1,0.5-0.5,0.7-0.4s0.5,0.3,0.5,0.5c0,0.1,0.1,0.2,0.1,0.3l0.2-0.2c0,0,0-0.2,0.3-0.4
			s0.5-0.5,0.6-0.4c0.1,0.1,0.1,0.3,0.1,0.5c0,0.2,0,0.4-0.2,0.4l-0.3,0.1l-0.4,0.1c0.1,0,0.2,0,0.4,0l0.4,0.2
			c0.2,0,0.4-0.1,0.6-0.1c0.2,0,0.6,0,0.7,0.2S22.1,13.5,22,13.7z M27.3,15.6c-0.5,0.2-1,0.1-1.5-0.1c-0.4-0.2-0.6-0.4-0.6-0.6
			c0-0.2,0-0.5,0.1-0.7c0.1-0.2,0.1-0.4,0.1-0.5c-0.1-0.2-0.2-0.3-0.4-0.4c-0.4-0.1-0.4-0.1-0.5-0.5c-0.1-0.2-0.1-0.5-0.1-0.7
			c-0.1-0.3,0-0.5,0.2-0.7c0.3-0.3,0.2-0.2,0.4-0.4s0.2-0.2,0.5-0.3s0.4-0.2,0.7-0.1s0.5,0.2,0.7,0.4s0.4,0.3,0.1,0.3h-0.6
			c-0.2,0-0.5,0.1-0.5,0.4s0,0.5,0.2,0.7l0.4,0.3c0.2,0.1,0,0.1,0.2,0.2s0.3-0.1,0.4,0.1c0.1,0.1,0.1,0.3,0.1,0.4
			c0,0.1,0,0.2-0.2,0.3s0,0.3,0.2,0.6c0.1,0.3,0.3,0.5,0.3,0.8C27.4,15.3,27.5,15.5,27.3,15.6L27.3,15.6z"/>
		
			<radialGradient id="SVGID_00000024693912600213426160000010714035089607953303_" cx="31.91" cy="38.34" r="34.39" gradientTransform="matrix(1 0 0 -1 0 62)" gradientUnits="userSpaceOnUse">
			<stop  offset="0" style="stop-color:#B2D235"/>
			<stop  offset="0.11" style="stop-color:#AAD037"/>
			<stop  offset="0.28" style="stop-color:#95C93B"/>
			<stop  offset="0.48" style="stop-color:#73BF42"/>
			<stop  offset="0.56" style="stop-color:#62BA46"/>
			<stop  offset="0.6" style="stop-color:#4FB648"/>
			<stop  offset="0.66" style="stop-color:#33B04B"/>
			<stop  offset="0.73" style="stop-color:#1CAB4E"/>
			<stop  offset="0.8" style="stop-color:#0CA850"/>
			<stop  offset="0.89" style="stop-color:#03A651"/>
			<stop  offset="1" style="stop-color:#00A551"/>
		</radialGradient>
		<path style="fill:url(#SVGID_00000024693912600213426160000010714035089607953303_);" d="M41.5,30.8c-0.2,0-0.2,0.6-0.2,1
			c0,0.3,0,0.5,0.1,0.8c0.1,0.3,0.3,0.4,0.4,0.4s0.6-0.7,0.5-1.2S41.8,30.8,41.5,30.8z"/>
		
			<radialGradient id="SVGID_00000146473675223900286600000017053367795957046411_" cx="31.92" cy="38.33" r="34.38" gradientTransform="matrix(1 0 0 -1 0 62)" gradientUnits="userSpaceOnUse">
			<stop  offset="0" style="stop-color:#B2D235"/>
			<stop  offset="0.11" style="stop-color:#AAD037"/>
			<stop  offset="0.28" style="stop-color:#95C93B"/>
			<stop  offset="0.48" style="stop-color:#73BF42"/>
			<stop  offset="0.56" style="stop-color:#62BA46"/>
			<stop  offset="0.6" style="stop-color:#4FB648"/>
			<stop  offset="0.66" style="stop-color:#33B04B"/>
			<stop  offset="0.73" style="stop-color:#1CAB4E"/>
			<stop  offset="0.8" style="stop-color:#0CA850"/>
			<stop  offset="0.89" style="stop-color:#03A651"/>
			<stop  offset="1" style="stop-color:#00A551"/>
		</radialGradient>
		<path style="fill:url(#SVGID_00000146473675223900286600000017053367795957046411_);" d="M26.9,41.2c-0.1,0.1-0.3,0.3-0.5,0.3
			c-0.2,0.1-0.4,0.2-0.7,0.2c-0.4,0.1-0.4,0.5-0.4,0.8s0.1,0.2,0.2,0.3s0.1,0.3-0.1,0.6c-0.1,0.2-0.2,0.4-0.1,0.7
			c0,0.3,0.2,0.4,0.4,0.6c0.2,0.2,0.4,0.2,0.6,0.1c0.2-0.1,0.4-0.5,0.5-0.8c0.1-0.3,0.2-0.5,0.4-0.8c0.1-0.2,0.2-0.4,0.1-0.6
			c0-0.2,0-0.5,0.1-0.7c0.1-0.1,0.2-0.3,0.3-0.4c0-0.2,0-0.4-0.1-0.6C27.4,41,27.2,41.1,26.9,41.2z"/>
		<path class="st9" d="M0,15.4c1.8,5.9,9.3,16,27.3,24.8c10,4.7,27.5,9.8,30.6-0.9c0,0,0.2,5.6-6.9,7.1S34.4,44.5,26,40.5
			S2.4,26.4,0,15.4z"/>
		<path class="st10" d="M0.1,18.5C1.2,24,7.2,34,23.4,43.9c9,5.4,25.3,11.8,29.4,2.7c0,0-0.4,5.1-7.4,5.5s-15.7-3.5-23.3-8
			S1.2,28.6,0.1,18.5z"/>
		<path class="st1" d="M29.5,40.5v-7.7h3c0.6,0,1.2,0.1,1.7,0.5c0.5,0.4,0.7,1,0.7,1.5c0,0.3-0.1,0.6-0.2,0.9
			c-0.1,0.3-0.4,0.5-0.7,0.7l0,0c0.5,0,0.9,0.2,1.2,0.6c0.3,0.4,0.4,0.9,0.4,1.3c0.1,0.7-0.3,1.3-0.9,1.7c-0.6,0.3-1.3,0.5-2,0.5
			L29.5,40.5z M31.5,35.8h0.3c0.3,0,0.5,0,0.7-0.1c0.2-0.1,0.4-0.3,0.3-0.6c0-0.3-0.1-0.5-0.3-0.6c-0.2-0.1-0.5-0.1-0.7-0.2h-0.4
			L31.5,35.8z M31.5,39h0.9c0.3,0,0.5-0.1,0.7-0.2c0.2-0.1,0.4-0.4,0.3-0.6c0-0.3-0.1-0.6-0.4-0.7c-0.2-0.1-0.5-0.2-0.8-0.2h-0.8
			L31.5,39z"/>
		<path class="st1" d="M42.3,33.2l-0.8,1.5c-0.2-0.2-0.4-0.3-0.7-0.4c-0.2-0.1-0.5-0.1-0.7-0.1H40h-0.1c-0.2,0-0.3,0.1-0.4,0.2
			c-0.1,0.1-0.2,0.3-0.2,0.4c0,0.2,0.1,0.3,0.2,0.4c0.1,0.1,0.3,0.2,0.4,0.2H40h0.2l0.5,0.1c0.5,0.1,1,0.4,1.4,0.7
			c0.4,0.4,0.6,0.9,0.6,1.4v0.2c0,0.3-0.1,0.7-0.2,1c-0.1,0.3-0.4,0.6-0.6,0.9c-0.3,0.2-0.6,0.4-0.9,0.5c-0.3,0.1-0.7,0.2-1,0.2
			h-0.3c-0.5,0-1-0.1-1.5-0.2c-0.5-0.2-0.9-0.4-1.3-0.6l0.9-1.6c0.3,0.2,0.6,0.4,0.9,0.6c0.3,0.2,0.7,0.2,1,0.2h0.1
			c0.2,0,0.5-0.1,0.6-0.2c0.2-0.1,0.3-0.3,0.3-0.6c0-0.2-0.1-0.4-0.2-0.5c-0.2-0.1-0.3-0.2-0.5-0.3l-0.3-0.1l-0.2-0.1h0l0,0
			c-0.5-0.1-1.1-0.3-1.5-0.7c-0.4-0.3-0.7-0.8-0.7-1.4c0-0.7,0.3-1.4,0.8-1.9c0.6-0.5,1.3-0.7,2-0.7c0.2,0,0.3,0,0.5,0
			c0.2,0,0.3,0.1,0.5,0.1c0.3,0,0.5,0.1,0.8,0.2C41.8,33,42.1,33.1,42.3,33.2L42.3,33.2z"/>
		<path class="st1" d="M49.8,33v2.4c-0.2-0.3-0.5-0.5-0.8-0.6c-0.3-0.1-0.7-0.2-1-0.2c-0.6,0-1.1,0.2-1.6,0.6
			c-0.4,0.4-0.6,1-0.6,1.5c0,0.6,0.2,1.1,0.6,1.5c0.4,0.4,1,0.6,1.6,0.6c0.3,0,0.7-0.1,1-0.2c0.3-0.1,0.6-0.3,0.8-0.6v2.4l-0.5,0.2
			l-0.5,0.1l-0.4,0.1H48c-0.6,0-1.1-0.1-1.6-0.3c-0.5-0.2-1-0.5-1.4-0.8c-0.4-0.4-0.8-0.8-1-1.3c-0.4-1-0.4-2.1,0-3.1
			c0.2-0.5,0.5-0.9,0.9-1.3c0.8-0.8,1.9-1.2,3-1.2H48c0.3,0,0.7,0,1,0.1C49.3,32.8,49.6,32.9,49.8,33L49.8,33z"/>
		<path class="st1" d="M57,33v2.4c-0.2-0.3-0.5-0.5-0.8-0.6c-0.3-0.1-0.7-0.2-1-0.2c-0.6,0-1.1,0.2-1.6,0.6
			c-0.4,0.4-0.6,0.9-0.6,1.5c0,0.6,0.2,1.1,0.6,1.5c0.4,0.4,1,0.6,1.6,0.6c0.7,0,1.4-0.3,1.8-0.8v2.4l-0.5,0.2L56,40.7l-0.4,0.1
			h-0.4c-0.6,0-1.1-0.1-1.6-0.3c-0.5-0.2-1-0.5-1.4-0.8c-0.4-0.4-0.8-0.8-1-1.3c-0.2-0.5-0.3-1.1-0.3-1.6c0-1.1,0.4-2.1,1.2-2.9
			c0.8-0.8,1.9-1.2,3-1.2h0.1c0.3,0,0.7,0,1,0.1C56.4,32.8,56.7,32.9,57,33z"/>
		<path class="st1" d="M60.7,38.8h2.5v1.7h-4.6v-7.7h2.1V38.8z"/>
		<path class="st11" d="M20,54.1c0,0,0,0.1,0,0.1c0,0,0,0.1,0,0.1c0,0,0,0-0.1,0c0,0-0.1,0-0.1,0l-0.1-0.1c-0.1,0-0.1-0.1-0.2-0.1
			c-0.1,0-0.2,0-0.3,0c-0.1,0-0.3,0-0.4,0.1c-0.1,0-0.2,0.1-0.3,0.2c-0.1,0.1-0.2,0.2-0.2,0.3C18.1,54.9,18,55,18,55.2
			c0,0.1-0.1,0.3-0.1,0.4c0,0.1,0,0.3,0,0.4c0,0.1,0,0.2,0,0.4c0,0.1,0.1,0.2,0.1,0.3c0.1,0.1,0.1,0.1,0.2,0.2c0.1,0,0.2,0.1,0.3,0
			c0.1,0,0.2,0,0.3,0l0.2-0.1l0.2-0.1c0,0,0.1,0,0.1,0l0,0c0,0,0,0,0,0.1l0,0l0,0c0,0,0,0,0,0.1c0,0,0,0,0,0.1l0,0c0,0,0,0,0,0
			l-0.1,0.1L19.2,57c-0.1,0-0.2,0.1-0.3,0.1c-0.1,0-0.2,0-0.3,0c-0.2,0-0.3,0-0.5-0.1c-0.1,0-0.3-0.1-0.4-0.2
			c-0.1-0.1-0.2-0.2-0.2-0.4c-0.1-0.2-0.1-0.3-0.1-0.5c0-0.2,0-0.3,0-0.5c0-0.2,0.1-0.3,0.1-0.5c0.1-0.2,0.1-0.3,0.2-0.5
			c0.1-0.1,0.2-0.3,0.4-0.4c0.1-0.1,0.3-0.2,0.5-0.3c0.2-0.1,0.4-0.1,0.5-0.1c0.1,0,0.2,0,0.4,0c0.1,0,0.2,0.1,0.3,0.1
			c0.1,0,0.1,0.1,0.2,0.1C20.1,54,20.1,54.1,20,54.1z"/>
		<path class="st11" d="M22.3,55.5c0,0.1,0,0.3,0,0.4c0,0.1-0.1,0.3-0.1,0.4c0,0.1-0.1,0.2-0.2,0.3c-0.1,0.1-0.2,0.2-0.3,0.3
			c-0.1,0.1-0.2,0.1-0.4,0.2c-0.1,0-0.3,0.1-0.4,0.1c-0.1,0-0.3,0-0.4-0.1c-0.1,0-0.2-0.1-0.3-0.2c-0.1-0.1-0.1-0.2-0.2-0.3
			c0-0.1-0.1-0.2,0-0.4c0-0.1,0-0.3,0-0.4c0-0.1,0.1-0.3,0.1-0.4c0-0.1,0.1-0.2,0.2-0.3c0.1-0.1,0.2-0.2,0.3-0.3
			c0.1-0.1,0.2-0.1,0.4-0.2c0.1,0,0.3-0.1,0.4-0.1c0.1,0,0.3,0,0.4,0.1c0.1,0,0.2,0.1,0.3,0.2c0.1,0.1,0.1,0.2,0.2,0.3
			C22.2,55.2,22.3,55.4,22.3,55.5z M21.8,55.5c0-0.1,0-0.2,0-0.2c0-0.1,0-0.1-0.1-0.2c0,0-0.1-0.1-0.2-0.1c-0.1,0-0.2,0-0.2,0
			c-0.1,0-0.2,0-0.3,0c-0.1,0-0.2,0.1-0.2,0.2c-0.1,0.1-0.1,0.1-0.2,0.2c0,0.1-0.1,0.2-0.1,0.3c0,0.1-0.1,0.2-0.1,0.3
			c0,0.1,0,0.2,0,0.3c0,0.1,0,0.1,0,0.2c0,0.1,0,0.1,0.1,0.2c0,0,0.1,0.1,0.2,0.1c0.1,0,0.2,0,0.2,0c0.1,0,0.2,0,0.3-0.1
			c0.2-0.1,0.3-0.2,0.4-0.4c0.1-0.1,0.1-0.2,0.1-0.3c0-0.1,0.1-0.2,0.1-0.3C21.8,55.7,21.8,55.6,21.8,55.5L21.8,55.5z"/>
		<path class="st11" d="M24.9,55.2c0,0.1,0,0.1,0,0.2c0,0.1,0,0.1,0,0.2L24.5,57l0,0l0,0h-0.1h-0.2h-0.1l0,0l0,0l0.3-1.4
			c0,0,0-0.1,0-0.2c0,0,0-0.1,0-0.1c0-0.1,0-0.2-0.1-0.3c-0.1-0.1-0.1-0.1-0.2-0.1c-0.1,0-0.2,0-0.3,0.1c-0.1,0.1-0.2,0.1-0.3,0.2
			c-0.1,0.1-0.2,0.2-0.2,0.3c-0.1,0.1-0.1,0.3-0.1,0.4L23,57l0,0h0c0,0,0,0-0.1,0h-0.2h-0.1l0,0l0,0l0.5-2.3l0,0l0,0h0.1h0.2h0.1
			l0,0l0,0l-0.1,0.5c0-0.1,0.1-0.1,0.1-0.2l0.2-0.2c0.1-0.1,0.2-0.1,0.3-0.1c0.1,0,0.2-0.1,0.3-0.1c0.1,0,0.2,0,0.3,0
			c0.1,0,0.1,0.1,0.2,0.1c0,0.1,0.1,0.1,0.1,0.2C24.8,55,24.9,55.1,24.9,55.2z"/>
		<path class="st11" d="M27.5,55.2c0,0.1,0,0.1,0,0.2v0.2L27.2,57l0,0l0,0h-0.1h-0.2h-0.1l0,0l0,0l0.3-1.4v-0.2v-0.1
			c0-0.1,0-0.2-0.1-0.3C27,55,27,54.9,26.9,54.9c-0.1,0-0.2,0-0.3,0.1c-0.2,0.1-0.4,0.3-0.5,0.5C26,55.7,26,55.8,26,56l-0.2,1l0,0
			l0,0h-0.1h-0.2h-0.1l0,0l0,0l0.5-2.3l0,0l0,0H26h0.2h0l0,0l0,0l-0.1,0.5c0-0.1,0.1-0.1,0.1-0.2c0.1-0.1,0.1-0.1,0.2-0.2
			c0.1-0.1,0.2-0.1,0.3-0.1c0.1,0,0.2-0.1,0.3-0.1c0.1,0,0.2,0,0.3,0c0.1,0,0.1,0.1,0.2,0.1c0,0.1,0.1,0.1,0.1,0.2
			C27.6,55,27.6,55.1,27.5,55.2z"/>
		<path class="st11" d="M30.2,55.2c0,0.1,0,0.2-0.1,0.3c-0.1,0.1-0.1,0.2-0.2,0.2c-0.1,0.1-0.3,0.1-0.5,0.2c-0.2,0-0.4,0.1-0.6,0.1
			h-0.3c0,0.1,0,0.1,0,0.2c0,0,0,0.1,0,0.2c0,0.3,0.1,0.5,0.4,0.5c0,0,0.1,0,0.1,0c0.1,0,0.2,0,0.3,0l0.2,0h0.2h0.1l0,0c0,0,0,0,0,0
			c0,0,0,0,0,0.1s0,0,0,0.1V57c0,0,0,0,0,0.1c0,0-0.1,0-0.1,0.1h-0.2h-0.2H29c-0.1,0-0.3,0-0.4,0c-0.1,0-0.2-0.1-0.3-0.2
			c-0.1-0.1-0.1-0.2-0.2-0.3c0-0.1-0.1-0.2-0.1-0.4c0-0.1,0-0.2,0-0.4c0-0.1,0.1-0.2,0.1-0.4c0-0.1,0.1-0.2,0.2-0.3
			c0.1-0.1,0.2-0.2,0.3-0.3c0.1-0.1,0.2-0.2,0.4-0.2c0.1-0.1,0.3-0.1,0.5-0.1c0.1,0,0.3,0,0.4,0.1c0.1,0,0.2,0.1,0.2,0.1
			c0.1,0,0.1,0.1,0.1,0.2C30.2,55.1,30.2,55.1,30.2,55.2z M29.8,55.2c0-0.1,0-0.2-0.1-0.2c-0.1-0.1-0.2-0.1-0.3-0.1
			c-0.1,0-0.2,0-0.3,0c-0.1,0-0.2,0.1-0.2,0.2c-0.1,0.1-0.1,0.1-0.2,0.2c-0.1,0.1-0.1,0.2-0.1,0.3h0.3c0.1,0,0.3,0,0.4,0
			c0.1,0,0.2,0,0.3-0.1c0.1,0,0.1-0.1,0.1-0.1C29.7,55.3,29.8,55.3,29.8,55.2L29.8,55.2z"/>
		<path class="st11" d="M32.5,54.9C32.5,55,32.5,55,32.5,54.9c0,0.1,0,0.2,0,0.2c0,0,0,0,0,0.1c0,0,0,0-0.1,0c0,0-0.1,0-0.1,0
			c0,0-0.1-0.1-0.1-0.1L32,55c-0.1,0-0.2,0-0.2,0c-0.1,0-0.2,0-0.3,0.1c-0.1,0-0.2,0.1-0.2,0.2c-0.1,0.1-0.1,0.2-0.2,0.2
			c0,0.1-0.1,0.2-0.1,0.3s0,0.2,0,0.3c0,0.1,0,0.2,0,0.2c0,0.1,0,0.3,0.1,0.4c0.1,0.1,0.2,0.1,0.3,0.1c0.1,0,0.2,0,0.3,0l0.2-0.1
			l0.1-0.1c0,0,0.1,0,0.1,0l0,0c0,0,0,0,0,0.1v0.1c0,0,0,0.1,0,0.1c0,0,0,0.1,0,0.1c0,0,0,0,0,0.1L32,57c-0.1,0-0.1,0.1-0.2,0.1
			c-0.1,0-0.1,0.1-0.2,0.1c-0.1,0-0.2,0-0.2,0c-0.2,0-0.5-0.1-0.6-0.2c-0.1-0.2-0.2-0.4-0.2-0.6c0-0.1,0-0.2,0-0.3
			c0-0.1,0-0.3,0.1-0.4c0-0.1,0.1-0.3,0.2-0.4c0.1-0.1,0.2-0.2,0.2-0.3c0.1-0.1,0.2-0.2,0.3-0.2c0.1-0.1,0.3-0.1,0.4-0.1H32l0.2,0
			c0.1,0,0.1,0,0.2,0.1l0.1,0.1C32.4,54.8,32.4,54.8,32.5,54.9C32.5,54.9,32.5,54.9,32.5,54.9z"/>
		<path class="st11" d="M34.8,57L34.8,57L34.8,57L34.8,57h-0.3h-0.1l0,0l0,0l0.4-2h-1.3l-0.3,1.3c0,0,0,0.1,0,0.1c0,0,0,0.1,0,0.1
			c0,0.1,0,0.1,0,0.2c0,0,0.1,0.1,0.2,0.1h0.1h0.1h0.1h0.1c0,0,0,0,0,0.1c0,0,0,0,0,0.1c0,0,0,0,0,0.1v0.1l0,0h-0.1c0,0-0.1,0-0.1,0
			h-0.1h-0.1c-0.1,0-0.2,0-0.2,0c-0.1,0-0.2,0-0.2-0.1c0,0-0.1-0.1-0.1-0.2c0-0.1,0-0.2,0-0.2v-0.1c0,0,0,0,0-0.1s0-0.1,0-0.1
			c0,0,0-0.1,0-0.1l0.3-1.3h-0.4c0,0,0,0,0-0.1v-0.1c0,0,0-0.1,0-0.1c0,0,0,0,0-0.1c0,0,0,0,0.1,0h0.3l0.1-0.5l0,0l0,0h0.3l0,0l0,0
			l-0.1,0.5H35c0,0,0.1,0,0.1,0c0,0,0,0.1,0,0.1L34.8,57z M35.5,53.9c0,0,0,0.1,0,0.1c0,0,0,0.1,0,0.1h-0.1H35c0,0-0.1,0-0.1,0
			c0,0,0-0.1,0-0.1c0,0,0-0.1,0-0.1v-0.1c0,0,0-0.1,0.1-0.1c0,0,0.1,0,0.1,0h0.3c0,0,0,0,0.1,0c0,0,0,0.1,0,0.1
			C35.4,53.8,35.5,53.9,35.5,53.9L35.5,53.9z"/>
		<path class="st11" d="M37.8,55.2c0,0.1,0,0.1,0,0.2c0,0.1,0,0.1,0,0.2L37.5,57l0,0l0,0h-0.1h-0.2h-0.1l0,0l0,0l0.3-1.4
			c0,0,0-0.1,0-0.2c0,0,0-0.1,0-0.1c0-0.1,0-0.2-0.1-0.3c-0.1-0.1-0.1-0.1-0.2-0.1c-0.1,0-0.2,0-0.3,0.1c-0.1,0.1-0.2,0.1-0.3,0.2
			c-0.1,0.1-0.2,0.2-0.2,0.3c-0.1,0.1-0.1,0.3-0.1,0.4L36,57l0,0l0,0h-0.1h-0.2c0,0,0,0-0.1,0l0,0l0,0l0.5-2.3l0,0l0,0h0.1h0.2l0,0
			l0,0l0,0l-0.1,0.5c0-0.1,0.1-0.1,0.1-0.2l0.2-0.2c0.1-0.1,0.2-0.1,0.3-0.1c0.1,0,0.2-0.1,0.3-0.1c0.1,0,0.2,0,0.3,0
			c0.1,0,0.1,0.1,0.2,0.1c0,0.1,0.1,0.1,0.1,0.2C37.8,55,37.8,55.1,37.8,55.2z"/>
		<path class="st11" d="M40.2,57.2c0,0.1-0.1,0.2-0.1,0.4c-0.1,0.1-0.1,0.2-0.2,0.2c-0.1,0.1-0.2,0.1-0.3,0.2c-0.2,0-0.3,0-0.5,0
			c-0.1,0-0.3,0-0.4,0c-0.1,0-0.2-0.1-0.3-0.1l0,0c0,0,0,0,0-0.1l0,0c0,0,0,0,0-0.1c0,0,0,0,0-0.1s0,0,0,0l0,0l0,0h0.1l0.1,0.1
			l0.2,0.1c0.1,0,0.2,0,0.3,0c0.1,0,0.2,0,0.2,0c0.1,0,0.1,0,0.2-0.1c0.1,0,0.1-0.1,0.1-0.2c0-0.1,0.1-0.1,0.1-0.2
			c0-0.1,0.1-0.3,0.1-0.4l0.1-0.2c0,0.1-0.1,0.1-0.1,0.2c-0.1,0.1-0.1,0.1-0.2,0.2c-0.1,0.1-0.2,0.1-0.3,0.1c-0.1,0-0.2,0-0.3,0
			c-0.1,0-0.2,0-0.3-0.1c-0.1,0-0.2-0.1-0.2-0.2c-0.1-0.1-0.1-0.2-0.1-0.3c0-0.1,0-0.2,0-0.3c0-0.1,0-0.2,0-0.3
			c0-0.1,0.1-0.2,0.1-0.4c0-0.1,0.1-0.3,0.2-0.4c0.1-0.1,0.1-0.2,0.2-0.3c0.1-0.1,0.2-0.2,0.3-0.2c0.1-0.1,0.3-0.1,0.4-0.1
			c0.1,0,0.3,0,0.4,0.1c0.1,0.1,0.2,0.2,0.3,0.3l0-0.2c0,0,0,0,0.1,0h0.2h0.1h0l0,0l0,0L40.2,57.2z M40.2,55.3
			c-0.1-0.1-0.2-0.2-0.3-0.3C39.8,55,39.7,55,39.6,55c-0.1,0-0.2,0-0.2,0.1c-0.1,0-0.1,0.1-0.2,0.2c-0.1,0.1-0.1,0.2-0.2,0.2
			c0,0.1-0.1,0.2-0.1,0.3c0,0.1,0,0.2-0.1,0.3c0,0.1,0,0.2,0,0.3c0,0.1,0,0.1,0,0.2c0,0.1,0,0.1,0.1,0.2c0,0,0.1,0.1,0.1,0.1
			c0.1,0,0.1,0,0.2,0c0.1,0,0.2,0,0.3-0.1c0.1-0.1,0.2-0.1,0.3-0.2c0.1-0.1,0.2-0.2,0.2-0.3c0.1-0.1,0.1-0.3,0.1-0.4L40.2,55.3z"/>
		<path class="st11" d="M43.8,54.7L43.8,54.7C43.8,54.7,43.8,54.7,43.8,54.7L43.8,54.7v0.1l0,0h-0.6l-0.2,1.3c0,0,0,0.1,0,0.1
			c0,0,0,0.1,0,0.1c0,0.1,0,0.1,0.1,0.2c0,0,0.1,0.1,0.2,0.1h0.1h0.1h0.1h0.1c0,0,0,0,0,0.1v0.1c0,0,0,0.1,0,0.1v0.1l0,0h-0.1
			c0,0-0.1,0-0.1,0h-0.1h-0.1c-0.1,0-0.2,0-0.2,0c-0.1,0-0.1,0-0.2-0.1c0,0-0.1-0.1-0.1-0.2c0-0.1,0-0.2,0-0.2v-0.1c0,0,0-0.1,0-0.1
			c0,0,0-0.1,0-0.1s0-0.1,0-0.1l0.3-1.3h-0.4c0,0,0,0,0-0.1c0,0,0-0.1,0-0.1c0,0,0-0.1,0-0.1c0,0,0,0,0-0.1c0,0,0,0,0.1,0h0.3
			l0.1-0.5l0,0l0,0h0.3l0,0l0,0l-0.1,0.5h0.6l0,0C43.9,54.5,43.9,54.6,43.8,54.7C43.9,54.7,43.8,54.7,43.8,54.7z"/>
		<path class="st11" d="M45.9,57L45.9,57L45.9,57L45.9,57h-0.3h-0.1l0,0l0,0l0.3-1.4c0,0,0-0.1,0-0.2s0-0.1,0-0.1c0,0,0-0.1,0-0.1
			c0,0,0-0.1,0-0.1L45.7,55h-0.1c-0.1,0-0.2,0-0.3,0.1c-0.1,0.1-0.2,0.1-0.3,0.2c-0.1,0.1-0.2,0.2-0.2,0.3c-0.1,0.1-0.1,0.3-0.1,0.4
			l-0.2,1l0,0l0,0h-0.1H44h-0.1l0,0l0,0l0.7-3.4l0,0l0,0h0.1H45h0.1l0,0l0,0l-0.2,1c0,0,0,0.1,0,0.1s0,0.1,0,0.1c0,0,0,0.1,0,0.1
			v0.1c0-0.1,0.1-0.1,0.1-0.2c0.1-0.1,0.1-0.1,0.2-0.2c0.1-0.1,0.2-0.1,0.3-0.1c0.1,0,0.2-0.1,0.3-0.1c0.1,0,0.2,0,0.3,0
			c0.1,0,0.1,0.1,0.2,0.1c0,0.1,0.1,0.1,0.1,0.2c0,0.1,0,0.2,0,0.2c0,0.1,0,0.1,0,0.2v0.2L45.9,57z"/>
		<path class="st11" d="M48.8,55.2c0,0.1,0,0.2-0.1,0.3c-0.1,0.1-0.1,0.2-0.2,0.2c-0.1,0.1-0.3,0.1-0.5,0.2c-0.2,0-0.4,0.1-0.7,0.1
			h-0.3c0,0.1,0,0.1,0,0.2c0,0,0,0.1,0,0.2c0,0.1,0,0.3,0.1,0.4c0.1,0.1,0.3,0.2,0.4,0.1c0.1,0,0.2,0,0.3,0l0.2,0h0.2
			c0,0,0.1,0,0.1,0l0,0c0,0,0,0,0,0c0,0,0,0,0,0.1s0,0,0,0.1c0,0,0,0,0,0.1c0,0,0,0,0,0.1l-0.1,0.1h-0.2h-0.2h-0.3
			c-0.1,0-0.3,0-0.4,0c-0.1,0-0.2-0.1-0.3-0.2c-0.1-0.1-0.1-0.2-0.2-0.3c0-0.1-0.1-0.2,0-0.4c0-0.1,0-0.2,0-0.4
			c0-0.1,0.1-0.3,0.1-0.4c0-0.1,0.1-0.3,0.2-0.4c0.1-0.1,0.2-0.2,0.3-0.3c0.1-0.1,0.2-0.2,0.4-0.2c0.1,0,0.2-0.1,0.4-0.1
			c0.1,0,0.2,0,0.4,0.1c0.1,0,0.2,0.1,0.2,0.1c0.1,0,0.1,0.1,0.1,0.2C48.8,55,48.8,55.1,48.8,55.2z M48.4,55.2c0-0.1,0-0.2-0.1-0.2
			c-0.1-0.1-0.2-0.1-0.3-0.1c-0.1,0-0.2,0-0.3,0c-0.1,0-0.2,0.1-0.2,0.2c-0.1,0.1-0.1,0.1-0.2,0.2c0,0.1-0.1,0.2-0.1,0.3h0.3
			c0.1,0,0.3,0,0.5,0c0.1,0,0.2,0,0.3-0.1c0.1,0,0.1-0.1,0.2-0.1C48.4,55.3,48.4,55.3,48.4,55.2L48.4,55.2z"/>
		<path class="st11" d="M53.9,54.7C53.9,54.7,53.9,54.7,53.9,54.7L53.9,54.7l-0.2,0.6c-0.1,0.2-0.2,0.4-0.3,0.6s-0.2,0.4-0.3,0.6
			s-0.2,0.3-0.3,0.5l0,0h-0.1h-0.4h-0.1h0v0l-0.2-1.7L51.3,57l0,0l0,0h-0.1H51h-0.1h0c0,0,0,0,0,0l-0.2-2.2v-0.1l0,0h0.1H51l0,0l0,0
			l0.2,1.9l0,0l0.9-1.8l0,0l0,0h0.1h0.3l0,0l0,0l0.2,1.9l0,0l0,0c0.1-0.1,0.2-0.2,0.2-0.4s0.2-0.3,0.2-0.5s0.2-0.3,0.2-0.5
			c0.1-0.2,0.1-0.3,0.2-0.5l0,0l0,0h0.3l0,0L53.9,54.7z"/>
		<path class="st11" d="M56.4,55.5c0,0.1,0,0.3,0,0.4c0,0.1-0.1,0.3-0.1,0.4c-0.1,0.1-0.1,0.2-0.2,0.3c-0.1,0.1-0.2,0.2-0.3,0.3
			c-0.2,0.2-0.5,0.3-0.8,0.3c-0.1,0-0.3,0-0.4-0.1c-0.1,0-0.2-0.1-0.3-0.2c-0.1-0.1-0.1-0.2-0.2-0.3c0-0.1-0.1-0.2-0.1-0.4
			c0-0.1,0-0.3,0-0.4c0-0.1,0.1-0.3,0.1-0.4c0.1-0.1,0.1-0.2,0.2-0.3c0.1-0.1,0.2-0.2,0.3-0.3c0.1-0.1,0.2-0.1,0.3-0.2
			c0.1,0,0.3-0.1,0.4-0.1c0.1,0,0.3,0,0.4,0.1c0.1,0,0.2,0.1,0.3,0.2c0.1,0.1,0.1,0.2,0.2,0.3C56.4,55.2,56.4,55.4,56.4,55.5z
			 M56,55.5c0-0.1,0-0.2,0-0.2c0-0.1,0-0.1-0.1-0.2c-0.1,0-0.1-0.1-0.2-0.1c-0.1,0-0.2,0-0.2,0c-0.1,0-0.2,0-0.3,0
			c-0.1,0-0.2,0.1-0.2,0.2c-0.1,0.1-0.1,0.1-0.2,0.2c-0.1,0.1-0.1,0.2-0.1,0.3c0,0.1-0.1,0.2-0.1,0.3c0,0.1,0,0.2,0,0.3
			c0,0.1,0,0.1,0,0.2c0,0.1,0.1,0.2,0.2,0.3c0.2,0.1,0.4,0.1,0.5,0c0.1,0,0.2-0.1,0.2-0.2c0.1-0.1,0.1-0.1,0.2-0.2
			c0.1-0.1,0.1-0.2,0.1-0.3c0.1-0.1,0.1-0.2,0.1-0.3C56,55.7,56,55.6,56,55.5L56,55.5z"/>
		<path class="st11" d="M58.5,54.7L58.5,54.7C58.5,54.7,58.5,54.8,58.5,54.7c0,0.1,0,0.1,0,0.2v0.1c0,0,0,0,0,0.1l0,0l0,0h-0.1h-0.1
			h-0.1c-0.1,0-0.1,0-0.2,0.1c-0.1,0.1-0.2,0.1-0.2,0.2c-0.1,0.1-0.1,0.2-0.2,0.3c-0.1,0.1-0.1,0.3-0.1,0.4l-0.2,1l0,0l0,0h-0.1H57
			H57l0,0l0,0l0.5-2.3l0,0l0,0h0.1h0.2h0.1l0,0l0,0l-0.1,0.4c0-0.1,0.1-0.1,0.1-0.2c0.1-0.1,0.1-0.1,0.2-0.2c0.1,0,0.1-0.1,0.2-0.1
			c0.1,0,0.1,0,0.2,0L58.5,54.7l0.1-0.1l0,0C58.6,54.7,58.6,54.7,58.5,54.7C58.5,54.7,58.5,54.7,58.5,54.7z"/>
		<path class="st11" d="M59,57L59,57L59,57L59,57h-0.3h-0.1l0,0l0,0l0.7-3.4l0,0l0,0h0.1h0.2h0.1l0,0l0,0L59,57z"/>
		<path class="st11" d="M61.7,57C61.7,57,61.6,57.1,61.7,57l-0.2,0.1h-0.1l0,0l0,0l0.1-0.4c0,0.1-0.1,0.1-0.1,0.2
			C61.2,56.9,61.1,57,61,57c-0.1,0.1-0.2,0.1-0.3,0.1c-0.1,0-0.2,0-0.3,0c-0.1,0-0.2,0-0.3,0c-0.1,0-0.1-0.1-0.2-0.1
			c-0.1,0-0.1-0.1-0.1-0.2c0-0.1-0.1-0.1-0.1-0.2c0-0.1,0-0.1,0-0.2c0-0.1,0-0.1,0-0.2c0-0.1,0-0.2,0-0.3c0-0.1,0-0.3,0.1-0.4
			c0-0.1,0.1-0.3,0.2-0.4c0.1-0.1,0.1-0.2,0.2-0.3c0.1-0.1,0.2-0.2,0.3-0.2c0.1-0.1,0.3-0.1,0.4-0.1c0.1,0,0.1,0,0.2,0
			c0.1,0,0.1,0,0.2,0.1l0.1,0.1c0,0,0.1,0.1,0.1,0.1l0.3-1.3l0,0l0,0H62h0.2h0.1l0,0l0,0L61.7,57z M61.6,55.3
			c-0.1-0.1-0.2-0.2-0.3-0.3c-0.1,0-0.2-0.1-0.3,0c-0.1,0-0.2,0-0.2,0.1c-0.1,0-0.1,0.1-0.2,0.2c-0.1,0.1-0.1,0.2-0.2,0.2
			c0,0.1-0.1,0.2-0.1,0.3c0,0.1-0.1,0.2-0.1,0.3c0,0.1,0,0.2,0,0.3c0,0.1,0,0.3,0.1,0.4c0.1,0.1,0.2,0.1,0.3,0.1
			c0.1,0,0.2,0,0.3-0.1c0.1-0.1,0.2-0.1,0.3-0.2c0.1-0.1,0.2-0.2,0.2-0.3c0.1-0.1,0.1-0.3,0.1-0.4L61.6,55.3z"/>
		<path class="st12" d="M46.9,23.7c0-0.2,0.1-0.4-0.1-0.8s-0.3,0.1-0.5,0.2s-0.2-0.3-0.2-0.5s0.4-0.3,0.7-0.5s0-0.4-0.3-0.4
			s-0.9-0.1-1.1,0S45,21.2,45,21.1S44.8,21,44.7,21s-0.1-0.1-0.2-0.2c-0.2-0.1-0.3-0.2-0.5-0.2c-0.2,0,0,0.2,0,0.5s0.1,0.1,0.3,0.3
			s0.2,0.3,0,0.4c-0.2,0-0.3,0.1-0.4,0.2c-0.1,0.2,0.3,0.3,0.3,0.3v0.3c0,0.2,0.1,0.3,0.2,0.4c0.1,0,0.1,0.2,0.1,0.2
			c0,0.2,0,0.4,0,0.6c0,0.2-0.1,0.2-0.2,0.5c0,0,0,0.1,0,0.1c0.1-0.2,0.3,0,0.5-0.1s0.5,0.1,0.7,0s0.3,0,0.4-0.3
			c0-0.2,0-0.4-0.1-0.6c-0.2-0.5,0.4,0.4,0.4,0.4l0.2,0.2c0.1,0.1,0.2,0.5,0.3,0.7s0.2,0.1,0.5,0.3c0-0.2-0.1-0.6-0.1-0.9
			S46.9,23.9,46.9,23.7z"/>
	</g>
</g>
</svg>
