<?xml version="1.0" encoding="utf-8"?>
<!-- Generator: Adobe Illustrator 25.4.1, SVG Export Plug-In . SVG Version: 6.00 Build 0)  -->
<svg version="1.1" id="Layer_1" xmlns="http://www.w3.org/2000/svg" xmlns:xlink="http://www.w3.org/1999/xlink" x="0px" y="0px"
	 viewBox="0 0 64 59" style="enable-background:new 0 0 64 59;" xml:space="preserve">
<style type="text/css">
	.st0{fill:#00803E;}
	.st1{fill:url(#SVGID_1_);}
	.st2{fill:url(#SVGID_00000175308482753769696120000005430493299994535574_);}
	.st3{fill:url(#SVGID_00000136377955922554077850000003515768416016945843_);}
	.st4{fill:url(#SVGID_00000065765275479659725990000003453083822417983399_);}
	.st5{fill:#EC1C24;}
	.st6{fill:#FFD300;}
	.st7{fill:#0066B3;}
	.st8{fill:#E49F24;}
	.st9{fill:#00A551;}
</style>
<path class="st0" d="M54.6,32.2c0,0-0.2,0.4-0.2,0.5C53.8,33.7,53,34.5,52,35c-0.3,0.2-0.6,0.4-0.9,0.6c-0.1-0.1-0.2-0.3-0.3-0.5
	c-0.1-0.3-0.4-0.6-0.7-0.8c-0.2-0.2-0.3-0.3-0.4-0.3s-0.5-0.3-0.9-0.8c-0.2-0.3-0.6-0.4-0.9-0.4v0.4c0.1,0.3,0.1,0.5,0.2,0.8
	c0.1,0.3,0.3,0.6,0.6,0.8c0.4,0.5,0.7,1.1,1,1.7c0.2,0.3,0.8,1,0.8,1c0.1,0,0.2-0.1,0.3-0.1c0.2-0.1,0.4-0.1,0.6-0.2
	c0.1,0,0.5-0.2,0.7-0.3c0.3-0.2,0.7-0.3,1-0.4c0.3-0.1,0.2,0,0.3-0.2s0-0.3,0.1-0.6s0.3-0.3,0.6-0.5s0.3-0.2,0.3-0.4
	c0.1-0.5,0.2-1,0.2-1.5C54.6,33,54.6,32.2,54.6,32.2z"/>
<path class="st0" d="M48.1,7.3c-5.9-5.8-11.4-6.7-11.8-6.8s-0.5,0.3-0.7,0.4c-0.1,0.1-0.3,0-0.4-0.1c0,0,0,0,0,0
	c-0.1-0.1-0.6,0-0.9,0S33.7,1,33.3,1c-0.3,0-0.6,0-0.9,0.1c-0.6,0.1-0.6,0.3-0.5,0.3s0.4,0.2,0.3,0.3s-0.1,0-0.5,0.2
	S31.2,2.2,30.8,2s-0.7-0.3-0.9-0.1s0,0.2,0.2,0.5s0.4,0.5,0.6,0.5s0.2,0.2,0.3,0.4s-0.2,0.2-0.5,0.3s-0.1-0.3-0.2-0.6
	s-0.2-0.4-0.3-0.6s-0.4-0.2-0.8-0.4s-0.4,0-0.8,0.1s-0.1,0.2-0.1,0.4s0,0.2-0.2,0.2c-0.4,0-0.7,0-1.1,0.1c-0.5,0.1-0.3,0.2-0.4,0.2
	c-0.3,0.1-0.6,0.2-0.9,0.1c-0.6,0-0.7,0.2-1.3,0.2c-0.3,0-0.6,0.1-0.9,0.3c-0.4,0.2-0.3,0.3-0.8,0.3S22.6,4,22.5,3.8
	s-0.1,0.1-0.2,0.3s0,0.2-0.1,0.3c-0.1,0.1-0.3,0.2-0.5,0.2c-0.2,0.1,0.1,0-0.5,0.3s-0.4,0.5-0.5,0.6S20.2,5.6,20,5.6s-0.1-0.4,0-0.5
	s0.5,0,0.7,0s0.2-0.2,0.5-0.4s0.1-0.3,0.1-0.4S21,4.1,20.6,4.1C19.8,4,19,4,18.1,4.1c-0.8,0.1-1.6,0.3-2.3,0.7
	c-0.8,0.4-1.5,1-2.1,1.7c-0.6,0.7-1.1,1.4-1.4,2.3c-0.2,0.7,0.1,0.7,0.2,0.6c0.2-0.2,0.5-0.3,0.8-0.4c0.4-0.1,0.3,0.1,0.4,0.2
	s0,0.3,0.1,0.5S13.7,10.1,14,10c0.3-0.1,0.6-0.4,0.7-0.7c0.1-0.2,0.2-0.4,0.3-0.6c0.1-0.2,0.2-0.2,0.3-0.3s0.1-0.4,0.1-0.6
	s-0.1-0.4-0.1-0.7s0.2-0.2,0.4-0.4c0.1-0.1,0.3-0.2,0.5-0.2c0.2-0.1,0.2-0.1,0.5-0.4s0.3-0.1,0.2,0c-0.1,0.3-0.3,0.5-0.4,0.8
	c-0.2,0.2,0,0.1-0.2,0.3s0,0.5,0.1,0.6s0.2,0.1,0.5,0.1s-0.1,0.4-0.3,0.5s-0.2,0.1-0.4,0.3c-0.1,0.2-0.2,0.4-0.3,0.7
	c-0.1,0.2-0.3,0.4-0.6,0.4c-0.3,0-0.6,0.1-0.9,0.3c-0.3,0-0.7,0-1,0h-0.6c-0.3,0-0.3,0.2-0.6,0.6c-0.5,0.6-1.1,1.2-1.7,1.6
	c-0.8,0.6-0.8,0.8-0.9,0.9s0,0.2,0.1,0.4c0.1,0.2,0.1,0.5,0.3,0.7c0.1,0.3-0.2,0.4-0.3,0.7s-0.3,0.1-1,0.2s-0.7,0.6-0.8,1
	S7.7,17,7.7,17.4s-0.1,0.8,0.6,0.9s0.8-0.4,1-0.5c0.3-0.3,0.4-0.6,0.6-1c0.2-0.5,0.4-1,0.8-1.4c0.3-0.3,0.5-0.6,0.7-0.5
	s0.2,0,0.4-0.1c0.2-0.1,0.3-0.2,0.5-0.3c0.2-0.2,0.5,0.1,0.6,0.4c0.1,0.2,0.3,0.4,0.6,0.6c0.3,0.2,0.5,0.5,0.7,0.9
	c0.1,0.3,0,0.4-0.3,0.4s-0.4,0.1-0.4,0.2c0,0.1-0.1,0.3-0.1,0.4c0,0.1,0.2,0.2,0.3,0.3s0.3,0,0.3-0.2s-0.1-0.4-0.1-0.5
	s0.1-0.1,0.2-0.1s0.2,0,0.3-0.1c0.1-0.3,0.1-0.6,0.1-0.9c0-0.3-0.4-0.8-0.8-1.2s-0.3-0.4-0.2-0.7s0.4-0.1,0.6,0.1
	c0.4,0.3,0.7,0.6,1,0.9c0.3,0.4,0.1,0.4,0.2,0.9s0.4,0.8,0.5,1.3s0.3,0.3,0.3,0.1s0-0.6,0-1.1s0.1-0.8,0.3-0.9
	c0.3-0.1,0.6,0.2,0.7,0.5c0.1,0.5,0.3,0.9,0.5,1.3c0.3,0.4,0.5,0.2,0.8-0.1s0.5,0.1,0.6,0.4s0.4-0.1,0.8-0.5s0.5,0.2,0.5,0.5
	c0,0.4-0.1,0.8-0.2,1.2c-0.1,0.4-0.2,1-0.5,1.2s-0.5,0.1-0.8,0s-0.6,0.2-1,0.2c-0.3,0-0.5-0.1-0.8-0.2c-0.4,0-0.7-0.2-1-0.4
	c-0.4-0.3-0.5-0.2-0.5-0.2c-0.4,0-0.4,0.1-0.4,0.3c0,0.3-0.1,0.5-0.1,0.8c0,0.2-0.3,0.3-0.6,0.2S14,20,13.8,20s-0.2-0.1-0.3-0.3
	c-0.1-0.2-0.2-0.3-0.3-0.5c-0.1-0.2-0.4,0-0.7-0.1c-0.2,0-0.4-0.2-0.4-0.4c0-0.2,0.1-0.3,0.2-0.5s0.1-0.4,0.1-0.7s-0.3-0.1-0.5-0.1
	l-0.9,0.1c-0.4,0-0.7,0.2-0.9,0.5c-0.3,0.3-0.6,0.4-1,0.4c-0.3,0-0.8,0-0.9,0.2C8,19,7.9,19.2,7.8,19.5c-0.2,0.2-0.3,0.4-0.4,0.6
	c-0.1,0.4-0.3,0.8-0.4,1.1c-0.2,0.3-0.3,0.2-0.6,0.3s-0.2,0.2-0.2,0.3c-0.1,0.2-0.2,0.4-0.4,0.5c-0.2,0.2-0.4,0.1-0.4,1.6
	c-0.1,1.4,0,2.8,0.1,4.2c0.1,1,0.6,0.9,0.8,1.3s0.5,1,0.9,1.6s1,0.4,1.4,0.4c0.3,0,0.6,0.1,0.8,0.3c0.1,0,0.7-0.4,0.7-0.4
	c0.7-0.3,0.9,0.1,1.1,0.5c0.3,0.4,0.8,0.6,1.3,0.5c0.5,0,0.4,1.2,0.3,1.6c-0.1,0.4,0,0.9,0.3,1.3c0.7,0.7,1.2,1.6,1.4,2.5
	c0.3,1,0.4,2.1,0.4,3.1c0,0.4,0.7,1.3,0.9,1.8c0.2,0.5,0.3,1,0.5,1.5c0,0.3,0.2,0.7,0.5,0.8c0.4,0.3,0.5,1.1,0.8,1.6
	c0.2,0.3,0.5,0.6,0.9,0.7c0.2,0.1,1.6,0.4,1.8,0.4s0.7-0.8,0.9-1.1c0.3-0.5,0.7-0.9,1.1-1.3c0.3-0.3,0.2-1,0.2-1.5
	c-0.1-0.4,0.1-0.8,0.4-1.1c0.4-0.1,0.7-0.4,1-0.7c0.3-0.5,0.4-1.1,0.1-1.7c-0.4-0.7-0.7-1.4-0.9-2.2c0-0.3-0.1-1-0.1-1.1
	c0.2-0.4,0.4-0.7,0.7-1c0.8-0.9,1.5-1.8,2.2-2.8c0.5-0.7,0.9-1.6,1.1-2.5c0-0.8-0.4-0.6-0.6-0.5s-0.3,0.4-0.6,0.3s-1.5-0.2-2-0.3
	s-0.3-0.3-0.3-0.7s-0.1-0.4-0.7-0.8c-0.4-0.3-0.6-0.8-0.7-1.2c0-0.4-0.2-0.5-0.5-0.9c-0.4-0.4-0.6-0.8-0.7-1.3
	c-0.1-0.6-0.1-0.9-0.4-0.9S20,23.9,20,23.6s-0.1-0.6-0.6-1.4s-0.2-1.2-0.1-1.1s0.4,0.3,0.4,0.1s0.2-0.1,0.3,0
	c0.2,0.4,0.4,0.8,0.5,1.2c0.2,0.5,0.5,1,0.8,1.4c0.2,0.3,0.3,0.6,0.2,1c0,0.5,0.9,1.5,1.5,2.1s0.6,1.6,0.9,2.2
	c0.1,0.3,0.4,0.4,0.6,0.3c0.1,0,0.2-0.1,0.2-0.2c0.1-0.1,0.2,0,0.3-0.1c0.3-0.1,0.6-0.3,0.7-0.5c0.3-0.3,0.9-0.2,1-0.3
	c0.3-0.2,0.5-0.4,0.8-0.6c0.2-0.2,0.5-0.3,0.8-0.4c0.3,0,0.3-0.1,0.4-0.4s0.4-0.2,0.5-0.4c0.1-0.2,0.3-0.3,0.5-0.3
	c0.1,0,0.1-0.6,0.1-0.7s0.1-0.2,0.4-0.6c0.3-0.3,0.3-0.7,0.1-1.1c-0.3-0.2-0.5-0.3-0.8-0.4c-0.2-0.1-0.4-0.3-0.6-0.6
	c-0.2-0.3-0.5,0.1-0.6,0.2s-0.4,0.5-1.2,0.1s-1-1.4-1.2-1.8s-0.8-0.5-1-0.8s0.1-0.7,0.6-0.8s0.8,0.6,0.9,0.9
	c0.3,0.5,0.8,0.8,1.3,1.1c0.5,0.3,0.4,0.3,0.9-0.1s0.6-0.2,0.6-0.1c0.2,0.3,0.3,0.5,0.5,0.7c0.2,0.1,0.5,0.1,1.3,0.2
	c1,0.2,2.1,0.2,3.1,0c0.2,0.1,0.3,0.3,0.4,0.5c0.2,0.3,0.4,0.4,0.7,0.7c0.2,0.2,0.5,0.3,0.8,0.2c-0.1,0.1-0.1,0.3-0.1,0.4
	c0,0.1,0,0.3,0.1,0.4c0,0,0-0.1,0,0c0,0.3,0.3,0.5,0.6,0.5c0,0,0.1,0,0.1,0c0.4-0.1,0.4-0.6,0.4-0.9s0.3-0.4,0.3,0
	c0.1,0.3,0.2,0.6,0.3,0.8c0,0.5,0,1,0.1,1.5c0.2,0.8,0.5,1.5,0.9,2.2c0.3,0.5,0.3,0.9,0.5,1.3c0.2,0.4,0.4,0.8,0.4,1.2
	c0.2,0.6,0.4,0.8,0.4,0.7c0.5-0.1,1.1-1.2,1.3-2.1c0.1-0.7,0.1-1.4,0-2.2c0.2,0,0.4-0.1,0.5-0.2c0.5-0.4,0.9-0.9,1.3-1.4
	c0.5-0.7,0.9-0.7,1-1.1s0.3-0.1,0.5-0.3s0.5,0.1,0.7,0c0.2,0,0.4-0.1,0.4-0.3c0-0.2,0-0.4-0.1-0.6c-0.2-0.5,0.5,0.4,0.5,0.4l0.2,0.2
	c0.1,0.1,0.2,0.5,0.3,0.7s0.5-0.1,1,1c0.1,0.5,0.2,0.9,0.3,1.4c0.1,0.4,0.3,0,0.5-0.3c0.1-0.2,0.2-0.3,0.4-0.4
	c0.2,0.5,0.4,1,0.5,1.6c0.2,0.8,0.2,1.6,0.1,2.4c-0.1,0.6,0.1,0.7,0.2,0.9s0.3,0.5,0.3,0.7s0.2,0.7,0.2,0.7c0.1,0.6,0.9,1.1,0.9,1.1
	c0.2,0,0-0.9,0-1.3c-0.1-0.3-0.2-0.6-0.3-0.8c-0.1-0.3-0.3-0.5-0.6-0.5c-0.2-0.1-0.1-0.2-0.1-0.4c0-0.2-0.1-0.4-0.3-0.6
	c0-0.4,0-0.8,0.1-1.1c0-0.3,0.1-0.6,0.2-0.8c0.1-0.2,0.2-0.1,0.2,0s0.1,0.1,0.3,0.3c0.1,0.1,0.2,0.3,0.3,0.5
	c0.2,0.3,0.4,0.4,0.6,0.5c0.1,0.2,0.2,0.4,0.2,0.6c0,0.2,0.1,0.4,0.1,0.4s0.1-0.1,0.2-0.3s0.5-0.6,0.8-1s0.2,0.1,0.3-0.3
	c0.1-0.3,0.1-0.7,0-1c0-0.3-0.1-0.5-0.2-0.8c-0.2-0.3-0.4-0.6-0.7-0.8c-0.3-0.2-0.5-0.6-0.5-0.9c0-0.3,0-0.5,0.2-0.7
	s0.2-0.7,0.6-0.7c0.2,0,0.4,0.2,0.4,0.5c0,0,0,0,0,0c0,0.2,0.2-0.2,0.2-0.4s0.3-0.1,0.5-0.2c0.2-0.1,0.3-0.3,0.4-0.4
	c0.2-0.3,0.3-0.1,0.5-0.2s0.3,0,0.3-0.2s0.5-0.2,0.5-0.2C55.4,18.1,52.2,11.4,48.1,7.3z M22,14.3c-0.2,0.2-0.2,0.3-0.5,0.3
	s-1,0.1-1.4,0.1s-0.4,0-0.4,0s0.1-0.5-0.1-0.5s-0.4,0-0.6,0.1s-0.1,0.4-0.3,0.4s-0.7,0.2-0.9,0s-0.3-0.1-0.3-0.3
	c0-0.2,0-0.5,0.1-0.7c0.2-0.2-0.1-0.1,0.2-0.5c0.2-0.2,0.3-0.4,0.5-0.5c0.2-0.1,0.5-0.5,0.7-0.4s0.5,0.3,0.5,0.5
	c0,0.1,0.1,0.2,0.1,0.3l0.2-0.2c0,0,0-0.2,0.3-0.4s0.5-0.5,0.6-0.4c0.1,0.1,0.1,0.3,0.1,0.5c0,0.2,0,0.4-0.2,0.4s-0.1,0.1-0.3,0.1
	l-0.4,0.1c0.1,0,0.2,0,0.4,0c0.1,0.1,0.4,0.2,0.4,0.2c0.2,0,0.4-0.1,0.6-0.1c0.2,0,0.6,0,0.7,0.2S22.1,14.1,22,14.3z M27.3,16.1
	c-0.5,0.2-1,0.2-1.5,0c-0.4-0.2-0.6-0.4-0.6-0.6c0-0.2,0-0.5,0.1-0.7c0.1-0.2,0.1-0.4,0.1-0.5C25.2,14.2,25,14,24.8,14
	c-0.4-0.1-0.4-0.1-0.5-0.5c-0.1-0.2-0.1-0.5-0.1-0.7c-0.1-0.3,0-0.5,0.2-0.7c0.3-0.3,0.2-0.2,0.4-0.4s0.2-0.2,0.5-0.3
	s0.4-0.2,0.7-0.1s0.5,0.2,0.7,0.4s0.4,0.3,0.1,0.3c-0.2,0-0.4,0-0.6,0c-0.2,0-0.5,0.1-0.5,0.4s0,0.5,0.2,0.7l0.4,0.3
	c0.2,0.1,0,0.1,0.2,0.2s0.3-0.1,0.4,0.1c0.1,0.1,0.1,0.3,0.1,0.4c0,0.1,0,0.2-0.2,0.3s0,0.3,0.2,0.6c0.1,0.3,0.3,0.5,0.3,0.8
	C27.4,15.9,27.5,16,27.3,16.1L27.3,16.1z"/>
<path class="st0" d="M41.5,31.4c-0.2,0-0.2,0.6-0.2,1c0,0.3,0,0.5,0.1,0.8c0.1,0.3,0.3,0.4,0.4,0.4s0.6-0.7,0.5-1.2
	S41.8,31.4,41.5,31.4z"/>
<path class="st0" d="M26.9,41.8c-0.1,0.1-0.3,0.3-0.5,0.3c-0.2,0.1-0.4,0.2-0.7,0.2c-0.4,0.1-0.4,0.5-0.4,0.8s0.1,0.2,0.2,0.3
	s0.1,0.3-0.1,0.6c-0.1,0.2-0.2,0.4-0.1,0.7c0,0.3,0.2,0.4,0.4,0.6c0.2,0.2,0.4,0.2,0.6,0.1c0.2-0.1,0.4-0.5,0.5-0.8
	c0.1-0.3,0.2-0.5,0.4-0.8c0.1-0.2,0.2-0.4,0.1-0.6c0-0.2,0-0.5,0.1-0.7c0.1-0.1,0.2-0.3,0.3-0.4c0-0.2,0-0.4-0.1-0.6
	C27.4,41.6,27.2,41.7,26.9,41.8z"/>
<radialGradient id="SVGID_1_" cx="33.8887" cy="40.9336" r="34.37" gradientTransform="matrix(0.94 0 0 -0.94 12.23 62.33)" gradientUnits="userSpaceOnUse">
	<stop  offset="0" style="stop-color:#B2D235"/>
	<stop  offset="0.11" style="stop-color:#AAD037"/>
	<stop  offset="0.28" style="stop-color:#95C93B"/>
	<stop  offset="0.48" style="stop-color:#73BF42"/>
	<stop  offset="0.56" style="stop-color:#62BA46"/>
	<stop  offset="0.6" style="stop-color:#4FB648"/>
	<stop  offset="0.66" style="stop-color:#33B04B"/>
	<stop  offset="0.73" style="stop-color:#1CAB4E"/>
	<stop  offset="0.8" style="stop-color:#0CA850"/>
	<stop  offset="0.89" style="stop-color:#03A651"/>
	<stop  offset="1" style="stop-color:#00A551"/>
</radialGradient>
<path class="st1" d="M54.6,31.6c0,0-0.2,0.4-0.2,0.5c-0.6,0.9-1.4,1.7-2.3,2.3C51.2,35,51.1,35,51.1,35c-0.1-0.1-0.2-0.3-0.3-0.5
	c-0.1-0.3-0.4-0.6-0.7-0.8c-0.2-0.2-0.3-0.3-0.4-0.3s-0.5-0.3-0.9-0.8c-0.2-0.3-0.6-0.4-0.9-0.4v0.4c0.1,0.3,0.1,0.5,0.2,0.8
	c0.1,0.3,0.3,0.6,0.6,0.8c0.4,0.5,0.7,1.1,1,1.7c0.2,0.3,0.8,1,0.8,1c0.1,0,0.2-0.1,0.3-0.1c0.2-0.1,0.4-0.1,0.6-0.2
	c0.1-0.1,0.5-0.2,0.7-0.3c0.3-0.2,0.7-0.3,1-0.4c0.3-0.1,0.2,0,0.3-0.2s0-0.3,0.1-0.6s0.3-0.3,0.6-0.5s0.3-0.2,0.3-0.4
	c0.1-0.5,0.2-1,0.2-1.5C54.6,32.4,54.6,31.6,54.6,31.6z"/>
<radialGradient id="SVGID_00000022554634293970933650000010597888278600980876_" cx="31.91" cy="43.04" r="34.38" gradientTransform="matrix(1 0 0 -1 0 62)" gradientUnits="userSpaceOnUse">
	<stop  offset="0" style="stop-color:#B2D235"/>
	<stop  offset="0.11" style="stop-color:#AAD037"/>
	<stop  offset="0.28" style="stop-color:#95C93B"/>
	<stop  offset="0.48" style="stop-color:#73BF42"/>
	<stop  offset="0.56" style="stop-color:#62BA46"/>
	<stop  offset="0.6" style="stop-color:#4FB648"/>
	<stop  offset="0.66" style="stop-color:#33B04B"/>
	<stop  offset="0.73" style="stop-color:#1CAB4E"/>
	<stop  offset="0.8" style="stop-color:#0CA850"/>
	<stop  offset="0.89" style="stop-color:#03A651"/>
	<stop  offset="1" style="stop-color:#00A551"/>
</radialGradient>
<path style="fill:url(#SVGID_00000022554634293970933650000010597888278600980876_);" d="M48.1,6.8C42.2,1,36.7,0,36.3,0
	s-0.5,0.3-0.7,0.4c-0.1,0.1-0.3,0-0.4-0.1c0,0,0,0,0,0c-0.1-0.1-0.6,0-0.9,0s-0.6,0.2-1,0.2c-0.3,0-0.6,0-0.9,0.1
	c-0.6,0.2-0.6,0.3-0.5,0.3s0.4,0.2,0.3,0.3s-0.1,0-0.5,0.2s-0.4,0.2-0.8,0.1s-0.7-0.3-0.9-0.1s0,0.2,0.2,0.5s0.4,0.5,0.6,0.5
	s0.2,0.2,0.3,0.4S30.9,3,30.6,3.1s-0.1-0.3-0.2-0.6s-0.2-0.4-0.3-0.6s-0.4-0.2-0.8-0.4s-0.4,0-0.8,0.1S28.4,1.8,28.4,2
	s0,0.2-0.2,0.2c-0.4,0-0.7,0-1.1,0.1c-0.5,0.1-0.3,0.2-0.4,0.2c-0.3,0.1-0.6,0.2-0.9,0.1c-0.6,0-0.7,0.2-1.3,0.2
	c-0.3,0-0.6,0.1-0.9,0.3c-0.4,0.2-0.3,0.2-0.8,0.3s-0.2-0.1-0.3-0.3s-0.1,0.1-0.2,0.3s0,0.2-0.1,0.3c-0.1,0.1-0.3,0.2-0.5,0.2
	c-0.2,0.1,0.1,0-0.5,0.3S20.8,4.9,20.7,5S20.2,5,20,5s-0.1-0.4,0-0.5s0.5,0,0.7,0s0.2-0.2,0.5-0.4s0.1-0.3,0.1-0.4S21,3.5,20.6,3.5
	c-0.8-0.1-1.7-0.1-2.5,0c-0.8,0.1-1.6,0.3-2.3,0.7c-0.8,0.4-1.5,1-2.1,1.6c-0.6,0.7-1.1,1.4-1.4,2.3c-0.2,0.7,0.1,0.7,0.2,0.6
	c0.2-0.2,0.5-0.3,0.8-0.4c0.4-0.1,0.3,0.1,0.4,0.2s0,0.3,0.1,0.5S13.7,9.5,14,9.4c0.3-0.1,0.6-0.4,0.7-0.7c0.1-0.2,0.2-0.4,0.3-0.6
	c0.1-0.2,0.2-0.2,0.3-0.3s0.1-0.4,0.1-0.6s-0.1-0.4-0.1-0.7s0.2-0.2,0.4-0.4C16,6.1,16.1,6,16.3,6c0.2-0.1,0.2-0.1,0.5-0.4
	s0.3-0.1,0.2,0c-0.1,0.3-0.3,0.5-0.4,0.8c-0.2,0.2,0,0.1-0.2,0.3s0,0.5,0.1,0.6s0.2,0.1,0.5,0.1s-0.1,0.4-0.3,0.4s-0.2,0.1-0.4,0.3
	c-0.1,0.2-0.2,0.5-0.3,0.7c-0.1,0.2-0.3,0.4-0.6,0.4c-0.3,0-0.6,0.1-0.9,0.3c-0.3,0-0.7,0-1,0h-0.6c-0.3,0-0.3,0.2-0.6,0.6
	c-0.5,0.6-1.1,1.2-1.7,1.6c-0.8,0.6-0.8,0.8-0.9,0.9s0,0.2,0.1,0.4c0.1,0.2,0.1,0.5,0.3,0.7c0.1,0.3-0.2,0.4-0.3,0.7s-0.3,0.1-1,0.2
	s-0.7,0.6-0.8,1s-0.2,0.8-0.2,1.1s-0.1,0.8,0.6,0.9s0.8-0.4,1-0.5c0.3-0.3,0.4-0.6,0.6-1c0.2-0.5,0.4-1,0.8-1.4
	c0.3-0.3,0.5-0.6,0.7-0.5s0.2,0,0.4-0.1c0.2-0.1,0.3-0.2,0.5-0.3c0.2-0.2,0.5,0.1,0.6,0.4c0.1,0.2,0.3,0.4,0.6,0.6
	c0.3,0.2,0.5,0.5,0.7,0.9c0.1,0.3,0,0.4-0.3,0.4s-0.4,0.1-0.4,0.2c0,0.1-0.1,0.3-0.1,0.4c0,0.1,0.2,0.2,0.3,0.3s0.3,0,0.3-0.2
	s-0.1-0.4-0.1-0.5s0.1-0.1,0.2-0.1c0.1,0,0.2-0.1,0.3-0.1c0.1-0.3,0.1-0.6,0.1-0.9c0-0.3-0.4-0.8-0.8-1.2s-0.3-0.4-0.2-0.7
	s0.4-0.1,0.6,0.1c0.4,0.3,0.7,0.6,1,0.9c0.3,0.4,0.1,0.4,0.2,0.9s0.4,0.8,0.5,1.3s0.3,0.3,0.3,0.1s0-0.6,0-1.1s0.1-0.8,0.3-0.9
	c0.3-0.1,0.6,0.2,0.7,0.5c0.1,0.5,0.2,0.9,0.4,1.3c0.3,0.4,0.5,0.2,0.8-0.1s0.5,0.1,0.6,0.4s0.4,0,0.8-0.5s0.5,0.2,0.5,0.4
	c0,0.4,0,0.8-0.1,1.2c-0.1,0.4-0.2,1-0.5,1.2s-0.5,0.1-0.8,0s-0.6,0.2-1,0.2c-0.2,0-0.5-0.1-0.7-0.2c-0.4,0-0.7-0.2-1-0.4
	c-0.4-0.3-0.5-0.2-0.5-0.2c-0.4,0-0.4,0.1-0.4,0.3c0,0.3-0.1,0.5-0.1,0.8c0,0.2-0.3,0.3-0.6,0.2s-0.3-0.2-0.5-0.3s-0.2-0.1-0.3-0.3
	c-0.1-0.2-0.2-0.3-0.3-0.5c-0.1-0.2-0.4,0-0.7-0.1c-0.2,0.1-0.4-0.1-0.5-0.3c0,0,0,0,0-0.1c0-0.2,0.1-0.3,0.2-0.5s0.1-0.4,0.1-0.7
	s-0.3,0-0.5,0l-0.9,0.1c-0.4,0-0.7,0.2-0.9,0.5c-0.3,0.3-0.6,0.4-1,0.4c-0.3,0-0.8,0-0.9,0.2C8,18.5,7.9,18.7,7.8,19
	c-0.2,0.2-0.3,0.4-0.4,0.6C7.2,20,7.1,20.3,7,20.7C6.9,21,6.7,21,6.5,21.1s-0.2,0.2-0.2,0.3c-0.1,0.2-0.2,0.4-0.4,0.5
	c-0.2,0.2-0.4,0.1-0.4,1.6c-0.1,1.4,0,2.8,0.1,4.2c0.1,1,0.6,0.9,0.8,1.3s0.5,1,0.9,1.6s1,0.4,1.4,0.4c0.3,0,0.6,0.1,0.8,0.3
	c0.1,0,0.7-0.4,0.7-0.4c0.7-0.3,0.9,0.1,1.1,0.5c0.3,0.4,0.8,0.6,1.3,0.5c0.5,0,0.4,1.2,0.3,1.6c-0.1,0.4,0,0.9,0.3,1.2
	c0.7,0.7,1.2,1.6,1.4,2.5c0.3,1,0.4,2.1,0.4,3.1c0,0.4,0.7,1.3,0.9,1.8c0.2,0.5,0.3,1,0.5,1.5c0,0.3,0.2,0.7,0.5,0.9
	c0.4,0.3,0.5,1.1,0.8,1.6c0.2,0.3,0.5,0.6,0.9,0.7c0.2,0.1,1.6,0.4,1.8,0.4s0.7-0.8,0.9-1.2c0.3-0.5,0.7-0.9,1.1-1.3
	c0.3-0.3,0.2-1,0.2-1.5c-0.1-0.4,0.1-0.8,0.4-1c0.4-0.1,0.7-0.4,1-0.7c0.3-0.5,0.4-1.1,0.1-1.7c-0.4-0.7-0.6-1.4-0.9-2.2
	c0-0.3-0.1-1-0.1-1.1c0.2-0.4,0.4-0.7,0.7-1c0.8-0.9,1.5-1.8,2.2-2.8c0.5-0.7,0.9-1.6,1.1-2.5c0-0.8-0.4-0.6-0.6-0.5
	S26,30.1,25.6,30s-1.5-0.2-2-0.3s-0.3-0.3-0.3-0.7s-0.1-0.4-0.7-0.8C22.3,28,22,27.5,22,27c0-0.4-0.2-0.5-0.5-0.9
	c-0.4-0.4-0.6-0.8-0.7-1.3c-0.1-0.6-0.1-0.9-0.4-0.9s-0.3-0.5-0.2-0.8s-0.1-0.6-0.6-1.4s-0.2-1.2-0.1-1.1s0.4,0.3,0.4,0.1
	s0.2-0.1,0.3,0c0.2,0.4,0.4,0.8,0.5,1.2c0.2,0.5,0.5,1,0.8,1.4c0.2,0.3,0.3,0.6,0.2,1c0,0.5,0.9,1.5,1.5,2.1s0.6,1.6,0.9,2.2
	c0.1,0.3,0.4,0.4,0.7,0.3c0.1,0,0.2-0.1,0.2-0.2c0.1-0.1,0.2,0,0.3-0.1c0.3-0.1,0.6-0.3,0.7-0.5c0.3-0.3,0.9-0.2,1-0.3
	c0.3-0.2,0.5-0.4,0.8-0.6c0.2-0.2,0.5-0.3,0.8-0.4c0.3,0,0.3-0.1,0.4-0.4s0.4-0.2,0.5-0.4c0.1-0.2,0.3-0.3,0.5-0.3
	c0.1,0,0.1-0.6,0.1-0.7s0.1-0.2,0.4-0.6c0.3-0.3,0.3-0.7,0.1-1.1c-0.3-0.2-0.5-0.3-0.8-0.4c-0.2-0.1-0.4-0.3-0.6-0.6
	c-0.2-0.3-0.5,0.1-0.6,0.2s-0.4,0.5-1.2,0.1s-1.1-1.4-1.3-1.8s-0.8-0.5-1-0.8s0.1-0.7,0.6-0.8s0.8,0.6,0.9,0.9
	c0.3,0.5,0.8,0.8,1.3,1.1c0.5,0.3,0.4,0.3,0.9-0.1s0.6-0.2,0.6-0.1c0.2,0.3,0.3,0.5,0.5,0.7c0.2,0.1,0.5,0.1,1.3,0.2
	c1,0.2,2.1,0.2,3.1,0c0.2,0.1,0.3,0.3,0.4,0.5c0.2,0.3,0.4,0.4,0.7,0.7c0.2,0.2,0.5,0.3,0.8,0.2c-0.1,0.1-0.1,0.3-0.1,0.4
	c0,0.1,0,0.3,0.1,0.4c0,0,0-0.1,0,0s0.2,0.6,0.7,0.5s0.4-0.6,0.4-0.8s0.3-0.4,0.3,0c0.1,0.3,0.2,0.6,0.3,0.8c0,0.5,0,1,0.1,1.5
	c0.2,0.8,0.5,1.5,0.9,2.2c0.3,0.5,0.3,0.9,0.5,1.4c0.2,0.4,0.4,0.8,0.4,1.2c0.2,0.6,0.4,0.8,0.4,0.7c0.5-0.1,1.1-1.2,1.3-2.1
	c0.1-0.7,0.1-1.4,0-2.2c0.2,0,0.4-0.1,0.5-0.2c0.5-0.4,0.9-0.9,1.3-1.4c0.5-0.7,0.9-0.7,1-1.1s0.3-0.1,0.5-0.3s0.5,0.1,0.7,0
	s0.3,0,0.4-0.3c0-0.2,0-0.4-0.1-0.6c-0.2-0.5,0.5,0.4,0.5,0.4l0.2,0.2c0.1,0.1,0.2,0.5,0.3,0.7s0.5-0.1,1,1c0.1,0.5,0.2,0.9,0.3,1.4
	c0.1,0.4,0.3,0,0.5-0.3c0.1-0.2,0.2-0.3,0.4-0.4c0.2,0.5,0.4,1.1,0.5,1.6c0.1,0.8,0.2,1.6,0.1,2.4c-0.1,0.6,0.1,0.7,0.2,0.9
	s0.3,0.5,0.3,0.7c0.1,0.2,0.2,0.7,0.2,0.7c0.1,0.6,0.9,1.1,0.9,1.1c0.2,0,0-0.9,0-1.3c-0.1-0.3-0.2-0.6-0.3-0.8
	c-0.1-0.3-0.3-0.4-0.6-0.5C49.8,31.1,50,31,50,30.7c0-0.2-0.1-0.4-0.3-0.6c0-0.4,0-0.7,0-1.1c0-0.3,0.1-0.6,0.2-0.8
	c0.1-0.2,0.2-0.1,0.2,0s0.1,0.1,0.3,0.3c0.1,0.1,0.2,0.3,0.3,0.5c0.2,0.3,0.4,0.4,0.6,0.5c0.1,0.2,0.2,0.4,0.2,0.6
	c0,0.2,0.1,0.4,0.1,0.4s0.1-0.1,0.2-0.3s0.5-0.6,0.8-1s0.2,0.1,0.3-0.3c0.1-0.3,0.1-0.7,0-1c0-0.3-0.1-0.5-0.2-0.8
	c-0.2-0.3-0.4-0.6-0.7-0.8c-0.3-0.2-0.5-0.6-0.5-0.9c0-0.3,0-0.5,0.2-0.7s0.2-0.7,0.6-0.7c0.2,0,0.5,0.2,0.5,0.4c0,0,0,0,0,0.1
	c0,0.2,0.2-0.2,0.2-0.4s0.3-0.1,0.5-0.2c0.2-0.1,0.3-0.3,0.4-0.4c0.2-0.3,0.3-0.1,0.5-0.2s0.3,0,0.3-0.2s0.5-0.2,0.5-0.2
	C55.4,17.5,52.2,10.8,48.1,6.8z M22,13.7c-0.2,0.2-0.2,0.3-0.5,0.3s-1,0.1-1.4,0.1s-0.4,0-0.4,0s0.1-0.5-0.1-0.5s-0.4,0-0.6,0.1
	s-0.1,0.4-0.3,0.4s-0.7,0.2-0.9,0s-0.3-0.1-0.3-0.3c0-0.2,0-0.5,0.1-0.7c0.2-0.2-0.1-0.1,0.2-0.5c0.2-0.2,0.3-0.4,0.5-0.5
	c0.2-0.1,0.5-0.5,0.7-0.4s0.5,0.3,0.5,0.5c0,0.1,0.1,0.2,0.1,0.3l0.2-0.2c0,0,0-0.2,0.3-0.4s0.5-0.5,0.6-0.4
	c0.1,0.1,0.1,0.3,0.1,0.5c0,0.2,0,0.4-0.2,0.4l-0.3,0.1l-0.4,0.1c0.1,0,0.2,0,0.4,0l0.4,0.2c0.2,0,0.4-0.1,0.6-0.1
	c0.2,0,0.6,0,0.7,0.2S22.1,13.5,22,13.7z M27.3,15.6c-0.5,0.2-1,0.1-1.5-0.1c-0.4-0.2-0.6-0.4-0.6-0.6c0-0.2,0-0.5,0.1-0.7
	c0.1-0.2,0.1-0.4,0.1-0.5c-0.1-0.2-0.2-0.3-0.4-0.4c-0.4-0.1-0.4-0.1-0.5-0.5c-0.1-0.2-0.1-0.5-0.1-0.7c-0.1-0.3,0-0.5,0.2-0.7
	c0.3-0.3,0.2-0.2,0.4-0.4s0.2-0.2,0.5-0.3s0.4-0.2,0.7-0.1s0.5,0.2,0.7,0.4s0.4,0.3,0.1,0.3h-0.6c-0.2,0-0.5,0.1-0.5,0.4
	s0,0.5,0.2,0.7l0.4,0.3c0.2,0.1,0,0.1,0.2,0.2s0.3-0.1,0.4,0.1c0.1,0.1,0.1,0.3,0.1,0.4c0,0.1,0,0.2-0.2,0.3s0,0.3,0.2,0.6
	c0.1,0.3,0.3,0.5,0.3,0.8C27.4,15.3,27.5,15.5,27.3,15.6L27.3,15.6z"/>
<radialGradient id="SVGID_00000026860628389631999790000018110838534852264631_" cx="31.91" cy="43.04" r="34.39" gradientTransform="matrix(1 0 0 -1 0 62)" gradientUnits="userSpaceOnUse">
	<stop  offset="0" style="stop-color:#B2D235"/>
	<stop  offset="0.11" style="stop-color:#AAD037"/>
	<stop  offset="0.28" style="stop-color:#95C93B"/>
	<stop  offset="0.48" style="stop-color:#73BF42"/>
	<stop  offset="0.56" style="stop-color:#62BA46"/>
	<stop  offset="0.6" style="stop-color:#4FB648"/>
	<stop  offset="0.66" style="stop-color:#33B04B"/>
	<stop  offset="0.73" style="stop-color:#1CAB4E"/>
	<stop  offset="0.8" style="stop-color:#0CA850"/>
	<stop  offset="0.89" style="stop-color:#03A651"/>
	<stop  offset="1" style="stop-color:#00A551"/>
</radialGradient>
<path style="fill:url(#SVGID_00000026860628389631999790000018110838534852264631_);" d="M41.5,30.8c-0.2,0-0.2,0.6-0.2,1
	c0,0.3,0,0.5,0.1,0.8c0.1,0.3,0.3,0.4,0.4,0.4s0.6-0.7,0.5-1.2S41.8,30.8,41.5,30.8z"/>
<radialGradient id="SVGID_00000106830973418826438790000017175220189803155100_" cx="31.92" cy="43.03" r="34.38" gradientTransform="matrix(1 0 0 -1 0 62)" gradientUnits="userSpaceOnUse">
	<stop  offset="0" style="stop-color:#B2D235"/>
	<stop  offset="0.11" style="stop-color:#AAD037"/>
	<stop  offset="0.28" style="stop-color:#95C93B"/>
	<stop  offset="0.48" style="stop-color:#73BF42"/>
	<stop  offset="0.56" style="stop-color:#62BA46"/>
	<stop  offset="0.6" style="stop-color:#4FB648"/>
	<stop  offset="0.66" style="stop-color:#33B04B"/>
	<stop  offset="0.73" style="stop-color:#1CAB4E"/>
	<stop  offset="0.8" style="stop-color:#0CA850"/>
	<stop  offset="0.89" style="stop-color:#03A651"/>
	<stop  offset="1" style="stop-color:#00A551"/>
</radialGradient>
<path style="fill:url(#SVGID_00000106830973418826438790000017175220189803155100_);" d="M26.9,41.2c-0.1,0.1-0.3,0.3-0.5,0.3
	c-0.2,0.1-0.4,0.2-0.7,0.2c-0.4,0.1-0.4,0.5-0.4,0.8s0.1,0.2,0.2,0.3s0.1,0.3-0.1,0.6c-0.1,0.2-0.2,0.4-0.1,0.7
	c0,0.3,0.2,0.4,0.4,0.6c0.2,0.2,0.4,0.2,0.6,0.1c0.2-0.1,0.4-0.5,0.5-0.8c0.1-0.3,0.2-0.5,0.4-0.8c0.1-0.2,0.2-0.4,0.1-0.6
	c0-0.2,0-0.5,0.1-0.7c0.1-0.1,0.2-0.3,0.3-0.4c0-0.2,0-0.4-0.1-0.6C27.4,41,27.2,41.1,26.9,41.2z"/>
<path class="st5" d="M0,15.4c1.8,5.9,9.3,16,27.3,24.8c10,4.7,27.5,9.8,30.6-0.9c0,0,0.2,5.6-6.9,7.1S34.4,44.5,26,40.5
	S2.4,26.4,0,15.4z"/>
<path class="st6" d="M0.1,18.5C1.2,24,7.2,34,23.4,43.9c9,5.4,25.3,11.8,29.4,2.7c0,0-0.4,5.1-7.4,5.5s-15.7-3.5-23.3-8
	S1.2,28.6,0.1,18.5z"/>
<path class="st7" d="M29.5,40.5v-7.7h3c0.6,0,1.2,0.1,1.7,0.5c0.5,0.4,0.7,1,0.7,1.5c0,0.3-0.1,0.6-0.2,0.9
	c-0.1,0.3-0.4,0.5-0.7,0.7l0,0c0.5,0,0.9,0.2,1.2,0.6c0.3,0.4,0.4,0.9,0.4,1.3c0.1,0.7-0.3,1.3-0.9,1.7c-0.6,0.3-1.3,0.5-2,0.5
	L29.5,40.5z M31.5,35.8h0.3c0.3,0,0.5,0,0.7-0.1c0.2-0.1,0.4-0.3,0.3-0.6c0-0.3-0.1-0.5-0.3-0.6c-0.2-0.1-0.5-0.1-0.7-0.2h-0.4
	L31.5,35.8z M31.5,39h0.9c0.3,0,0.5-0.1,0.7-0.2c0.2-0.1,0.4-0.4,0.3-0.6c0-0.3-0.1-0.6-0.4-0.7c-0.2-0.1-0.5-0.2-0.8-0.2h-0.8
	L31.5,39z"/>
<path class="st7" d="M42.3,33.2l-0.8,1.5c-0.2-0.2-0.4-0.3-0.7-0.4c-0.2-0.1-0.5-0.1-0.7-0.1H40h-0.1c-0.2,0-0.3,0.1-0.4,0.2
	c-0.1,0.1-0.2,0.3-0.2,0.4c0,0.2,0.1,0.3,0.2,0.4c0.1,0.1,0.3,0.2,0.4,0.2H40h0.2l0.5,0.1c0.5,0.1,1,0.4,1.4,0.7
	c0.4,0.4,0.6,0.9,0.6,1.4v0.2c0,0.3-0.1,0.7-0.2,1c-0.1,0.3-0.4,0.6-0.6,0.9c-0.3,0.2-0.6,0.4-0.9,0.5c-0.3,0.1-0.7,0.2-1,0.2h-0.3
	c-0.5,0-1-0.1-1.5-0.2c-0.5-0.2-0.9-0.4-1.3-0.6l0.9-1.6c0.3,0.2,0.6,0.4,0.9,0.6c0.3,0.2,0.7,0.2,1,0.2h0.1c0.2,0,0.5-0.1,0.6-0.2
	c0.2-0.1,0.3-0.3,0.3-0.6c0-0.2-0.1-0.4-0.2-0.5c-0.2-0.1-0.3-0.2-0.5-0.3l-0.3-0.1l-0.2-0.1h0l0,0c-0.5-0.1-1.1-0.3-1.5-0.7
	c-0.4-0.3-0.7-0.8-0.7-1.4c0-0.7,0.3-1.4,0.8-1.9c0.6-0.5,1.3-0.7,2-0.7c0.2,0,0.3,0,0.5,0c0.2,0,0.3,0.1,0.5,0.1
	c0.3,0,0.5,0.1,0.8,0.2C41.8,33,42.1,33.1,42.3,33.2L42.3,33.2z"/>
<path class="st7" d="M49.8,33v2.4c-0.2-0.3-0.5-0.5-0.8-0.6c-0.3-0.1-0.7-0.2-1-0.2c-0.6,0-1.1,0.2-1.6,0.6c-0.4,0.4-0.6,1-0.6,1.5
	c0,0.6,0.2,1.1,0.6,1.5c0.4,0.4,1,0.6,1.6,0.6c0.3,0,0.7-0.1,1-0.2c0.3-0.1,0.6-0.3,0.8-0.6v2.4l-0.5,0.2l-0.5,0.1l-0.4,0.1H48
	c-0.6,0-1.1-0.1-1.6-0.3c-0.5-0.2-1-0.5-1.4-0.8c-0.4-0.4-0.8-0.8-1-1.3c-0.4-1-0.4-2.1,0-3.1c0.2-0.5,0.5-0.9,0.9-1.3
	c0.8-0.8,1.9-1.2,3-1.2H48c0.3,0,0.7,0,1,0.1C49.3,32.8,49.6,32.9,49.8,33L49.8,33z"/>
<path class="st7" d="M57,33v2.4c-0.2-0.3-0.5-0.5-0.8-0.6c-0.3-0.1-0.7-0.2-1-0.2c-0.6,0-1.1,0.2-1.6,0.6c-0.4,0.4-0.6,0.9-0.6,1.5
	c0,0.6,0.2,1.1,0.6,1.5c0.4,0.4,1,0.6,1.6,0.6c0.7,0,1.4-0.3,1.8-0.8v2.4l-0.5,0.2L56,40.7l-0.4,0.1h-0.4c-0.6,0-1.1-0.1-1.6-0.3
	c-0.5-0.2-1-0.5-1.4-0.8c-0.4-0.4-0.8-0.8-1-1.3c-0.2-0.5-0.3-1.1-0.3-1.6c0-1.1,0.4-2.1,1.2-2.9c0.8-0.8,1.9-1.2,3-1.2h0.1
	c0.3,0,0.7,0,1,0.1C56.4,32.8,56.7,32.9,57,33z"/>
<path class="st7" d="M60.7,38.8h2.5v1.7h-4.6v-7.7h2.1V38.8z"/>
<path class="st8" d="M20,54.1c0,0,0,0.1,0,0.1c0,0,0,0.1,0,0.1c0,0,0,0-0.1,0c0,0-0.1,0-0.1,0l-0.1-0.1c-0.1,0-0.1-0.1-0.2-0.1
	c-0.1,0-0.2,0-0.3,0c-0.1,0-0.3,0-0.4,0.1c-0.1,0-0.2,0.1-0.3,0.2c-0.1,0.1-0.2,0.2-0.2,0.3C18.1,54.9,18,55,18,55.2
	c0,0.1-0.1,0.3-0.1,0.4c0,0.1,0,0.3,0,0.4c0,0.1,0,0.2,0,0.4c0,0.1,0.1,0.2,0.1,0.3c0.1,0.1,0.1,0.1,0.2,0.2c0.1,0,0.2,0.1,0.3,0
	c0.1,0,0.2,0,0.3,0l0.2-0.1l0.2-0.1c0,0,0.1,0,0.1,0l0,0c0,0,0,0,0,0.1l0,0l0,0c0,0,0,0,0,0.1c0,0,0,0,0,0.1l0,0c0,0,0,0,0,0
	l-0.1,0.1L19.2,57c-0.1,0-0.2,0.1-0.3,0.1c-0.1,0-0.2,0-0.3,0c-0.2,0-0.3,0-0.5-0.1c-0.1,0-0.3-0.1-0.4-0.2
	c-0.1-0.1-0.2-0.2-0.2-0.4c-0.1-0.2-0.1-0.3-0.1-0.5c0-0.2,0-0.3,0-0.5c0-0.2,0.1-0.3,0.1-0.5c0.1-0.2,0.1-0.3,0.2-0.5
	c0.1-0.1,0.2-0.3,0.4-0.4c0.1-0.1,0.3-0.2,0.5-0.3c0.2-0.1,0.4-0.1,0.5-0.1c0.1,0,0.2,0,0.4,0c0.1,0,0.2,0.1,0.3,0.1
	c0.1,0,0.1,0.1,0.2,0.1C20.1,54,20.1,54.1,20,54.1z"/>
<path class="st8" d="M22.3,55.5c0,0.1,0,0.3,0,0.4c0,0.1-0.1,0.3-0.1,0.4c0,0.1-0.1,0.2-0.2,0.3c-0.1,0.1-0.2,0.2-0.3,0.3
	c-0.1,0.1-0.2,0.1-0.4,0.2c-0.1,0-0.3,0.1-0.4,0.1c-0.1,0-0.3,0-0.4-0.1c-0.1,0-0.2-0.1-0.3-0.2c-0.1-0.1-0.1-0.2-0.2-0.3
	c0-0.1-0.1-0.2,0-0.4c0-0.1,0-0.3,0-0.4c0-0.1,0.1-0.3,0.1-0.4c0-0.1,0.1-0.2,0.2-0.3c0.1-0.1,0.2-0.2,0.3-0.3
	c0.1-0.1,0.2-0.1,0.4-0.2c0.1,0,0.3-0.1,0.4-0.1c0.1,0,0.3,0,0.4,0.1c0.1,0,0.2,0.1,0.3,0.2c0.1,0.1,0.1,0.2,0.2,0.3
	C22.2,55.2,22.3,55.4,22.3,55.5z M21.8,55.5c0-0.1,0-0.2,0-0.2c0-0.1,0-0.1-0.1-0.2c0,0-0.1-0.1-0.2-0.1c-0.1,0-0.2,0-0.2,0
	c-0.1,0-0.2,0-0.3,0c-0.1,0-0.2,0.1-0.2,0.2c-0.1,0.1-0.1,0.1-0.2,0.2c0,0.1-0.1,0.2-0.1,0.3c0,0.1-0.1,0.2-0.1,0.3
	c0,0.1,0,0.2,0,0.3c0,0.1,0,0.1,0,0.2c0,0.1,0,0.1,0.1,0.2c0,0,0.1,0.1,0.2,0.1c0.1,0,0.2,0,0.2,0c0.1,0,0.2,0,0.3-0.1
	c0.2-0.1,0.3-0.2,0.4-0.4c0.1-0.1,0.1-0.2,0.1-0.3c0-0.1,0.1-0.2,0.1-0.3C21.8,55.7,21.8,55.6,21.8,55.5L21.8,55.5z"/>
<path class="st8" d="M24.9,55.2c0,0.1,0,0.1,0,0.2c0,0.1,0,0.1,0,0.2L24.5,57l0,0l0,0h-0.1h-0.2h-0.1l0,0l0,0l0.3-1.4
	c0,0,0-0.1,0-0.2c0,0,0-0.1,0-0.1c0-0.1,0-0.2-0.1-0.3c-0.1-0.1-0.1-0.1-0.2-0.1c-0.1,0-0.2,0-0.3,0.1c-0.1,0.1-0.2,0.1-0.3,0.2
	c-0.1,0.1-0.2,0.2-0.2,0.3c-0.1,0.1-0.1,0.3-0.1,0.4L23,57l0,0h0c0,0,0,0-0.1,0h-0.2h-0.1l0,0l0,0l0.5-2.3l0,0l0,0h0.1h0.2h0.1l0,0
	l0,0l-0.1,0.5c0-0.1,0.1-0.1,0.1-0.2l0.2-0.2c0.1-0.1,0.2-0.1,0.3-0.1c0.1,0,0.2-0.1,0.3-0.1c0.1,0,0.2,0,0.3,0
	c0.1,0,0.1,0.1,0.2,0.1c0,0.1,0.1,0.1,0.1,0.2C24.8,55,24.9,55.1,24.9,55.2z"/>
<path class="st8" d="M27.5,55.2c0,0.1,0,0.1,0,0.2v0.2L27.2,57l0,0l0,0h-0.1h-0.2h-0.1l0,0l0,0l0.3-1.4v-0.2v-0.1
	c0-0.1,0-0.2-0.1-0.3C27,55,27,54.9,26.9,54.9c-0.1,0-0.2,0-0.3,0.1c-0.2,0.1-0.4,0.3-0.5,0.5C26,55.7,26,55.8,26,56l-0.2,1l0,0l0,0
	h-0.1h-0.2h-0.1l0,0l0,0l0.5-2.3l0,0l0,0H26h0.2h0l0,0l0,0l-0.1,0.5c0-0.1,0.1-0.1,0.1-0.2c0.1-0.1,0.1-0.1,0.2-0.2
	c0.1-0.1,0.2-0.1,0.3-0.1c0.1,0,0.2-0.1,0.3-0.1c0.1,0,0.2,0,0.3,0c0.1,0,0.1,0.1,0.2,0.1c0,0.1,0.1,0.1,0.1,0.2
	C27.6,55,27.6,55.1,27.5,55.2z"/>
<path class="st8" d="M30.2,55.2c0,0.1,0,0.2-0.1,0.3c-0.1,0.1-0.1,0.2-0.2,0.2c-0.1,0.1-0.3,0.1-0.5,0.2c-0.2,0-0.4,0.1-0.6,0.1
	h-0.3c0,0.1,0,0.1,0,0.2c0,0,0,0.1,0,0.2c0,0.3,0.1,0.5,0.4,0.5c0,0,0.1,0,0.1,0c0.1,0,0.2,0,0.3,0l0.2,0h0.2h0.1l0,0c0,0,0,0,0,0
	c0,0,0,0,0,0.1s0,0,0,0.1V57c0,0,0,0,0,0.1c0,0-0.1,0-0.1,0.1h-0.2h-0.2H29c-0.1,0-0.3,0-0.4,0c-0.1,0-0.2-0.1-0.3-0.2
	c-0.1-0.1-0.1-0.2-0.2-0.3c0-0.1-0.1-0.2-0.1-0.4c0-0.1,0-0.2,0-0.4c0-0.1,0.1-0.2,0.1-0.4c0-0.1,0.1-0.2,0.2-0.3
	c0.1-0.1,0.2-0.2,0.3-0.3c0.1-0.1,0.2-0.2,0.4-0.2c0.1-0.1,0.3-0.1,0.5-0.1c0.1,0,0.3,0,0.4,0.1c0.1,0,0.2,0.1,0.2,0.1
	c0.1,0,0.1,0.1,0.1,0.2C30.2,55.1,30.2,55.1,30.2,55.2z M29.8,55.2c0-0.1,0-0.2-0.1-0.2c-0.1-0.1-0.2-0.1-0.3-0.1
	c-0.1,0-0.2,0-0.3,0c-0.1,0-0.2,0.1-0.2,0.2c-0.1,0.1-0.1,0.1-0.2,0.2c-0.1,0.1-0.1,0.2-0.1,0.3h0.3c0.1,0,0.3,0,0.4,0
	c0.1,0,0.2,0,0.3-0.1c0.1,0,0.1-0.1,0.1-0.1C29.7,55.3,29.8,55.3,29.8,55.2L29.8,55.2z"/>
<path class="st8" d="M32.5,54.9C32.5,55,32.5,55,32.5,54.9c0,0.1,0,0.2,0,0.2c0,0,0,0,0,0.1c0,0,0,0-0.1,0c0,0-0.1,0-0.1,0
	c0,0-0.1-0.1-0.1-0.1L32,55c-0.1,0-0.2,0-0.2,0c-0.1,0-0.2,0-0.3,0.1c-0.1,0-0.2,0.1-0.2,0.2c-0.1,0.1-0.1,0.2-0.2,0.2
	c0,0.1-0.1,0.2-0.1,0.3s0,0.2,0,0.3c0,0.1,0,0.2,0,0.2c0,0.1,0,0.3,0.1,0.4c0.1,0.1,0.2,0.1,0.3,0.1c0.1,0,0.2,0,0.3,0l0.2-0.1
	l0.1-0.1c0,0,0.1,0,0.1,0l0,0c0,0,0,0,0,0.1v0.1c0,0,0,0.1,0,0.1c0,0,0,0.1,0,0.1c0,0,0,0,0,0.1L32,57c-0.1,0-0.1,0.1-0.2,0.1
	c-0.1,0-0.1,0.1-0.2,0.1c-0.1,0-0.2,0-0.2,0c-0.2,0-0.5-0.1-0.6-0.2c-0.1-0.2-0.2-0.4-0.2-0.6c0-0.1,0-0.2,0-0.3
	c0-0.1,0-0.3,0.1-0.4c0-0.1,0.1-0.3,0.2-0.4c0.1-0.1,0.2-0.2,0.2-0.3c0.1-0.1,0.2-0.2,0.3-0.2c0.1-0.1,0.3-0.1,0.4-0.1H32l0.2,0
	c0.1,0,0.1,0,0.2,0.1l0.1,0.1C32.4,54.8,32.4,54.8,32.5,54.9C32.5,54.9,32.5,54.9,32.5,54.9z"/>
<path class="st8" d="M34.8,57L34.8,57L34.8,57L34.8,57h-0.3h-0.1l0,0l0,0l0.4-2h-1.3l-0.3,1.3c0,0,0,0.1,0,0.1c0,0,0,0.1,0,0.1
	c0,0.1,0,0.1,0,0.2c0,0,0.1,0.1,0.2,0.1h0.1h0.1h0.1h0.1c0,0,0,0,0,0.1c0,0,0,0,0,0.1c0,0,0,0,0,0.1v0.1l0,0h-0.1c0,0-0.1,0-0.1,0
	h-0.1h-0.1c-0.1,0-0.2,0-0.2,0c-0.1,0-0.2,0-0.2-0.1c0,0-0.1-0.1-0.1-0.2c0-0.1,0-0.2,0-0.2v-0.1c0,0,0,0,0-0.1s0-0.1,0-0.1
	c0,0,0-0.1,0-0.1l0.3-1.3h-0.4c0,0,0,0,0-0.1v-0.1c0,0,0-0.1,0-0.1c0,0,0,0,0-0.1c0,0,0,0,0.1,0h0.3l0.1-0.5l0,0l0,0h0.3l0,0l0,0
	l-0.1,0.5H35c0,0,0.1,0,0.1,0c0,0,0,0.1,0,0.1L34.8,57z M35.5,53.9c0,0,0,0.1,0,0.1c0,0,0,0.1,0,0.1h-0.1H35c0,0-0.1,0-0.1,0
	c0,0,0-0.1,0-0.1c0,0,0-0.1,0-0.1v-0.1c0,0,0-0.1,0.1-0.1c0,0,0.1,0,0.1,0h0.3c0,0,0,0,0.1,0c0,0,0,0.1,0,0.1
	C35.4,53.8,35.5,53.9,35.5,53.9L35.5,53.9z"/>
<path class="st8" d="M37.8,55.2c0,0.1,0,0.1,0,0.2c0,0.1,0,0.1,0,0.2L37.5,57l0,0l0,0h-0.1h-0.2h-0.1l0,0l0,0l0.3-1.4
	c0,0,0-0.1,0-0.2c0,0,0-0.1,0-0.1c0-0.1,0-0.2-0.1-0.3c-0.1-0.1-0.1-0.1-0.2-0.1c-0.1,0-0.2,0-0.3,0.1c-0.1,0.1-0.2,0.1-0.3,0.2
	c-0.1,0.1-0.2,0.2-0.2,0.3c-0.1,0.1-0.1,0.3-0.1,0.4L36,57l0,0l0,0h-0.1h-0.2c0,0,0,0-0.1,0l0,0l0,0l0.5-2.3l0,0l0,0h0.1h0.2l0,0
	l0,0l0,0l-0.1,0.5c0-0.1,0.1-0.1,0.1-0.2l0.2-0.2c0.1-0.1,0.2-0.1,0.3-0.1c0.1,0,0.2-0.1,0.3-0.1c0.1,0,0.2,0,0.3,0
	c0.1,0,0.1,0.1,0.2,0.1c0,0.1,0.1,0.1,0.1,0.2C37.8,55,37.8,55.1,37.8,55.2z"/>
<path class="st8" d="M40.2,57.2c0,0.1-0.1,0.2-0.1,0.4c-0.1,0.1-0.1,0.2-0.2,0.2c-0.1,0.1-0.2,0.1-0.3,0.2c-0.2,0-0.3,0-0.5,0
	c-0.1,0-0.3,0-0.4,0c-0.1,0-0.2-0.1-0.3-0.1l0,0c0,0,0,0,0-0.1l0,0c0,0,0,0,0-0.1c0,0,0,0,0-0.1s0,0,0,0l0,0l0,0h0.1l0.1,0.1
	l0.2,0.1c0.1,0,0.2,0,0.3,0c0.1,0,0.2,0,0.2,0c0.1,0,0.1,0,0.2-0.1c0.1,0,0.1-0.1,0.1-0.2c0-0.1,0.1-0.1,0.1-0.2
	c0-0.1,0.1-0.3,0.1-0.4l0.1-0.2c0,0.1-0.1,0.1-0.1,0.2c-0.1,0.1-0.1,0.1-0.2,0.2c-0.1,0.1-0.2,0.1-0.3,0.1c-0.1,0-0.2,0-0.3,0
	c-0.1,0-0.2,0-0.3-0.1c-0.1,0-0.2-0.1-0.2-0.2c-0.1-0.1-0.1-0.2-0.1-0.3c0-0.1,0-0.2,0-0.3c0-0.1,0-0.2,0-0.3c0-0.1,0.1-0.2,0.1-0.4
	c0-0.1,0.1-0.3,0.2-0.4c0.1-0.1,0.1-0.2,0.2-0.3c0.1-0.1,0.2-0.2,0.3-0.2c0.1-0.1,0.3-0.1,0.4-0.1c0.1,0,0.3,0,0.4,0.1
	c0.1,0.1,0.2,0.2,0.3,0.3l0-0.2c0,0,0,0,0.1,0h0.2h0.1h0l0,0l0,0L40.2,57.2z M40.2,55.3c-0.1-0.1-0.2-0.2-0.3-0.3
	C39.8,55,39.7,55,39.6,55c-0.1,0-0.2,0-0.2,0.1c-0.1,0-0.1,0.1-0.2,0.2c-0.1,0.1-0.1,0.2-0.2,0.2c0,0.1-0.1,0.2-0.1,0.3
	c0,0.1,0,0.2-0.1,0.3c0,0.1,0,0.2,0,0.3c0,0.1,0,0.1,0,0.2c0,0.1,0,0.1,0.1,0.2c0,0,0.1,0.1,0.1,0.1c0.1,0,0.1,0,0.2,0
	c0.1,0,0.2,0,0.3-0.1c0.1-0.1,0.2-0.1,0.3-0.2c0.1-0.1,0.2-0.2,0.2-0.3c0.1-0.1,0.1-0.3,0.1-0.4L40.2,55.3z"/>
<path class="st8" d="M43.8,54.7L43.8,54.7C43.8,54.7,43.8,54.7,43.8,54.7L43.8,54.7v0.1l0,0h-0.6l-0.2,1.3c0,0,0,0.1,0,0.1
	c0,0,0,0.1,0,0.1c0,0.1,0,0.1,0.1,0.2c0,0,0.1,0.1,0.2,0.1h0.1h0.1h0.1h0.1c0,0,0,0,0,0.1v0.1c0,0,0,0.1,0,0.1v0.1l0,0h-0.1
	c0,0-0.1,0-0.1,0h-0.1h-0.1c-0.1,0-0.2,0-0.2,0c-0.1,0-0.1,0-0.2-0.1c0,0-0.1-0.1-0.1-0.2c0-0.1,0-0.2,0-0.2v-0.1c0,0,0-0.1,0-0.1
	c0,0,0-0.1,0-0.1s0-0.1,0-0.1l0.3-1.3h-0.4c0,0,0,0,0-0.1c0,0,0-0.1,0-0.1c0,0,0-0.1,0-0.1c0,0,0,0,0-0.1c0,0,0,0,0.1,0h0.3l0.1-0.5
	l0,0l0,0h0.3l0,0l0,0l-0.1,0.5h0.6l0,0C43.9,54.5,43.9,54.6,43.8,54.7C43.9,54.7,43.8,54.7,43.8,54.7z"/>
<path class="st8" d="M45.9,57L45.9,57L45.9,57L45.9,57h-0.3h-0.1l0,0l0,0l0.3-1.4c0,0,0-0.1,0-0.2s0-0.1,0-0.1c0,0,0-0.1,0-0.1
	c0,0,0-0.1,0-0.1L45.7,55h-0.1c-0.1,0-0.2,0-0.3,0.1c-0.1,0.1-0.2,0.1-0.3,0.2c-0.1,0.1-0.2,0.2-0.2,0.3c-0.1,0.1-0.1,0.3-0.1,0.4
	l-0.2,1l0,0l0,0h-0.1H44h-0.1l0,0l0,0l0.7-3.4l0,0l0,0h0.1H45h0.1l0,0l0,0l-0.2,1c0,0,0,0.1,0,0.1s0,0.1,0,0.1c0,0,0,0.1,0,0.1v0.1
	c0-0.1,0.1-0.1,0.1-0.2c0.1-0.1,0.1-0.1,0.2-0.2c0.1-0.1,0.2-0.1,0.3-0.1c0.1,0,0.2-0.1,0.3-0.1c0.1,0,0.2,0,0.3,0
	c0.1,0,0.1,0.1,0.2,0.1c0,0.1,0.1,0.1,0.1,0.2c0,0.1,0,0.2,0,0.2c0,0.1,0,0.1,0,0.2v0.2L45.9,57z"/>
<path class="st8" d="M48.8,55.2c0,0.1,0,0.2-0.1,0.3c-0.1,0.1-0.1,0.2-0.2,0.2c-0.1,0.1-0.3,0.1-0.5,0.2c-0.2,0-0.4,0.1-0.7,0.1
	h-0.3c0,0.1,0,0.1,0,0.2c0,0,0,0.1,0,0.2c0,0.1,0,0.3,0.1,0.4c0.1,0.1,0.3,0.2,0.4,0.1c0.1,0,0.2,0,0.3,0l0.2,0h0.2c0,0,0.1,0,0.1,0
	l0,0c0,0,0,0,0,0c0,0,0,0,0,0.1s0,0,0,0.1c0,0,0,0,0,0.1c0,0,0,0,0,0.1l-0.1,0.1h-0.2h-0.2h-0.3c-0.1,0-0.3,0-0.4,0
	c-0.1,0-0.2-0.1-0.3-0.2c-0.1-0.1-0.1-0.2-0.2-0.3c0-0.1-0.1-0.2,0-0.4c0-0.1,0-0.2,0-0.4c0-0.1,0.1-0.3,0.1-0.4
	c0-0.1,0.1-0.3,0.2-0.4c0.1-0.1,0.2-0.2,0.3-0.3c0.1-0.1,0.2-0.2,0.4-0.2c0.1,0,0.2-0.1,0.4-0.1c0.1,0,0.2,0,0.4,0.1
	c0.1,0,0.2,0.1,0.2,0.1c0.1,0,0.1,0.1,0.1,0.2C48.8,55,48.8,55.1,48.8,55.2z M48.4,55.2c0-0.1,0-0.2-0.1-0.2
	c-0.1-0.1-0.2-0.1-0.3-0.1c-0.1,0-0.2,0-0.3,0c-0.1,0-0.2,0.1-0.2,0.2c-0.1,0.1-0.1,0.1-0.2,0.2c0,0.1-0.1,0.2-0.1,0.3h0.3
	c0.1,0,0.3,0,0.5,0c0.1,0,0.2,0,0.3-0.1c0.1,0,0.1-0.1,0.2-0.1C48.4,55.3,48.4,55.3,48.4,55.2L48.4,55.2z"/>
<path class="st8" d="M53.9,54.7C53.9,54.7,53.9,54.7,53.9,54.7L53.9,54.7l-0.2,0.6c-0.1,0.2-0.2,0.4-0.3,0.6s-0.2,0.4-0.3,0.6
	s-0.2,0.3-0.3,0.5l0,0h-0.1h-0.4h-0.1h0v0l-0.2-1.7L51.3,57l0,0l0,0h-0.1H51h-0.1h0c0,0,0,0,0,0l-0.2-2.2v-0.1l0,0h0.1H51l0,0l0,0
	l0.2,1.9l0,0l0.9-1.8l0,0l0,0h0.1h0.3l0,0l0,0l0.2,1.9l0,0l0,0c0.1-0.1,0.2-0.2,0.2-0.4s0.2-0.3,0.2-0.5s0.2-0.3,0.2-0.5
	c0.1-0.2,0.1-0.3,0.2-0.5l0,0l0,0h0.3l0,0L53.9,54.7z"/>
<path class="st8" d="M56.4,55.5c0,0.1,0,0.3,0,0.4c0,0.1-0.1,0.3-0.1,0.4c-0.1,0.1-0.1,0.2-0.2,0.3c-0.1,0.1-0.2,0.2-0.3,0.3
	c-0.2,0.2-0.5,0.3-0.8,0.3c-0.1,0-0.3,0-0.4-0.1c-0.1,0-0.2-0.1-0.3-0.2c-0.1-0.1-0.1-0.2-0.2-0.3c0-0.1-0.1-0.2-0.1-0.4
	c0-0.1,0-0.3,0-0.4c0-0.1,0.1-0.3,0.1-0.4c0.1-0.1,0.1-0.2,0.2-0.3c0.1-0.1,0.2-0.2,0.3-0.3c0.1-0.1,0.2-0.1,0.3-0.2
	c0.1,0,0.3-0.1,0.4-0.1c0.1,0,0.3,0,0.4,0.1c0.1,0,0.2,0.1,0.3,0.2c0.1,0.1,0.1,0.2,0.2,0.3C56.4,55.2,56.4,55.4,56.4,55.5z
	 M56,55.5c0-0.1,0-0.2,0-0.2c0-0.1,0-0.1-0.1-0.2c-0.1,0-0.1-0.1-0.2-0.1c-0.1,0-0.2,0-0.2,0c-0.1,0-0.2,0-0.3,0
	c-0.1,0-0.2,0.1-0.2,0.2c-0.1,0.1-0.1,0.1-0.2,0.2c-0.1,0.1-0.1,0.2-0.1,0.3c0,0.1-0.1,0.2-0.1,0.3c0,0.1,0,0.2,0,0.3
	c0,0.1,0,0.1,0,0.2c0,0.1,0.1,0.2,0.2,0.3c0.2,0.1,0.4,0.1,0.5,0c0.1,0,0.2-0.1,0.2-0.2c0.1-0.1,0.1-0.1,0.2-0.2
	c0.1-0.1,0.1-0.2,0.1-0.3c0.1-0.1,0.1-0.2,0.1-0.3C56,55.7,56,55.6,56,55.5L56,55.5z"/>
<path class="st8" d="M58.5,54.7L58.5,54.7C58.5,54.7,58.5,54.8,58.5,54.7c0,0.1,0,0.1,0,0.2v0.1c0,0,0,0,0,0.1l0,0l0,0h-0.1h-0.1
	h-0.1c-0.1,0-0.1,0-0.2,0.1c-0.1,0.1-0.2,0.1-0.2,0.2c-0.1,0.1-0.1,0.2-0.2,0.3c-0.1,0.1-0.1,0.3-0.1,0.4l-0.2,1l0,0l0,0h-0.1H57H57
	l0,0l0,0l0.5-2.3l0,0l0,0h0.1h0.2h0.1l0,0l0,0l-0.1,0.4c0-0.1,0.1-0.1,0.1-0.2c0.1-0.1,0.1-0.1,0.2-0.2c0.1,0,0.1-0.1,0.2-0.1
	c0.1,0,0.1,0,0.2,0L58.5,54.7l0.1-0.1l0,0C58.6,54.7,58.6,54.7,58.5,54.7C58.5,54.7,58.5,54.7,58.5,54.7z"/>
<path class="st8" d="M59,57L59,57L59,57L59,57h-0.3h-0.1l0,0l0,0l0.7-3.4l0,0l0,0h0.1h0.2h0.1l0,0l0,0L59,57z"/>
<path class="st8" d="M61.7,57C61.7,57,61.6,57.1,61.7,57l-0.2,0.1h-0.1l0,0l0,0l0.1-0.4c0,0.1-0.1,0.1-0.1,0.2
	C61.2,56.9,61.1,57,61,57c-0.1,0.1-0.2,0.1-0.3,0.1c-0.1,0-0.2,0-0.3,0c-0.1,0-0.2,0-0.3,0c-0.1,0-0.1-0.1-0.2-0.1
	c-0.1,0-0.1-0.1-0.1-0.2c0-0.1-0.1-0.1-0.1-0.2c0-0.1,0-0.1,0-0.2c0-0.1,0-0.1,0-0.2c0-0.1,0-0.2,0-0.3c0-0.1,0-0.3,0.1-0.4
	c0-0.1,0.1-0.3,0.2-0.4c0.1-0.1,0.1-0.2,0.2-0.3c0.1-0.1,0.2-0.2,0.3-0.2c0.1-0.1,0.3-0.1,0.4-0.1c0.1,0,0.1,0,0.2,0
	c0.1,0,0.1,0,0.2,0.1l0.1,0.1c0,0,0.1,0.1,0.1,0.1l0.3-1.3l0,0l0,0H62h0.2h0.1l0,0l0,0L61.7,57z M61.6,55.3
	c-0.1-0.1-0.2-0.2-0.3-0.3c-0.1,0-0.2-0.1-0.3,0c-0.1,0-0.2,0-0.2,0.1c-0.1,0-0.1,0.1-0.2,0.2c-0.1,0.1-0.1,0.2-0.2,0.2
	c0,0.1-0.1,0.2-0.1,0.3c0,0.1-0.1,0.2-0.1,0.3c0,0.1,0,0.2,0,0.3c0,0.1,0,0.3,0.1,0.4c0.1,0.1,0.2,0.1,0.3,0.1c0.1,0,0.2,0,0.3-0.1
	c0.1-0.1,0.2-0.1,0.3-0.2c0.1-0.1,0.2-0.2,0.2-0.3c0.1-0.1,0.1-0.3,0.1-0.4L61.6,55.3z"/>
<path class="st9" d="M46.9,23.7c0-0.2,0.1-0.4-0.1-0.8s-0.3,0.1-0.5,0.2s-0.2-0.3-0.2-0.5s0.4-0.3,0.7-0.5s0-0.4-0.3-0.4
	s-0.9-0.1-1.1,0S45,21.2,45,21.1S44.8,21,44.7,21s-0.1-0.1-0.2-0.2c-0.2-0.1-0.3-0.2-0.5-0.2c-0.2,0,0,0.2,0,0.5s0.1,0.1,0.3,0.3
	s0.2,0.3,0,0.4c-0.2,0-0.3,0.1-0.4,0.2c-0.1,0.2,0.3,0.3,0.3,0.3v0.3c0,0.2,0.1,0.3,0.2,0.4c0.1,0,0.1,0.2,0.1,0.2
	c0,0.2,0,0.4,0,0.6c0,0.2-0.1,0.2-0.2,0.5c0,0,0,0.1,0,0.1c0.1-0.2,0.3,0,0.5-0.1s0.5,0.1,0.7,0s0.3,0,0.4-0.3c0-0.2,0-0.4-0.1-0.6
	c-0.2-0.5,0.4,0.4,0.4,0.4l0.2,0.2c0.1,0.1,0.2,0.5,0.3,0.7s0.2,0.1,0.5,0.3c0-0.2-0.1-0.6-0.1-0.9S46.9,23.9,46.9,23.7z"/>
</svg>
