<svg id="Layer_1" data-name="Layer 1" xmlns="http://www.w3.org/2000/svg" xmlns:xlink="http://www.w3.org/1999/xlink" width="63.96" height="59.04" viewBox="0 0 63.96 59.04"><defs><radialGradient id="radial-gradient" cx="31.91" cy="18.96" r="34.37" gradientTransform="translate(14.09 6.03) scale(0.94)" gradientUnits="userSpaceOnUse"><stop offset="0" stop-color="#b2d235"/><stop offset="0.11" stop-color="#aad037"/><stop offset="0.28" stop-color="#95c93b"/><stop offset="0.48" stop-color="#73bf42"/><stop offset="0.56" stop-color="#62ba46"/><stop offset="0.6" stop-color="#4fb648"/><stop offset="0.66" stop-color="#33b04b"/><stop offset="0.73" stop-color="#1cab4e"/><stop offset="0.8" stop-color="#0ca850"/><stop offset="0.89" stop-color="#03a651"/><stop offset="1" stop-color="#00a551"/></radialGradient><radialGradient id="radial-gradient-2" cx="31.91" cy="18.96" r="34.38" xlink:href="#radial-gradient"/><radialGradient id="radial-gradient-3" cx="31.91" cy="18.96" r="34.39" xlink:href="#radial-gradient"/><radialGradient id="radial-gradient-4" cx="31.92" cy="18.97" r="34.38" xlink:href="#radial-gradient"/></defs><path d="M54.56,32.23s-.18.38-.22.51A6.46,6.46,0,0,1,52,35a7.92,7.92,0,0,1-.91.56,1.65,1.65,0,0,1-.32-.45,2.2,2.2,0,0,0-.65-.83c-.24-.16-.27-.35-.43-.35s-.45-.32-.91-.83a1,1,0,0,0-.92-.39l0,.38a5.32,5.32,0,0,0,.24.78,1.58,1.58,0,0,0,.56.76,13.24,13.24,0,0,1,1,1.7c.16.27.8,1,.8,1a2.19,2.19,0,0,1,.31-.1,3.09,3.09,0,0,0,.56-.21c.11-.05.46-.16.7-.27a10.57,10.57,0,0,1,1-.43c.27-.08.19,0,.29-.19s0-.32.14-.56.27-.3.56-.54.27-.24.32-.37a7.83,7.83,0,0,0,.24-1.51C54.64,33,54.56,32.23,54.56,32.23Z" fill="#00803e"/><path d="M48.1,7.34C42.16,1.57,36.67.6,36.31.58s-.48.3-.72.37a.28.28,0,0,1-.4-.15c-.1-.14-.58,0-.93,0s-.6.16-1,.2a3.68,3.68,0,0,0-.93.13c-.61.15-.63.34-.52.34s.36.17.33.3-.11,0-.53.17-.41.22-.77.06-.71-.28-.89-.15,0,.22.2.53.38.5.6.53.2.23.31.42-.19.23-.45.31-.14-.26-.16-.56-.17-.36-.34-.56-.39-.21-.75-.41-.41,0-.84.1-.14.18-.11.36,0,.25-.17.25a7.32,7.32,0,0,0-1.08.1c-.47.08-.31.16-.42.24a2.12,2.12,0,0,1-.91.14c-.56,0-.73.17-1.32.25a2.17,2.17,0,0,0-.91.28c-.42.17-.34.25-.8.29s-.2-.09-.29-.29-.13.06-.2.28,0,.23-.1.31a1.31,1.31,0,0,1-.5.22c-.19.06.1,0-.52.32s-.41.48-.48.57-.53.09-.72.07-.15-.37,0-.47.45,0,.73,0,.2-.25.51-.44.15-.29.12-.38-.32-.24-.71-.24a15.45,15.45,0,0,0-2.51,0,5.66,5.66,0,0,0-2.26.68,8.79,8.79,0,0,0-2.07,1.65A7.51,7.51,0,0,0,12.4,8.66c-.21.73.13.69.2.61a2.87,2.87,0,0,1,.82-.44c.38-.14.27.12.35.24s0,.28.13.54-.17.45.13.35a1.06,1.06,0,0,0,.66-.68,2.22,2.22,0,0,1,.27-.6c.09-.19.21-.2.34-.27s.15-.43.15-.59-.12-.44-.11-.66.24-.21.44-.36a1.8,1.8,0,0,1,.48-.25c.25-.11.19-.12.52-.42s.28-.13.2,0a4.36,4.36,0,0,1-.42.79c-.16.18,0,.07-.17.32s0,.48.06.57.21.08.48.13-.06.4-.27.45-.21.08-.39.31a3.11,3.11,0,0,0-.33.69.67.67,0,0,1-.58.39,1.9,1.9,0,0,0-.85.3,4.33,4.33,0,0,1-1,0h-.62c-.28,0-.27.2-.61.58a10.14,10.14,0,0,1-1.74,1.65c-.8.58-.79.75-.88.88s0,.21.05.44a2.32,2.32,0,0,0,.26.67c.12.29-.16.43-.34.74s-.33.15-1,.21-.73.63-.75,1-.22.76-.23,1.13-.12.77.56.91.8-.39,1-.53a2.8,2.8,0,0,0,.55-1,4.36,4.36,0,0,1,.75-1.39c.28-.3.49-.61.67-.49s.23,0,.44-.05a1.08,1.08,0,0,0,.48-.3c.25-.2.47.1.58.36a1.51,1.51,0,0,0,.55.57,2.78,2.78,0,0,1,.69.85c.12.29,0,.44-.26.42s-.38.09-.43.22a1.2,1.2,0,0,0-.06.39c0,.09.17.24.28.32s.27,0,.31-.19-.08-.39-.12-.55.08-.12.17-.13.25,0,.32-.15a2.72,2.72,0,0,0,.11-.93c0-.32-.44-.79-.82-1.2s-.27-.45-.25-.7.35-.15.59.11a8.91,8.91,0,0,1,1,.94c.32.42.12.41.23.87s.37.83.54,1.29.31.28.31.12,0-.63,0-1.12.07-.78.34-.87.6.24.74.52A6.14,6.14,0,0,0,17.45,17c.3.44.48.23.75-.13s.47.12.65.39.41-.06.83-.49.54.22.51.45A5,5,0,0,1,20,18.39c-.15.36-.25,1-.47,1.18s-.5.12-.83-.05-.6.25-1,.25a1.82,1.82,0,0,1-.75-.16,2.45,2.45,0,0,1-1-.36c-.35-.3-.46-.19-.46-.19-.35,0-.4.08-.43.26a6.89,6.89,0,0,0-.1.76c0,.16-.28.27-.63.21S14,20.05,13.8,20s-.25-.13-.32-.29a2.35,2.35,0,0,0-.32-.48c-.15-.17-.41-.05-.71-.09a.41.41,0,0,1-.41-.39c0-.17.06-.31.2-.49s.11-.41.07-.69-.34-.07-.52-.06l-.94.11a1.24,1.24,0,0,0-.93.5,1.29,1.29,0,0,1-1,.37c-.33,0-.79,0-.85.22a3.63,3.63,0,0,1-.27.76,4.24,4.24,0,0,0-.42.62,8.41,8.41,0,0,0-.36,1.14c-.15.31-.31.24-.56.34s-.18.2-.24.33a1.71,1.71,0,0,1-.41.49c-.22.2-.37.11-.39,1.56a34.06,34.06,0,0,0,.1,4.19c.13,1,.55.89.81,1.3s.48,1.05.87,1.62,1,.37,1.35.37a2.34,2.34,0,0,1,.81.28c.11,0,.66-.44.66-.44.68-.29.92.13,1.12.52a1.39,1.39,0,0,0,1.29.49c.5,0,.35,1.19.3,1.57A1.52,1.52,0,0,0,13,35.13a4.45,4.45,0,0,1,1.38,2.55,14.42,14.42,0,0,1,.42,3.1c0,.37.69,1.28.87,1.81a14.48,14.48,0,0,1,.48,1.52,1.13,1.13,0,0,0,.5.85c.39.31.52,1.06.84,1.6a1.3,1.3,0,0,0,.86.67c.22.07,1.63.36,1.76.36s.66-.75.93-1.14a11.32,11.32,0,0,1,1.06-1.3c.32-.32.24-1,.2-1.53a1,1,0,0,1,.42-1.07,2.64,2.64,0,0,0,1-.65,1.61,1.61,0,0,0,.11-1.67,12.2,12.2,0,0,1-.87-2.17c0-.34-.07-1-.06-1.08a3.51,3.51,0,0,1,.71-1,28.47,28.47,0,0,0,2.17-2.76,5.92,5.92,0,0,0,1.07-2.49c0-.8-.42-.62-.57-.5s-.28.38-.64.34-1.47-.24-2-.26-.28-.28-.33-.66-.12-.43-.66-.83A1.66,1.66,0,0,1,22,27.58c0-.38-.18-.5-.51-.9a2.48,2.48,0,0,1-.74-1.33c-.06-.61-.12-.91-.44-.93S20,23.9,20,23.64s-.14-.63-.56-1.39-.18-1.21-.12-1.15.36.28.42.06.18-.09.26,0a9.3,9.3,0,0,1,.5,1.19,7,7,0,0,0,.83,1.41,1.28,1.28,0,0,1,.25,1c-.05.5.93,1.52,1.48,2.14s.59,1.61.85,2.18a.51.51,0,0,0,.87.17c.09-.11.16-.05.3-.06a1.58,1.58,0,0,0,.74-.54c.27-.32.85-.23,1-.26a2.36,2.36,0,0,0,.75-.62,1.16,1.16,0,0,1,.79-.35c.28,0,.33-.11.42-.42s.35-.23.52-.44a.91.91,0,0,1,.53-.3c.11,0,.11-.56.12-.73s.11-.19.38-.62a.88.88,0,0,0,.14-1.07,3.33,3.33,0,0,0-.82-.43,1.51,1.51,0,0,1-.57-.58c-.19-.29-.54.15-.63.22s-.38.45-1.22.12S26.2,21.8,26,21.38s-.82-.47-1-.78.08-.69.6-.8.76.61.85.85a3.93,3.93,0,0,0,1.27,1.1c.53.32.42.3.86-.08s.58-.19.62-.09a3.91,3.91,0,0,0,.55.71c.16.14.47.1,1.31.23a7.06,7.06,0,0,0,3.1,0,2,2,0,0,1,.4.48c.18.31.4.37.74.71a.83.83,0,0,0,.76.24,1.18,1.18,0,0,0-.12.42,1.11,1.11,0,0,0,.08.37s0-.13,0,0a.53.53,0,0,0,.65.47c.44-.11.39-.65.44-.85s.29-.37.31,0a2.93,2.93,0,0,0,.29.83,13.83,13.83,0,0,0,.09,1.53,9,9,0,0,0,.93,2.19c.29.48.27.9.53,1.34a3.33,3.33,0,0,1,.44,1.25c.15.62.36.75.42.69.48-.06,1.07-1.24,1.28-2.1a6.86,6.86,0,0,0,0-2.16,1,1,0,0,0,.5-.21,9.56,9.56,0,0,0,1.26-1.44c.53-.66.9-.67,1-1.08s.33-.11.53-.27.48.06.65.05a.36.36,0,0,0,.39-.32,3,3,0,0,0-.08-.63c-.19-.51.45.42.45.42l.18.17c.14.11.19.48.32.69s.5-.11,1,1a6.13,6.13,0,0,1,.27,1.43c.09.43.32,0,.46-.32a.9.9,0,0,1,.38-.43,6.19,6.19,0,0,1,.49,1.59A8.11,8.11,0,0,1,49.29,31c-.12.65.08.73.16.89s.26.51.35.71.22.72.22.72c.08.59.94,1.12.94,1.12.16,0,0-.94,0-1.33a3.1,3.1,0,0,0-.29-.84.86.86,0,0,0-.62-.51c-.22-.1-.1-.18-.1-.42a1.69,1.69,0,0,0-.26-.64,3.53,3.53,0,0,1,.07-1.13,4.63,4.63,0,0,1,.22-.83c.07-.2.15-.15.24,0s.1.1.27.32a3.82,3.82,0,0,1,.33.47c.16.27.43.39.56.54a1.21,1.21,0,0,1,.24.56c.05.25.08.42.08.42s.09-.15.22-.34.52-.57.81-1,.25.1.34-.29a3.09,3.09,0,0,0,0-1,2,2,0,0,0-.19-.76,2.54,2.54,0,0,0-.67-.81,1.18,1.18,0,0,1-.46-.91c0-.32,0-.54.22-.73s.24-.67.61-.67A.44.44,0,0,1,53,25c0,.23.15-.17.24-.41s.32-.08.47-.18a1.13,1.13,0,0,0,.44-.44c.17-.27.3-.15.49-.17s.32,0,.35-.17.45-.23.45-.23C55.37,18.08,52.22,11.39,48.1,7.34ZM22,14.26c-.16.2-.16.3-.53.3s-1,.12-1.38.09-.35,0-.4,0,.07-.46-.15-.46-.43,0-.56.15-.07.35-.33.4-.7.16-.9,0-.28-.11-.26-.31a1,1,0,0,1,.15-.68c.18-.24-.09-.15.19-.48a5.08,5.08,0,0,1,.5-.54c.17-.15.48-.53.67-.43s.45.32.49.48a1.54,1.54,0,0,0,.15.33l.19-.23s0-.25.33-.41.54-.47.65-.37a.58.58,0,0,1,.08.47c0,.2,0,.41-.17.44s-.15.06-.28.09l-.38.08a.65.65,0,0,1,.35,0c.15.08.36.22.36.22a2.15,2.15,0,0,1,.56-.07c.22,0,.65,0,.7.25S22.13,14.07,22,14.26Zm5.26,1.89a2.34,2.34,0,0,1-1.54,0c-.43-.24-.63-.44-.65-.6a2.14,2.14,0,0,1,.1-.67.85.85,0,0,0,.07-.53.59.59,0,0,0-.4-.35c-.4-.11-.38-.13-.48-.46a2.52,2.52,0,0,1-.1-.73.67.67,0,0,1,.22-.7c.33-.28.18-.23.38-.38s.18-.25.49-.31.39-.24.72-.09.55.23.66.4.42.3.15.31a5.33,5.33,0,0,1-.56,0c-.25,0-.52.13-.52.4s0,.53.17.68l.36.28c.16.12,0,.13.25.17s.33-.12.42.07a1.38,1.38,0,0,1,.13.45c0,.08-.05.16-.22.28s0,.31.16.56a3.14,3.14,0,0,1,.33.83C27.36,15.89,27.51,16,27.22,16.15Z" fill="#00803e"/><path d="M41.45,31.39c-.15,0-.23.63-.19,1a4.19,4.19,0,0,0,.06.77c.08.26.28.39.41.37s.63-.65.5-1.24S41.76,31.37,41.45,31.39Z" fill="#00803e"/><path d="M26.88,41.77a1.64,1.64,0,0,1-.46.34,3.23,3.23,0,0,1-.66.24c-.36.11-.36.47-.35.84s.12.24.19.35.1.31-.06.6a1.09,1.09,0,0,0-.13.68c0,.32.22.44.36.63a.59.59,0,0,0,.64.12c.22-.07.36-.48.45-.75a8.12,8.12,0,0,1,.35-.76,1.21,1.21,0,0,0,.14-.63,1.45,1.45,0,0,1,.11-.67c.07-.14.21-.26.26-.38a.66.66,0,0,0-.15-.58C27.4,41.56,27.25,41.66,26.88,41.77Z" fill="#00803e"/><path d="M54.56,31.65s-.18.38-.22.51A6.54,6.54,0,0,1,52,34.44c-.83.54-.91.57-.91.57a1.78,1.78,0,0,1-.32-.46,2.2,2.2,0,0,0-.65-.83c-.24-.16-.27-.35-.43-.35s-.45-.32-.91-.84a1,1,0,0,0-.92-.38l0,.38a5.32,5.32,0,0,0,.24.78,1.63,1.63,0,0,0,.56.76,13.24,13.24,0,0,1,1,1.7c.16.27.8,1,.8,1a2.19,2.19,0,0,1,.31-.1,3.09,3.09,0,0,0,.56-.21c.11-.06.46-.16.7-.27a10.57,10.57,0,0,1,1-.43c.27-.08.19,0,.29-.19s0-.32.14-.56.27-.3.56-.54.27-.24.32-.37a7.83,7.83,0,0,0,.24-1.51C54.64,32.37,54.56,31.65,54.56,31.65Z" fill="url(#radial-gradient)"/><path d="M48.1,6.76C42.16,1,36.67,0,36.31,0s-.48.3-.72.37a.28.28,0,0,1-.4-.15c-.1-.14-.58,0-.93,0s-.6.16-1,.2a3.68,3.68,0,0,0-.93.13c-.61.15-.63.34-.52.34s.36.17.33.3-.11,0-.53.17-.41.22-.77.06-.71-.28-.89-.15,0,.22.2.53.38.5.6.53.2.23.31.42-.19.23-.45.31-.14-.26-.16-.56-.17-.36-.34-.56-.39-.21-.75-.41-.41,0-.84.1-.14.18-.11.36,0,.24-.17.24a7.77,7.77,0,0,0-1.08.11c-.47.08-.31.16-.42.24a2.12,2.12,0,0,1-.91.14c-.56,0-.73.17-1.32.25a2.17,2.17,0,0,0-.91.28c-.42.17-.34.25-.8.29s-.2-.09-.29-.29-.13.06-.2.28,0,.23-.1.31a1.31,1.31,0,0,1-.5.22c-.19.06.1,0-.52.32s-.41.48-.48.57-.53.09-.72.07-.15-.37,0-.47.45,0,.73,0,.2-.25.51-.43.15-.3.12-.39-.32-.24-.71-.24a15.45,15.45,0,0,0-2.51,0,5.66,5.66,0,0,0-2.26.68A8.79,8.79,0,0,0,13.79,5.8,7.51,7.51,0,0,0,12.4,8.08c-.21.73.13.69.2.61a2.68,2.68,0,0,1,.82-.43c.38-.15.27.12.35.23s0,.28.13.54-.17.45.13.36a1.11,1.11,0,0,0,.66-.68A2.16,2.16,0,0,1,15,8.1c.09-.19.21-.2.34-.27s.15-.43.15-.59-.12-.44-.11-.66.24-.21.44-.36A1.55,1.55,0,0,1,16.26,6c.25-.11.19-.12.52-.42s.28-.13.2,0a4.36,4.36,0,0,1-.42.79c-.16.18,0,.07-.17.32s0,.48.06.57.21.08.48.13-.06.4-.27.45-.21.08-.39.3a3.35,3.35,0,0,0-.33.7.67.67,0,0,1-.58.39,1.9,1.9,0,0,0-.85.3,4.33,4.33,0,0,1-1,0h-.62c-.28,0-.27.2-.61.58a10.55,10.55,0,0,1-1.74,1.65c-.8.58-.79.75-.88.87s0,.22.05.45a2.32,2.32,0,0,0,.26.67c.12.3-.16.43-.34.74s-.33.14-1,.21-.73.63-.75,1-.22.76-.23,1.13-.12.77.56.91.8-.39,1-.53a2.8,2.8,0,0,0,.55-1,4.25,4.25,0,0,1,.75-1.39c.28-.3.49-.61.67-.49s.23,0,.44-.05a1.08,1.08,0,0,0,.48-.3c.25-.2.47.1.58.37a1.55,1.55,0,0,0,.55.56,2.78,2.78,0,0,1,.69.85c.12.29,0,.44-.26.43s-.38.08-.43.21a1.16,1.16,0,0,0-.06.39c0,.09.17.24.28.32s.27,0,.31-.19-.08-.39-.12-.55.08-.12.17-.13a.44.44,0,0,0,.32-.15,2.72,2.72,0,0,0,.11-.93c0-.32-.44-.79-.82-1.2s-.27-.45-.25-.7.35-.15.59.11a8.91,8.91,0,0,1,1,.94c.32.43.12.41.23.87s.37.83.54,1.29.31.28.31.12,0-.63,0-1.12.07-.77.34-.87.6.24.74.53a6.46,6.46,0,0,0,.44,1.31c.3.44.48.23.75-.13s.47.12.65.38.41-.05.83-.48.54.22.51.44A4.93,4.93,0,0,1,20,17.81c-.15.36-.25,1-.47,1.18s-.5.12-.83,0-.6.25-1,.25A1.82,1.82,0,0,1,17,19a2.45,2.45,0,0,1-1-.36c-.35-.3-.46-.19-.46-.19-.35,0-.4.08-.43.26a6.89,6.89,0,0,0-.1.76c0,.16-.28.27-.63.21s-.34-.24-.54-.26-.25-.13-.32-.29a2.11,2.11,0,0,0-.32-.48c-.15-.17-.41-.05-.71-.1A.4.4,0,0,1,12,18.2c0-.18.06-.31.2-.49s.11-.41.07-.69S12,17,11.79,17l-.94.11a1.24,1.24,0,0,0-.93.5,1.29,1.29,0,0,1-1,.37c-.33,0-.79,0-.85.22a3.63,3.63,0,0,1-.27.76,4.24,4.24,0,0,0-.42.62,8.41,8.41,0,0,0-.36,1.14c-.15.31-.31.24-.56.34s-.18.2-.24.33a1.71,1.71,0,0,1-.41.49c-.22.2-.37.11-.39,1.56a34.06,34.06,0,0,0,.1,4.19c.13,1,.55.89.81,1.31s.48,1,.87,1.61,1,.37,1.35.37a2.34,2.34,0,0,1,.81.28c.11,0,.66-.44.66-.44.68-.29.92.14,1.12.52a1.39,1.39,0,0,0,1.29.49c.5,0,.35,1.19.3,1.57A1.52,1.52,0,0,0,13,34.55a4.45,4.45,0,0,1,1.38,2.55,14.42,14.42,0,0,1,.42,3.1c0,.37.69,1.29.87,1.81a15.21,15.21,0,0,1,.48,1.51,1.13,1.13,0,0,0,.5.86c.39.31.52,1.06.84,1.6a1.3,1.3,0,0,0,.86.67c.22.07,1.63.37,1.76.37s.66-.76.93-1.15a11.32,11.32,0,0,1,1.06-1.3c.32-.32.24-1,.2-1.53A1.05,1.05,0,0,1,22.73,42a2.64,2.64,0,0,0,1-.65,1.61,1.61,0,0,0,.11-1.67,12.47,12.47,0,0,1-.87-2.16c0-.35-.07-1-.06-1.09a3.51,3.51,0,0,1,.71-1,28.47,28.47,0,0,0,2.17-2.76,5.92,5.92,0,0,0,1.07-2.49c0-.8-.42-.62-.57-.5s-.28.38-.64.34-1.47-.24-2-.26-.28-.28-.33-.66-.12-.43-.66-.83A1.64,1.64,0,0,1,22,27c0-.38-.18-.5-.51-.9a2.48,2.48,0,0,1-.74-1.33c-.06-.61-.12-.91-.44-.93s-.27-.52-.25-.78-.14-.63-.56-1.39-.18-1.21-.12-1.15.36.28.42.06.18-.09.26,0a9.3,9.3,0,0,1,.5,1.19,7,7,0,0,0,.83,1.41,1.28,1.28,0,0,1,.25,1c-.05.5.93,1.52,1.48,2.13s.59,1.61.85,2.2a.51.51,0,0,0,.87.16c.09-.11.16-.05.3-.06a1.58,1.58,0,0,0,.74-.54c.27-.32.85-.23,1-.26a2.36,2.36,0,0,0,.75-.62,1.16,1.16,0,0,1,.79-.35c.28,0,.33-.11.42-.42s.35-.24.52-.44a.91.91,0,0,1,.53-.3c.11,0,.11-.56.12-.73s.11-.19.38-.62a.88.88,0,0,0,.14-1.07,3.33,3.33,0,0,0-.82-.43,1.51,1.51,0,0,1-.57-.58c-.19-.29-.54.15-.63.21s-.38.46-1.22.13S26.2,21.22,26,20.8s-.82-.47-1-.78.08-.69.6-.8.76.61.85.85a3.93,3.93,0,0,0,1.27,1.1c.53.32.42.29.86-.08s.58-.19.62-.09a4.29,4.29,0,0,0,.55.71c.16.14.47.1,1.31.23a7.06,7.06,0,0,0,3.1,0,2,2,0,0,1,.4.49c.18.3.4.36.74.7a.81.81,0,0,0,.76.23,1.27,1.27,0,0,0-.12.43,1.21,1.21,0,0,0,.08.38s0-.14,0,0,.21.59.65.47.39-.65.44-.84.29-.38.31,0a2.93,2.93,0,0,0,.29.83,14,14,0,0,0,.09,1.54,8.81,8.81,0,0,0,.93,2.17c.29.49.27.91.53,1.35a3.33,3.33,0,0,1,.44,1.25c.15.62.36.76.42.69.48-.06,1.07-1.24,1.28-2.1a6.86,6.86,0,0,0,0-2.16,1,1,0,0,0,.5-.21,9.56,9.56,0,0,0,1.26-1.44c.53-.66.9-.67,1-1.08s.33-.11.53-.27.48.06.65,0,.31,0,.39-.31a3,3,0,0,0-.08-.63c-.19-.51.45.42.45.42l.18.17c.14.11.19.48.32.69s.5-.11,1,1a6.23,6.23,0,0,1,.27,1.43c.09.43.32,0,.46-.32a.9.9,0,0,1,.38-.43A6.19,6.19,0,0,1,49.22,28a8.11,8.11,0,0,1,.07,2.41c-.12.65.08.73.16.89s.26.51.35.71.22.72.22.72c.08.59.94,1.12.94,1.12.16,0,0-.94,0-1.33a3.1,3.1,0,0,0-.29-.84.89.89,0,0,0-.62-.51c-.22-.1-.1-.18-.1-.42a1.69,1.69,0,0,0-.26-.64A3.53,3.53,0,0,1,49.72,29a4.63,4.63,0,0,1,.22-.83c.07-.2.15-.15.24,0s.1.1.27.32a3.82,3.82,0,0,1,.33.47c.16.27.43.39.56.54a1.25,1.25,0,0,1,.24.56c.05.25.08.42.08.42s.09-.15.22-.34.52-.57.81-1,.25.09.34-.3a3.09,3.09,0,0,0,0-1,2,2,0,0,0-.19-.76,2.44,2.44,0,0,0-.67-.81,1.18,1.18,0,0,1-.46-.91c0-.32,0-.54.22-.73s.24-.66.61-.66a.44.44,0,0,1,.47.48c0,.23.15-.17.24-.41s.32-.07.47-.18a1.13,1.13,0,0,0,.44-.44c.17-.27.3-.15.49-.17s.32,0,.35-.17.45-.23.45-.23C55.37,17.5,52.22,10.81,48.1,6.76ZM22,13.68c-.16.2-.16.3-.53.3s-1,.12-1.38.09-.35,0-.4,0,.07-.46-.15-.46-.43,0-.56.15-.07.35-.33.39-.7.17-.9,0-.28-.11-.26-.31a1,1,0,0,1,.15-.69c.18-.23-.09-.14.19-.48a5.8,5.8,0,0,1,.5-.53c.17-.15.48-.53.67-.43s.45.31.49.48a1.54,1.54,0,0,0,.15.33l.19-.23s0-.25.33-.41.54-.47.65-.37a.58.58,0,0,1,.08.47c0,.2,0,.41-.17.45l-.28.08-.38.08a.65.65,0,0,1,.35,0l.36.21a2.32,2.32,0,0,1,.56-.06c.22,0,.65,0,.7.25S22.13,13.48,22,13.68Zm5.26,1.89a2.28,2.28,0,0,1-1.54-.05c-.43-.23-.63-.42-.65-.59a2.14,2.14,0,0,1,.1-.67.85.85,0,0,0,.07-.53.59.59,0,0,0-.4-.35c-.4-.11-.38-.13-.48-.46a2.52,2.52,0,0,1-.1-.73.67.67,0,0,1,.22-.7c.33-.28.18-.23.38-.38s.18-.25.49-.32.39-.23.72-.08.55.23.66.4.42.3.15.32h-.56c-.25,0-.52.13-.52.4s0,.53.17.68l.36.28c.16.12,0,.14.25.17s.33-.12.42.07a1.41,1.41,0,0,1,.13.44c0,.09-.05.17-.22.29s0,.31.16.56a3.14,3.14,0,0,1,.33.83C27.36,15.31,27.51,15.46,27.22,15.57Z" fill="url(#radial-gradient-2)"/><path d="M41.45,30.81c-.15,0-.23.63-.19,1a4.12,4.12,0,0,0,.06.77c.08.26.28.39.41.37s.63-.65.5-1.24S41.76,30.79,41.45,30.81Z" fill="url(#radial-gradient-3)"/><path d="M26.88,41.19a1.89,1.89,0,0,1-.46.34,3.23,3.23,0,0,1-.66.24c-.36.11-.36.47-.35.84s.12.24.19.35.1.3-.06.6a1.09,1.09,0,0,0-.13.68c0,.32.22.44.36.63a.59.59,0,0,0,.64.12c.22-.07.36-.48.45-.75a7.09,7.09,0,0,1,.35-.76,1.21,1.21,0,0,0,.14-.63,1.45,1.45,0,0,1,.11-.67c.07-.14.21-.26.26-.38a.68.68,0,0,0-.15-.59C27.4,41,27.25,41.08,26.88,41.19Z" fill="url(#radial-gradient-4)"/><path d="M0,15.37c1.84,5.89,9.27,16,27.31,24.8,10,4.72,27.5,9.76,30.57-.86,0,0,.25,5.64-6.93,7.06S34.37,44.46,26,40.53,2.39,26.36,0,15.37Z" fill="#ec1c24"/><path d="M.12,18.5C1.24,24,7.15,34,23.43,43.93c9,5.39,25.3,11.84,29.4,2.73,0,0-.39,5.07-7.41,5.48s-15.71-3.54-23.26-8S1.2,28.58.12,18.5Z" fill="#ffd300"/><path d="M29.45,40.5V32.8h3a3.11,3.11,0,0,1,1.74.46,1.76,1.76,0,0,1,.65,1.55,2,2,0,0,1-.2.93,1.44,1.44,0,0,1-.68.65h0A1.74,1.74,0,0,1,35.2,37a2.19,2.19,0,0,1,.39,1.34,1.72,1.72,0,0,1-.9,1.67,4.35,4.35,0,0,1-2,.46Zm2.09-4.68h.3a1.9,1.9,0,0,0,.73-.14.57.57,0,0,0,.34-.6c0-.32-.1-.52-.32-.61a2,2,0,0,0-.69-.15h-.36Zm0,3.15h.88a2,2,0,0,0,.73-.2.62.62,0,0,0,.33-.61.65.65,0,0,0-.37-.68,2,2,0,0,0-.79-.16h-.78Z" fill="#fff"/><path d="M42.32,33.23l-.83,1.55a2.57,2.57,0,0,0-.65-.36,2.11,2.11,0,0,0-.74-.14H40l-.13,0a1.17,1.17,0,0,0-.44.2.5.5,0,0,0-.21.42.47.47,0,0,0,.19.39,1.76,1.76,0,0,0,.42.24l.17,0,.15,0,.53.14a4,4,0,0,1,1.42.71,1.71,1.71,0,0,1,.57,1.41v.16a3.37,3.37,0,0,1-.2,1,2,2,0,0,1-.64.87,2.53,2.53,0,0,1-.91.5,4.77,4.77,0,0,1-1,.21h-.32a5,5,0,0,1-1.48-.22,5.59,5.59,0,0,1-1.35-.64l.9-1.63a4.19,4.19,0,0,0,.86.58,2.26,2.26,0,0,0,1,.23h.08a1.19,1.19,0,0,0,.64-.21.63.63,0,0,0,.29-.57.55.55,0,0,0-.24-.46,2.27,2.27,0,0,0-.54-.27l-.26-.08-.23-.06-.05,0,0,0a4.51,4.51,0,0,1-1.51-.65A1.69,1.69,0,0,1,37,35.19a2.39,2.39,0,0,1,.79-1.88,2.86,2.86,0,0,1,2-.7,4.26,4.26,0,0,1,.5,0,4.54,4.54,0,0,1,.51.09,5.54,5.54,0,0,1,.8.21,4.22,4.22,0,0,1,.71.31Z" fill="#fff"/><path d="M49.81,33v2.4a2.1,2.1,0,0,0-.82-.62,2.52,2.52,0,0,0-1-.21,2.08,2.08,0,0,0-1.56.61,2.15,2.15,0,0,0-.59,1.52,2,2,0,0,0,.61,1.5,2.11,2.11,0,0,0,1.57.59,2.45,2.45,0,0,0,1-.21,2.49,2.49,0,0,0,.82-.6v2.39l-.55.16-.5.11-.39.07H48a4.64,4.64,0,0,1-1.62-.28,4.54,4.54,0,0,1-1.4-.84,3.5,3.5,0,0,1-1-1.31,4,4,0,0,1,0-3.12,3.94,3.94,0,0,1,.88-1.3,4.45,4.45,0,0,1,3-1.24h.09a4.53,4.53,0,0,1,1,.1,6.33,6.33,0,0,1,.94.28Z" fill="#fff"/><path d="M57,33v2.4a2,2,0,0,0-.81-.62,2.55,2.55,0,0,0-1-.21,2.06,2.06,0,0,0-1.56.61A2.15,2.15,0,0,0,53,36.68a2,2,0,0,0,.6,1.5,2.15,2.15,0,0,0,1.58.59A2.38,2.38,0,0,0,57,38v2.39l-.54.16-.5.11-.39.07h-.41a4.64,4.64,0,0,1-1.62-.28,4.43,4.43,0,0,1-1.4-.84,3.5,3.5,0,0,1-1-1.31,4,4,0,0,1-.32-1.6A4,4,0,0,1,52,33.85a4.45,4.45,0,0,1,3-1.24h.09a4.53,4.53,0,0,1,1,.1A5.87,5.87,0,0,1,57,33Z" fill="#fff"/><path d="M60.66,38.81h2.5V40.5h-4.6V32.8h2.1Z" fill="#fff"/><path d="M20,54.11a.69.69,0,0,1,0,.13.22.22,0,0,1-.05.13.07.07,0,0,1-.06,0,.12.12,0,0,1-.08,0l-.14-.11a1,1,0,0,0-.21-.1.93.93,0,0,0-.32,0,.86.86,0,0,0-.39.09,1,1,0,0,0-.32.21,1.54,1.54,0,0,0-.25.32,1.46,1.46,0,0,0-.18.38,2.85,2.85,0,0,0-.11.39,2.64,2.64,0,0,0,0,.38,1.38,1.38,0,0,0,.05.37.59.59,0,0,0,.15.27.61.61,0,0,0,.24.17,1,1,0,0,0,.32.05,1.18,1.18,0,0,0,.34,0l.25-.1.17-.1a.28.28,0,0,1,.12,0l0,0s0,0,0,.06a.06.06,0,0,1,0,0v0a.15.15,0,0,0,0,.07.14.14,0,0,0,0,.06l0,0a.1.1,0,0,1,0,.05l-.11.08-.22.09a1.58,1.58,0,0,1-.28.08,1.66,1.66,0,0,1-.32,0,1.21,1.21,0,0,1-.48-.08.77.77,0,0,1-.35-.23,1,1,0,0,1-.23-.38,1.62,1.62,0,0,1-.08-.52,2.18,2.18,0,0,1,.05-.5,2.21,2.21,0,0,1,.15-.5,2.05,2.05,0,0,1,.25-.46,1.8,1.8,0,0,1,.35-.38,1.66,1.66,0,0,1,.45-.26,1.53,1.53,0,0,1,.54-.09,1.25,1.25,0,0,1,.35,0,1,1,0,0,1,.28.11,1,1,0,0,1,.17.11A.18.18,0,0,1,20,54.11Z" fill="#e49f24"/><path d="M22.26,55.48a2.56,2.56,0,0,1,0,.39,1.66,1.66,0,0,1-.11.38,1.7,1.7,0,0,1-.19.35,1.37,1.37,0,0,1-.26.28,1.48,1.48,0,0,1-.35.19,1.43,1.43,0,0,1-.43.07,1.25,1.25,0,0,1-.42-.06.74.74,0,0,1-.29-.17.73.73,0,0,1-.17-.28,1.07,1.07,0,0,1-.05-.37,2.56,2.56,0,0,1,0-.39,1.66,1.66,0,0,1,.11-.38,1.63,1.63,0,0,1,.19-.34,1.42,1.42,0,0,1,.26-.29,1.31,1.31,0,0,1,.35-.19,1.43,1.43,0,0,1,.43-.07,1.33,1.33,0,0,1,.42.06.74.74,0,0,1,.29.17.73.73,0,0,1,.17.28A1.07,1.07,0,0,1,22.26,55.48Zm-.45,0a.79.79,0,0,0,0-.23.51.51,0,0,0-.09-.18.56.56,0,0,0-.17-.11.78.78,0,0,0-.24,0A.66.66,0,0,0,21,55a1.07,1.07,0,0,0-.22.15.79.79,0,0,0-.18.22,1.69,1.69,0,0,0-.12.27,2.46,2.46,0,0,0-.07.29c0,.1,0,.2,0,.3a.73.73,0,0,0,0,.22.51.51,0,0,0,.09.18.46.46,0,0,0,.16.11.62.62,0,0,0,.25,0,.64.64,0,0,0,.28-.06.87.87,0,0,0,.39-.37,1.11,1.11,0,0,0,.12-.27,1.37,1.37,0,0,0,.07-.29A1.46,1.46,0,0,0,21.81,55.51Z" fill="#e49f24"/><path d="M24.86,55.23a.91.91,0,0,1,0,.17.68.68,0,0,1,0,.19L24.54,57l0,0,0,0-.07,0h-.2l-.06,0s0,0,0,0a0,0,0,0,1,0,0l.29-1.43a.77.77,0,0,0,0-.15.66.66,0,0,0,0-.13.42.42,0,0,0-.07-.26.25.25,0,0,0-.22-.09.58.58,0,0,0-.28.07,1.09,1.09,0,0,0-.26.22,1.36,1.36,0,0,0-.22.33,1.32,1.32,0,0,0-.14.41L23,57s0,0,0,0l-.05,0a.08.08,0,0,1-.06,0H22.7l-.06,0s0,0,0,0v0l.46-2.32,0,0,0,0,.07,0h.17l.06,0,0,0s0,0,0,0l-.08.45a.59.59,0,0,1,.12-.19l.21-.18a1.26,1.26,0,0,1,.26-.13.8.8,0,0,1,.3-.06.76.76,0,0,1,.29,0,.72.72,0,0,1,.19.14.54.54,0,0,1,.1.2A1,1,0,0,1,24.86,55.23Z" fill="#e49f24"/><path d="M27.55,55.23a.91.91,0,0,1,0,.17l0,.19L27.22,57s0,0,0,0l0,0-.07,0h-.21l-.06,0,0,0v0l.28-1.43,0-.15v-.13a.5.5,0,0,0-.06-.26.27.27,0,0,0-.23-.09.61.61,0,0,0-.28.07,1.22,1.22,0,0,0-.47.55,1.34,1.34,0,0,0-.15.41l-.2,1,0,0,0,0-.06,0h-.22l-.06,0,0,0a0,0,0,0,1,0,0l.47-2.32a0,0,0,0,1,0,0,.05.05,0,0,1,0,0l.06,0h.18l.05,0,0,0v0l-.09.45a.92.92,0,0,1,.13-.19,1,1,0,0,1,.21-.18.9.9,0,0,1,.26-.13.8.8,0,0,1,.3-.06.84.84,0,0,1,.29,0,.72.72,0,0,1,.19.14.75.75,0,0,1,.1.2A1,1,0,0,1,27.55,55.23Z" fill="#e49f24"/><path d="M30.19,55.19a.59.59,0,0,1-.09.32.72.72,0,0,1-.25.24,1.32,1.32,0,0,1-.45.15,3.06,3.06,0,0,1-.65.06h-.27a.44.44,0,0,0,0,.16.76.76,0,0,0,0,.15.47.47,0,0,0,.53.53,1.32,1.32,0,0,0,.3,0l.23-.05.16,0,.08,0h0a.43.43,0,0,1,0,.05s0,0,0,.06,0,0,0,.07l0,.07s0,0,0,.06a.27.27,0,0,1-.11.06l-.18,0-.24,0-.26,0a1.62,1.62,0,0,1-.4,0,.76.76,0,0,1-.28-.16.62.62,0,0,1-.17-.27,1,1,0,0,1-.06-.37,2.38,2.38,0,0,1,0-.36c0-.13.06-.25.1-.38a1.7,1.7,0,0,1,.19-.35,1.3,1.3,0,0,1,.26-.31,1.36,1.36,0,0,1,.35-.21,1.25,1.25,0,0,1,.45-.08,1,1,0,0,1,.37.06.57.57,0,0,1,.24.14.4.4,0,0,1,.14.18A.54.54,0,0,1,30.19,55.19Zm-.43,0a.25.25,0,0,0-.11-.21.43.43,0,0,0-.29-.08.73.73,0,0,0-.3.05.69.69,0,0,0-.22.16.66.66,0,0,0-.17.23,1.11,1.11,0,0,0-.12.27h.27a1.83,1.83,0,0,0,.44,0,1.07,1.07,0,0,0,.3-.09.32.32,0,0,0,.15-.13A.3.3,0,0,0,29.76,55.23Z" fill="#e49f24"/><path d="M32.51,54.92a.38.38,0,0,1,0,.1.29.29,0,0,1,0,.09.25.25,0,0,0,0,.07.07.07,0,0,1-.06,0,.13.13,0,0,1-.08,0,.3.3,0,0,0-.1-.09L32.05,55a.62.62,0,0,0-.25,0,.65.65,0,0,0-.29.07.76.76,0,0,0-.22.18,1,1,0,0,0-.16.24c0,.1-.07.19-.1.28s0,.19-.05.28a2,2,0,0,0,0,.23.6.6,0,0,0,.12.4.41.41,0,0,0,.34.13.85.85,0,0,0,.29,0l.2-.09.14-.1a.18.18,0,0,1,.09,0s0,0,0,0a.11.11,0,0,1,0,.06v.07a.29.29,0,0,1,0,.09.11.11,0,0,1,0,.08.16.16,0,0,1,0,.07L32,57a.75.75,0,0,1-.18.08.79.79,0,0,1-.22.06.93.93,0,0,1-.24,0,.83.83,0,0,1-.62-.21.9.9,0,0,1-.2-.63,2.14,2.14,0,0,1,0-.34,1.25,1.25,0,0,1,.09-.37,1.73,1.73,0,0,1,.16-.37,1.26,1.26,0,0,1,.25-.31,1.11,1.11,0,0,1,.34-.22,1,1,0,0,1,.44-.08H32l.18.05a.35.35,0,0,1,.15.07l.11.07s0,0,0,.06A.07.07,0,0,1,32.51,54.92Z" fill="#e49f24"/><path d="M34.81,57l0,0,0,0-.07,0h-.2l-.07,0,0,0v0l.41-2H33.6l-.27,1.29s0,.08,0,.12a.49.49,0,0,0,0,.11.31.31,0,0,0,0,.19.24.24,0,0,0,.18.06h.12l.09,0,.07,0h.08s0,0,0,.06a.2.2,0,0,1,0,.07s0,0,0,.08l0,.07,0,0-.07,0a.19.19,0,0,1-.09,0l-.12,0h-.11a.9.9,0,0,1-.25,0A.51.51,0,0,1,33,57a.5.5,0,0,1-.11-.17.75.75,0,0,1,0-.23v-.07s0,0,0-.08,0-.06,0-.08a.19.19,0,0,1,0-.08l.26-1.3h-.36a.08.08,0,0,1,0-.07v-.08a.94.94,0,0,1,0-.09.16.16,0,0,1,0-.07.07.07,0,0,1,.06,0h.32l.11-.55,0,0,0,0h.34l0,0a0,0,0,0,1,0,0l-.11.55h1.49a.11.11,0,0,1,.1,0,.16.16,0,0,1,0,.1Zm.66-3.09a.34.34,0,0,1,0,.12.22.22,0,0,1,0,.08l-.09,0H35a.15.15,0,0,1-.08,0,.19.19,0,0,1,0-.08.57.57,0,0,1,0-.12l0-.12a.27.27,0,0,1,.07-.08.12.12,0,0,1,.08,0h.26a.1.1,0,0,1,.07,0,.19.19,0,0,1,0,.08A.57.57,0,0,1,35.47,53.94Z" fill="#e49f24"/><path d="M37.85,55.23a.91.91,0,0,1,0,.17.68.68,0,0,1,0,.19L37.52,57s0,0,0,0l0,0-.07,0h-.21l-.06,0,0,0v0l.28-1.43a.8.8,0,0,0,0-.15c0-.05,0-.1,0-.13a.5.5,0,0,0-.07-.26.25.25,0,0,0-.22-.09.58.58,0,0,0-.28.07,1.09,1.09,0,0,0-.26.22,1.12,1.12,0,0,0-.22.33,1.11,1.11,0,0,0-.14.41L36,57l0,0,0,0-.06,0h-.21a.08.08,0,0,1-.06,0s0,0,0,0a0,0,0,0,1,0,0l.46-2.32,0,0s0,0,0,0l.06,0h.18l0,0s0,0,0,0v0l-.09.45a.92.92,0,0,1,.13-.19l.21-.18a1.26,1.26,0,0,1,.26-.13.8.8,0,0,1,.3-.06.76.76,0,0,1,.29,0,.72.72,0,0,1,.19.14.54.54,0,0,1,.1.2A1,1,0,0,1,37.85,55.23Z" fill="#e49f24"/><path d="M40.16,57.21a1.17,1.17,0,0,1-.13.36.79.79,0,0,1-.23.25,1.19,1.19,0,0,1-.34.16A1.9,1.9,0,0,1,39,58a1.6,1.6,0,0,1-.39-.05,1.28,1.28,0,0,1-.28-.1l-.05-.05a.08.08,0,0,1,0-.06v0a.13.13,0,0,0,0-.06s0,0,0-.06,0,0,0,0l0,0,0,0,.08,0,.12.06.19.06a1.17,1.17,0,0,0,.29,0,.93.93,0,0,0,.24,0,.6.6,0,0,0,.2-.08.47.47,0,0,0,.13-.15.4.4,0,0,0,.08-.2,3.91,3.91,0,0,1,.09-.39l.07-.24a.72.72,0,0,1-.13.19,1.24,1.24,0,0,1-.21.18,1.05,1.05,0,0,1-.26.13.93.93,0,0,1-.29,0,.66.66,0,0,1-.32-.07.51.51,0,0,1-.21-.17.56.56,0,0,1-.12-.27,1.65,1.65,0,0,1,0-.32,2.14,2.14,0,0,1,0-.34,2.49,2.49,0,0,1,.09-.37,2.43,2.43,0,0,1,.16-.37,1.24,1.24,0,0,1,.23-.32,1,1,0,0,1,.32-.22.84.84,0,0,1,.4-.09.78.78,0,0,1,.39.09,1.18,1.18,0,0,1,.29.26l.05-.24a.1.1,0,0,1,.06-.05l.15,0h.09l.05,0s0,0,0,0v0Zm0-1.89a.8.8,0,0,0-.26-.26.57.57,0,0,0-.32-.09.48.48,0,0,0-.24.06.65.65,0,0,0-.2.17.87.87,0,0,0-.15.25,1.33,1.33,0,0,0-.1.28,1.5,1.5,0,0,0-.06.29,1.18,1.18,0,0,0,0,.26.65.65,0,0,0,0,.2.34.34,0,0,0,.06.15.29.29,0,0,0,.11.11.38.38,0,0,0,.16,0,.63.63,0,0,0,.29-.08,1.05,1.05,0,0,0,.26-.22,1.51,1.51,0,0,0,.22-.32,1.88,1.88,0,0,0,.14-.42Z" fill="#e49f24"/><path d="M43.82,54.74v0s0,0,0,.06a.43.43,0,0,1,0,0l0,.05,0,0h-.64l-.25,1.29a.5.5,0,0,0,0,.12.49.49,0,0,0,0,.11.25.25,0,0,0,.06.19.21.21,0,0,0,.17.06h.12l.09,0,.07,0h.08s0,0,0,.06v.07a.24.24,0,0,0,0,.08l0,.07,0,0-.06,0a.29.29,0,0,1-.1,0l-.11,0h-.12a.9.9,0,0,1-.25,0,.51.51,0,0,1-.18-.09.37.37,0,0,1-.1-.17.53.53,0,0,1,0-.23v-.07a.22.22,0,0,0,0-.08s0-.06,0-.08,0-.06,0-.08l.26-1.3h-.36a.08.08,0,0,1,0-.07.25.25,0,0,1,0-.08.24.24,0,0,1,0-.09.16.16,0,0,1,0-.07.09.09,0,0,1,.06,0h.32l.11-.55,0,0,0,0h.33l0,0v0l-.11.55h.59s0,0,0,0A.14.14,0,0,1,43.82,54.74Z" fill="#e49f24"/><path d="M45.86,57l0,0,0,0-.07,0h-.2l-.06,0s0,0,0,0,0,0,0,0l.28-1.43s0-.1,0-.15,0-.1,0-.14a.52.52,0,0,0,0-.14.21.21,0,0,0,0-.11l-.1-.07-.13,0a.52.52,0,0,0-.28.08.87.87,0,0,0-.26.22,1.72,1.72,0,0,0-.22.33,1.36,1.36,0,0,0-.14.4l-.2,1s0,0,0,0l0,0-.07,0H44l-.06,0,0,0v0l.68-3.43s0,0,0,0a.05.05,0,0,1,0,0l.07,0H45l.06,0,0,0v0l-.21,1a.7.7,0,0,1,0,.14.7.7,0,0,0,0,.14.5.5,0,0,0,0,.13l0,.1a.68.68,0,0,1,.13-.18,1.12,1.12,0,0,1,.2-.18,1.26,1.26,0,0,1,.26-.13.8.8,0,0,1,.3-.06.78.78,0,0,1,.28,0,.5.5,0,0,1,.19.13.47.47,0,0,1,.1.2.69.69,0,0,1,0,.25c0,.06,0,.12,0,.18l0,.18Z" fill="#e49f24"/><path d="M48.82,55.19a.69.69,0,0,1-.08.32.72.72,0,0,1-.25.24,1.32,1.32,0,0,1-.45.15,3.06,3.06,0,0,1-.65.06h-.27a.9.9,0,0,0,0,.16c0,.05,0,.1,0,.15a.57.57,0,0,0,.13.39.56.56,0,0,0,.42.14,1.36,1.36,0,0,0,.29,0l.22-.05.16,0a.18.18,0,0,1,.09,0h0a.08.08,0,0,1,0,.05s0,0,0,.06,0,0,0,.07a.14.14,0,0,1,0,.07s0,0,0,.06l-.11.06-.18,0-.24,0-.26,0a1.56,1.56,0,0,1-.4,0,.9.9,0,0,1-.29-.16.73.73,0,0,1-.17-.27,1.27,1.27,0,0,1-.05-.37,2.38,2.38,0,0,1,0-.36,1.78,1.78,0,0,1,.1-.38A2.31,2.31,0,0,1,47,55.2a1.3,1.3,0,0,1,.26-.31,1.42,1.42,0,0,1,.36-.21A1.25,1.25,0,0,1,48,54.6a1,1,0,0,1,.36.06.68.68,0,0,1,.25.14.49.49,0,0,1,.14.18A.52.52,0,0,1,48.82,55.19Zm-.43,0a.27.27,0,0,0-.1-.21.43.43,0,0,0-.29-.08.7.7,0,0,0-.3.05.87.87,0,0,0-.23.16,1.06,1.06,0,0,0-.17.23,1.09,1.09,0,0,0-.11.27h.26a1.92,1.92,0,0,0,.45,0,.9.9,0,0,0,.29-.09.31.31,0,0,0,.16-.13A.29.29,0,0,0,48.39,55.23Z" fill="#e49f24"/><path d="M53.94,54.7a.13.13,0,0,1,0,.06s0,0,0,0l-.21.57c-.08.19-.17.38-.26.57s-.19.38-.3.56-.23.35-.35.53l0,0-.07,0H52.4l-.06,0-.05,0V57l-.18-1.69L51.34,57l0,0a.05.05,0,0,1,0,0l-.09,0h-.24l-.08,0-.05,0a.09.09,0,0,1,0-.05l-.25-2.19v-.13s0,0,0,0l.06,0h.28s0,0,0,0,0,0,0,0l.18,1.91v0L52,54.72a.05.05,0,0,1,0,0l0,0,.07,0h.26l0,0a0,0,0,0,1,0,0l.19,1.9v0l0,0c.08-.12.15-.25.23-.4s.16-.31.23-.47.15-.34.21-.51a5.17,5.17,0,0,0,.18-.51.05.05,0,0,1,0,0l0,0h.35s0,0,0,0A0,0,0,0,1,53.94,54.7Z" fill="#e49f24"/><path d="M56.43,55.48a2.56,2.56,0,0,1,0,.39c0,.13-.07.26-.11.38a2.37,2.37,0,0,1-.19.35,2.33,2.33,0,0,1-.26.28,1.25,1.25,0,0,1-.78.26,1.35,1.35,0,0,1-.43-.06.78.78,0,0,1-.28-.17.62.62,0,0,1-.17-.28,1.06,1.06,0,0,1-.06-.37,2.58,2.58,0,0,1,0-.39,1.66,1.66,0,0,1,.11-.38,2.21,2.21,0,0,1,.18-.34,1.86,1.86,0,0,1,.27-.29,1.25,1.25,0,0,1,.34-.19,1.5,1.5,0,0,1,.44-.07,1.33,1.33,0,0,1,.42.06.82.82,0,0,1,.29.17.73.73,0,0,1,.17.28A1.38,1.38,0,0,1,56.43,55.48Zm-.45,0a1.4,1.4,0,0,0,0-.23.51.51,0,0,0-.09-.18A.71.71,0,0,0,55.7,55a.83.83,0,0,0-.24,0,.64.64,0,0,0-.28,0,.91.91,0,0,0-.23.15,1,1,0,0,0-.17.22,1.11,1.11,0,0,0-.12.27,2.46,2.46,0,0,0-.07.29c0,.1,0,.2,0,.3a.73.73,0,0,0,0,.22.4.4,0,0,0,.25.29.71.71,0,0,0,.52,0,.57.57,0,0,0,.23-.15,1,1,0,0,0,.17-.22,1.11,1.11,0,0,0,.12-.27A1.37,1.37,0,0,0,56,55.8,1.46,1.46,0,0,0,56,55.51Z" fill="#e49f24"/><path d="M58.49,54.72s0,0,0,0a.2.2,0,0,1,0,.07.25.25,0,0,1,0,.08l0,.07a.16.16,0,0,1,0,.06s0,0,0,0h0l-.06,0-.06,0h-.09a.37.37,0,0,0-.2.08,1.1,1.1,0,0,0-.23.21,1.84,1.84,0,0,0-.2.31,1.72,1.72,0,0,0-.14.4l-.2,1,0,0,0,0-.07,0h-.21l-.06,0s0,0,0,0v0l.46-2.32s0,0,0,0,0,0,0,0l.06,0h.18l.06,0a0,0,0,0,1,0,0v0l-.08.43a1.28,1.28,0,0,1,.14-.21,1.37,1.37,0,0,1,.17-.17.66.66,0,0,1,.2-.11.54.54,0,0,1,.21,0h.17l.07,0,0,0A.08.08,0,0,1,58.49,54.72Z" fill="#e49f24"/><path d="M59,57l0,0,0,0-.07,0h-.2l-.06,0s0,0,0,0a0,0,0,0,1,0,0l.68-3.43,0,0s0,0,0,0l.07,0h.21l.06,0s0,0,0,0v0Z" fill="#e49f24"/><path d="M61.67,57a.09.09,0,0,1-.06.06l-.15,0h-.14l0,0a0,0,0,0,1,0,0l.08-.43a.69.69,0,0,1-.12.18A1.2,1.2,0,0,1,61,57a1.08,1.08,0,0,1-.26.14,1,1,0,0,1-.3,0,.68.68,0,0,1-.26,0A.5.5,0,0,1,60,57a.44.44,0,0,1-.12-.15.64.64,0,0,1-.08-.19.57.57,0,0,1,0-.18,1.15,1.15,0,0,1,0-.18,2,2,0,0,1,0-.33,1.25,1.25,0,0,1,.09-.37,1.73,1.73,0,0,1,.16-.37,1.34,1.34,0,0,1,.22-.31,1.14,1.14,0,0,1,.32-.22.87.87,0,0,1,.4-.09.66.66,0,0,1,.21,0,.48.48,0,0,1,.18.06l.14.11a.74.74,0,0,1,.13.12l.26-1.31a.08.08,0,0,1,0,0l0,0,.07,0h.2l.07,0,0,0v0Zm-.09-1.7a.84.84,0,0,0-.26-.27A.56.56,0,0,0,61,55a.54.54,0,0,0-.25.06.75.75,0,0,0-.19.17,1,1,0,0,0-.15.24,1.33,1.33,0,0,0-.1.28,1.64,1.64,0,0,0-.07.28c0,.1,0,.19,0,.26a.7.7,0,0,0,.09.39.3.3,0,0,0,.27.13.6.6,0,0,0,.28-.08,1,1,0,0,0,.26-.21,1.38,1.38,0,0,0,.23-.33,1.65,1.65,0,0,0,.14-.41Z" fill="#e49f24"/><path d="M46.86,23.72c0-.21.14-.41-.12-.8s-.3.15-.5.23-.18-.31-.18-.5.38-.26.66-.52,0-.36-.35-.36-.91-.08-1.1-.05-.28-.47-.28-.64S44.8,21,44.72,21s-.14-.11-.25-.19a1.6,1.6,0,0,0-.52-.22c-.15,0-.05.22-.05.48s.09.14.32.34.17.33,0,.35a.5.5,0,0,0-.41.25c-.09.19.29.3.29.3v.28a.81.81,0,0,0,.21.4c.07.05.1.17.14.25a2.13,2.13,0,0,1,0,.56c0,.2-.12.2-.22.51a.38.38,0,0,0,0,.15c.13-.16.29,0,.45-.11s.48.06.65,0,.31,0,.39-.31a4.12,4.12,0,0,0-.07-.63c-.2-.51.44.42.44.42l.18.17c.14.11.19.48.32.69s.25.06.5.26c0-.25-.11-.62-.13-.85S46.91,23.93,46.86,23.72Z" fill="#00a551"/></svg>